<?xml version="1.0" encoding="UTF-8"?>
<svg xmlns="http://www.w3.org/2000/svg" viewBox="0 0 715.57 446.28">
  <defs>
    <style>
      .cls-1 {
        fill: #fff;
      }

      .cls-2 {
        fill: #fafafa;
      }

      .cls-3 {
        fill: #f5f5f5;
      }

      .cls-4 {
        fill: #455a64;
      }

      .cls-5 {
        fill: #ae7461;
      }

      .cls-6 {
        opacity: .2;
      }

      .cls-7 {
        fill: #ffbf9d;
      }

      .cls-8 {
        fill: #e0e0e0;
      }

      .cls-9 {
        fill: #ff9a6c;
      }

      .cls-10 {
        fill: #348ac7;
      }

      .cls-11 {
        fill: #6f4439;
      }

      .cls-12 {
        opacity: .4;
      }

      .cls-13 {
        fill: #ebebeb;
      }

      .cls-14 {
        fill: #263238;
      }
    </style>
  </defs>
  <g id="Background_Complete" data-name="Background Complete">
    <path class="cls-3" d="m675.81,98.57c.59-4.28-5.45-7.8-9.98-8.16-2.16-.17-4.41.16-6.46-.56-4.44-1.55-6.21-7.28-10.55-9.11-3.24-1.37-6.97-.15-10.11,1.43-3.14,1.58-6.24,3.57-9.75,3.79-3.05.2-6.37-.94-9.03.55-1.99,1.11-3.03,3.4-4.87,4.76-1.79,1.32-4.13,1.6-6.36,1.72-2.23.12-4.53.14-6.56,1.07-2.03.93-3.7,3.07-3.28,5.26l76.95-.76Z"/>
    <g>
      <g>
        <circle class="cls-13" cx="402.11" cy="108.72" r="27.89"/>
        <path class="cls-1" d="m404.4,109.08c2.13-.87,3.67-3.04,3.71-5.62.05-3.38-2.48-6.16-5.64-6.21-3.17-.05-5.78,2.65-5.83,6.03-.04,2.6,1.46,4.84,3.59,5.75-8.84,1.23-8.55,10.83-8.55,10.83l20.88.33s.58-9.69-8.15-11.11Z"/>
      </g>
      <g>
        <circle class="cls-8" cx="428.8" cy="93" r="12.17" transform="translate(240.25 489.19) rotate(-76.79)"/>
        <polygon class="cls-1" points="428.56 98.44 422.06 94.09 423.57 91.82 427.93 94.74 433.36 87.56 435.54 89.21 428.56 98.44"/>
      </g>
    </g>
    <g>
      <g>
        <circle class="cls-13" cx="334.94" cy="79.34" r="21.81" transform="translate(31.99 242.75) rotate(-41.67)"/>
        <path class="cls-1" d="m336.72,79.62c1.67-.68,2.87-2.38,2.9-4.39.04-2.64-1.94-4.81-4.41-4.85-2.48-.04-4.52,2.07-4.56,4.71-.03,2.04,1.14,3.78,2.81,4.5-6.91.96-6.68,8.47-6.68,8.47l16.32.26s.46-7.58-6.37-8.69Z"/>
      </g>
      <g>
        <circle class="cls-8" cx="355.8" cy="67.05" r="9.52" transform="translate(209.12 398.06) rotate(-76.77)"/>
        <polygon class="cls-1" points="355.61 71.3 350.53 67.9 351.72 66.13 355.12 68.41 359.37 62.79 361.07 64.08 355.61 71.3"/>
      </g>
    </g>
    <g>
      <rect class="cls-3" x="527.8" y="31.13" width="83.22" height="389.36"/>
      <rect class="cls-13" x="569.41" y="31.13" width="41.61" height="388.28"/>
      <rect class="cls-3" x="537.3" y="5.23" width="29.39" height="25.89"/>
      <rect class="cls-13" x="559.69" y="5.23" width="7" height="25.89"/>
      <polyline class="cls-8" points="520.86 31.13 520.86 29.62 613.46 29.62 613.46 31.13"/>
      <rect class="cls-2" x="544.23" y="42.42" width="7.04" height="14.85"/>
      <path class="cls-8" d="m569.41,63.1c0,.16-9.32.28-20.8.28s-20.81-.13-20.81-.28,9.31-.28,20.81-.28,20.8.13,20.8.28Z"/>
      <g>
        <rect class="cls-8" x="586.2" y="42.42" width="7.04" height="14.85"/>
        <path class="cls-8" d="m611.38,63.1c0,.16-9.32.28-20.8.28s-20.81-.13-20.81-.28,9.31-.28,20.81-.28,20.8.13,20.8.28Z"/>
      </g>
      <g>
        <rect class="cls-8" x="586.2" y="71.91" width="7.04" height="14.85"/>
        <path class="cls-8" d="m611.38,92.59c0,.16-9.32.28-20.8.28s-20.81-.13-20.81-.28,9.31-.28,20.81-.28,20.8.13,20.8.28Z"/>
      </g>
      <g>
        <rect class="cls-8" x="586.2" y="102.29" width="7.04" height="14.85"/>
        <path class="cls-8" d="m611.38,122.98c0,.16-9.32.28-20.8.28s-20.81-.13-20.81-.28,9.31-.28,20.81-.28,20.8.13,20.8.28Z"/>
      </g>
      <g>
        <rect class="cls-8" x="586.2" y="132.67" width="7.04" height="14.85"/>
        <path class="cls-8" d="m611.38,153.36c0,.16-9.32.28-20.8.28s-20.81-.13-20.81-.28,9.31-.28,20.81-.28,20.8.13,20.8.28Z"/>
      </g>
      <g>
        <rect class="cls-8" x="586.2" y="162.18" width="7.04" height="14.85"/>
        <path class="cls-8" d="m611.38,182.87c0,.16-9.32.28-20.8.28s-20.81-.13-20.81-.28,9.31-.28,20.81-.28,20.8.13,20.8.28Z"/>
      </g>
      <g>
        <rect class="cls-8" x="586.2" y="191.81" width="7.04" height="14.85"/>
        <rect class="cls-8" x="586.2" y="221.83" width="7.04" height="14.85"/>
        <path class="cls-8" d="m611.38,212.5c0,.16-9.32.28-20.8.28s-20.81-.13-20.81-.28,9.31-.28,20.81-.28,20.8.13,20.8.28Z"/>
      </g>
      <rect class="cls-2" x="544.23" y="72.36" width="7.04" height="14.85"/>
      <path class="cls-8" d="m569.41,93.04c0,.16-9.32.28-20.8.28s-20.81-.13-20.81-.28,9.31-.28,20.81-.28,20.8.13,20.8.28Z"/>
      <rect class="cls-2" x="544.23" y="102.3" width="7.04" height="14.85"/>
      <path class="cls-8" d="m569.41,122.99c0,.16-9.32.28-20.8.28s-20.81-.13-20.81-.28,9.31-.28,20.81-.28,20.8.13,20.8.28Z"/>
      <rect class="cls-2" x="544.23" y="132.24" width="7.04" height="14.85"/>
      <path class="cls-8" d="m569.41,152.93c0,.16-9.32.28-20.8.28s-20.81-.13-20.81-.28,9.31-.28,20.81-.28,20.8.13,20.8.28Z"/>
      <rect class="cls-2" x="544.23" y="162.18" width="7.04" height="14.85"/>
      <path class="cls-8" d="m569.41,182.87c0,.16-9.32.28-20.8.28s-20.81-.13-20.81-.28,9.31-.28,20.81-.28,20.8.13,20.8.28Z"/>
      <rect class="cls-2" x="544.23" y="192.12" width="7.04" height="14.85"/>
      <path class="cls-8" d="m569.41,212.81c0,.16-9.32.28-20.8.28s-20.81-.13-20.81-.28,9.31-.28,20.81-.28,20.8.13,20.8.28Z"/>
      <rect class="cls-2" x="544.23" y="222.07" width="7.04" height="14.85"/>
    </g>
    <g>
      <rect class="cls-3" x="34.58" y="31.13" width="83.22" height="389.36"/>
      <rect class="cls-13" x="76.19" y="31.13" width="41.61" height="388.28"/>
      <rect class="cls-3" x="44.08" y="5.23" width="29.39" height="25.89"/>
      <rect class="cls-13" x="66.47" y="5.23" width="7" height="25.89"/>
      <polyline class="cls-8" points="27.65 31.13 27.65 29.62 120.24 29.62 120.24 31.13"/>
      <rect class="cls-2" x="51.01" y="42.42" width="7.04" height="14.85"/>
      <path class="cls-8" d="m76.19,63.1c0,.16-9.32.28-20.8.28s-20.81-.13-20.81-.28,9.31-.28,20.81-.28,20.8.13,20.8.28Z"/>
      <g>
        <rect class="cls-8" x="92.98" y="42.42" width="7.04" height="14.85"/>
        <path class="cls-8" d="m118.17,63.1c0,.16-9.32.28-20.8.28s-20.81-.13-20.81-.28,9.31-.28,20.81-.28,20.8.13,20.8.28Z"/>
      </g>
      <g>
        <rect class="cls-8" x="92.98" y="71.91" width="7.04" height="14.85"/>
        <path class="cls-8" d="m118.17,92.59c0,.16-9.32.28-20.8.28s-20.81-.13-20.81-.28,9.31-.28,20.81-.28,20.8.13,20.8.28Z"/>
      </g>
      <g>
        <rect class="cls-8" x="92.98" y="102.29" width="7.04" height="14.85"/>
        <path class="cls-8" d="m118.17,122.98c0,.16-9.32.28-20.8.28s-20.81-.13-20.81-.28,9.31-.28,20.81-.28,20.8.13,20.8.28Z"/>
      </g>
      <g>
        <rect class="cls-8" x="92.98" y="132.67" width="7.04" height="14.85"/>
        <path class="cls-8" d="m118.17,153.36c0,.16-9.32.28-20.8.28s-20.81-.13-20.81-.28,9.31-.28,20.81-.28,20.8.13,20.8.28Z"/>
      </g>
      <g>
        <rect class="cls-8" x="92.98" y="162.18" width="7.04" height="14.85"/>
        <path class="cls-8" d="m118.17,182.87c0,.16-9.32.28-20.8.28s-20.81-.13-20.81-.28,9.31-.28,20.81-.28,20.8.13,20.8.28Z"/>
      </g>
      <rect class="cls-8" x="92.98" y="191.81" width="7.04" height="14.85"/>
      <rect class="cls-8" x="92.98" y="221.83" width="7.04" height="14.85"/>
      <path class="cls-8" d="m118.17,212.5c0,.16-9.32.28-20.8.28s-20.81-.13-20.81-.28,9.31-.28,20.81-.28,20.8.13,20.8.28Z"/>
      <rect class="cls-2" x="51.01" y="72.36" width="7.04" height="14.85"/>
      <path class="cls-8" d="m76.19,93.04c0,.16-9.32.28-20.8.28s-20.81-.13-20.81-.28,9.31-.28,20.81-.28,20.8.13,20.8.28Z"/>
      <rect class="cls-2" x="51.01" y="102.3" width="7.04" height="14.85"/>
      <path class="cls-8" d="m76.19,122.99c0,.16-9.32.28-20.8.28s-20.81-.13-20.81-.28,9.31-.28,20.81-.28,20.8.13,20.8.28Z"/>
      <rect class="cls-2" x="51.01" y="132.24" width="7.04" height="14.85"/>
      <path class="cls-8" d="m76.19,152.93c0,.16-9.32.28-20.8.28s-20.81-.13-20.81-.28,9.31-.28,20.81-.28,20.8.13,20.8.28Z"/>
      <rect class="cls-2" x="51.01" y="162.18" width="7.04" height="14.85"/>
      <path class="cls-8" d="m76.19,182.87c0,.16-9.32.28-20.8.28s-20.81-.13-20.81-.28,9.31-.28,20.81-.28,20.8.13,20.8.28Z"/>
      <rect class="cls-2" x="51.01" y="192.12" width="7.04" height="14.85"/>
      <path class="cls-8" d="m76.19,212.81c0,.16-9.32.28-20.8.28s-20.81-.13-20.81-.28,9.31-.28,20.81-.28,20.8.13,20.8.28Z"/>
      <rect class="cls-2" x="51.01" y="222.07" width="7.04" height="14.85"/>
      <rect class="cls-8" x="92.98" y="255.54" width="7.04" height="14.85"/>
      <path class="cls-8" d="m118.17,246.21c0,.16-9.32.28-20.8.28s-20.81-.13-20.81-.28,9.31-.28,20.81-.28,20.8.13,20.8.28Z"/>
      <path class="cls-8" d="m76.19,246.52c0,.16-9.32.28-20.8.28s-20.81-.13-20.81-.28,9.31-.28,20.81-.28,20.8.13,20.8.28Z"/>
      <rect class="cls-2" x="51.01" y="255.78" width="7.04" height="14.85"/>
      <rect class="cls-8" x="92.98" y="289.26" width="7.04" height="14.85"/>
      <path class="cls-8" d="m118.17,279.92c0,.16-9.32.28-20.8.28s-20.81-.13-20.81-.28,9.31-.28,20.81-.28,20.8.13,20.8.28Z"/>
      <path class="cls-8" d="m76.19,280.23c0,.16-9.32.28-20.8.28s-20.81-.13-20.81-.28,9.31-.28,20.81-.28,20.8.13,20.8.28Z"/>
      <rect class="cls-2" x="51.01" y="289.49" width="7.04" height="14.85"/>
      <rect class="cls-8" x="92.98" y="322.97" width="7.04" height="14.85"/>
      <path class="cls-8" d="m118.17,313.63c0,.16-9.32.28-20.8.28s-20.81-.13-20.81-.28,9.31-.28,20.81-.28,20.8.13,20.8.28Z"/>
      <path class="cls-8" d="m76.19,313.94c0,.16-9.32.28-20.8.28s-20.81-.13-20.81-.28,9.31-.28,20.81-.28,20.8.13,20.8.28Z"/>
      <rect class="cls-2" x="51.01" y="323.2" width="7.04" height="14.85"/>
      <rect class="cls-8" x="92.98" y="356.68" width="7.04" height="14.85"/>
      <path class="cls-8" d="m118.17,347.34c0,.16-9.32.28-20.8.28s-20.81-.13-20.81-.28,9.31-.28,20.81-.28,20.8.13,20.8.28Z"/>
      <path class="cls-8" d="m76.19,347.65c0,.16-9.32.28-20.8.28s-20.81-.13-20.81-.28,9.31-.28,20.81-.28,20.8.13,20.8.28Z"/>
      <rect class="cls-2" x="51.01" y="356.91" width="7.04" height="14.85"/>
      <rect class="cls-8" x="92.98" y="390.39" width="7.04" height="14.85"/>
      <path class="cls-8" d="m118.17,381.05c0,.16-9.32.28-20.8.28s-20.81-.13-20.81-.28,9.31-.28,20.81-.28,20.8.13,20.8.28Z"/>
      <path class="cls-8" d="m76.19,381.36c0,.16-9.32.28-20.8.28s-20.81-.13-20.81-.28,9.31-.28,20.81-.28,20.8.13,20.8.28Z"/>
      <rect class="cls-2" x="51.01" y="390.62" width="7.04" height="14.85"/>
    </g>
    <g>
      <g>
        <rect class="cls-13" x="605.17" y="164.57" width="91.04" height="254.7"/>
        <rect class="cls-8" x="653.52" y="164.57" width="42.68" height="254.7"/>
      </g>
      <rect class="cls-3" x="624.26" y="180.82" width="8.19" height="19.89"/>
      <rect class="cls-3" x="624.26" y="258.66" width="8.19" height="19.89"/>
      <path class="cls-3" d="m653.52,208.51c0,.22-10.82.4-24.17.4s-24.18-.18-24.18-.4,10.82-.4,24.18-.4,24.17.18,24.17.4Z"/>
      <rect class="cls-3" x="624.26" y="220.03" width="8.19" height="19.89"/>
      <path class="cls-3" d="m653.52,247.73c0,.22-10.82.4-24.17.4s-24.18-.18-24.18-.4,10.82-.4,24.18-.4,24.17.18,24.17.4Z"/>
      <rect class="cls-3" x="662.58" y="180.82" width="8.19" height="19.89"/>
      <rect class="cls-3" x="680.34" y="180.82" width="8.19" height="19.89"/>
      <rect class="cls-3" x="662.58" y="218.56" width="8.19" height="19.89"/>
      <rect class="cls-3" x="680.34" y="218.56" width="8.19" height="19.89"/>
      <rect class="cls-3" x="662.58" y="256.29" width="8.19" height="19.89"/>
      <rect class="cls-3" x="680.34" y="256.29" width="8.19" height="19.89"/>
      <rect class="cls-3" x="624.26" y="300.09" width="8.19" height="19.89"/>
      <path class="cls-3" d="m653.52,289.16c0,.22-10.82.4-24.17.4s-24.18-.18-24.18-.4,10.82-.4,24.18-.4,24.17.18,24.17.4Z"/>
      <rect class="cls-3" x="662.58" y="297.73" width="8.19" height="19.89"/>
      <rect class="cls-3" x="680.34" y="297.73" width="8.19" height="19.89"/>
      <rect class="cls-3" x="624.26" y="341.53" width="8.19" height="19.89"/>
      <path class="cls-3" d="m653.52,330.6c0,.22-10.82.4-24.17.4s-24.18-.18-24.18-.4,10.82-.4,24.18-.4,24.17.18,24.17.4Z"/>
      <rect class="cls-3" x="662.58" y="339.17" width="8.19" height="19.89"/>
      <rect class="cls-3" x="680.34" y="339.17" width="8.19" height="19.89"/>
      <rect class="cls-3" x="624.26" y="382.96" width="8.19" height="19.89"/>
      <path class="cls-3" d="m653.52,372.03c0,.22-10.82.4-24.17.4s-24.18-.18-24.18-.4,10.82-.4,24.18-.4,24.17.18,24.17.4Z"/>
      <rect class="cls-3" x="662.58" y="380.6" width="8.19" height="19.89"/>
      <rect class="cls-3" x="680.34" y="380.6" width="8.19" height="19.89"/>
      <rect class="cls-8" x="598.32" y="160.39" width="104.72" height="4.33"/>
      <path class="cls-13" d="m696.84,165.12c0,.22-20.35.4-45.44.4s-45.45-.18-45.45-.4,20.34-.4,45.45-.4,45.44.18,45.44.4Z"/>
    </g>
    <g>
      <g>
        <rect class="cls-13" x="259.87" y="179.51" width="83.03" height="232.3"/>
        <rect class="cls-8" x="303.97" y="179.51" width="38.93" height="232.3"/>
      </g>
      <rect class="cls-3" x="277.28" y="194.34" width="7.47" height="18.14"/>
      <rect class="cls-3" x="277.28" y="265.33" width="7.47" height="18.14"/>
      <path class="cls-3" d="m303.97,219.6c0,.2-9.87.37-22.05.37s-22.05-.17-22.05-.37,9.87-.37,22.05-.37,22.05.17,22.05.37Z"/>
      <rect class="cls-3" x="277.28" y="230.1" width="7.47" height="18.14"/>
      <path class="cls-3" d="m303.97,255.36c0,.2-9.87.37-22.05.37s-22.05-.17-22.05-.37,9.87-.37,22.05-.37,22.05.17,22.05.37Z"/>
      <rect class="cls-3" x="312.24" y="194.34" width="7.47" height="18.14"/>
      <rect class="cls-3" x="328.43" y="194.34" width="7.47" height="18.14"/>
      <rect class="cls-3" x="312.24" y="228.76" width="7.47" height="18.14"/>
      <rect class="cls-3" x="328.43" y="228.76" width="7.47" height="18.14"/>
      <rect class="cls-3" x="312.24" y="263.17" width="7.47" height="18.14"/>
      <rect class="cls-3" x="328.43" y="263.17" width="7.47" height="18.14"/>
      <rect class="cls-3" x="277.28" y="303.12" width="7.47" height="18.14"/>
      <path class="cls-3" d="m303.97,293.15c0,.2-9.87.37-22.05.37s-22.05-.17-22.05-.37,9.87-.37,22.05-.37,22.05.17,22.05.37Z"/>
      <rect class="cls-3" x="312.24" y="300.97" width="7.47" height="18.14"/>
      <rect class="cls-3" x="328.43" y="300.97" width="7.47" height="18.14"/>
      <rect class="cls-3" x="277.28" y="340.91" width="7.47" height="18.14"/>
      <path class="cls-3" d="m303.97,330.94c0,.2-9.87.37-22.05.37s-22.05-.17-22.05-.37,9.87-.37,22.05-.37,22.05.17,22.05.37Z"/>
      <rect class="cls-3" x="312.24" y="338.76" width="7.47" height="18.14"/>
      <rect class="cls-3" x="328.43" y="338.76" width="7.47" height="18.14"/>
      <rect class="cls-3" x="277.28" y="378.7" width="7.47" height="18.14"/>
      <path class="cls-3" d="m303.97,368.74c0,.2-9.87.37-22.05.37s-22.05-.17-22.05-.37,9.87-.37,22.05-.37,22.05.17,22.05.37Z"/>
      <rect class="cls-3" x="312.24" y="376.55" width="7.47" height="18.14"/>
      <rect class="cls-3" x="328.43" y="376.55" width="7.47" height="18.14"/>
      <rect class="cls-8" x="253.63" y="175.7" width="95.51" height="3.95"/>
      <path class="cls-13" d="m343.48,180.02c0,.2-18.56.37-41.45.37s-41.45-.17-41.45-.37,18.55-.37,41.45-.37,41.45.17,41.45.37Z"/>
    </g>
    <g>
      <polygon class="cls-13" points="556.49 419.26 464.41 419.26 464.01 118.38 556.09 118.38 556.49 419.26"/>
      <rect class="cls-8" x="510.05" y="118.38" width="46.04" height="300.88"/>
      <rect class="cls-13" x="474.53" y="89.73" width="32.51" height="28.65"/>
      <rect class="cls-8" x="499.29" y="89.73" width="7.75" height="28.65"/>
      <rect class="cls-8" x="456.34" y="116.71" width="102.45" height="1.67"/>
      <rect class="cls-1" x="482.19" y="130.88" width="7.79" height="16.43"/>
      <path class="cls-8" d="m510.05,153.76c0,.17-10.31.31-23.02.31s-23.02-.14-23.02-.31,10.3-.31,23.02-.31,23.02.14,23.02.31Z"/>
      <g>
        <rect class="cls-3" x="528.63" y="130.88" width="7.79" height="16.43"/>
        <path class="cls-13" d="m556.49,153.76c0,.17-10.31.31-23.02.31s-23.02-.14-23.02-.31,10.3-.31,23.02-.31,23.02.14,23.02.31Z"/>
      </g>
      <g>
        <rect class="cls-3" x="528.63" y="163.51" width="7.79" height="16.43"/>
        <path class="cls-13" d="m556.49,186.39c0,.17-10.31.31-23.02.31s-23.02-.14-23.02-.31,10.3-.31,23.02-.31,23.02.14,23.02.31Z"/>
      </g>
      <g>
        <rect class="cls-3" x="528.63" y="197.12" width="7.79" height="16.43"/>
        <path class="cls-13" d="m556.49,220c0,.17-10.31.31-23.02.31s-23.02-.14-23.02-.31,10.3-.31,23.02-.31,23.02.14,23.02.31Z"/>
      </g>
      <g>
        <rect class="cls-3" x="528.63" y="230.73" width="7.79" height="16.43"/>
        <path class="cls-13" d="m556.49,253.62c0,.17-10.31.31-23.02.31s-23.02-.14-23.02-.31,10.3-.31,23.02-.31,23.02.14,23.02.31Z"/>
      </g>
      <rect class="cls-1" x="482.19" y="164" width="7.79" height="16.43"/>
      <path class="cls-8" d="m510.05,186.89c0,.17-10.31.31-23.02.31s-23.02-.14-23.02-.31,10.3-.31,23.02-.31,23.02.14,23.02.31Z"/>
      <rect class="cls-1" x="482.19" y="197.13" width="7.79" height="16.43"/>
      <path class="cls-8" d="m510.05,220.02c0,.17-10.31.31-23.02.31s-23.02-.14-23.02-.31,10.3-.31,23.02-.31,23.02.14,23.02.31Z"/>
      <rect class="cls-1" x="482.19" y="230.26" width="7.79" height="16.43"/>
      <path class="cls-8" d="m510.05,253.14c0,.17-10.31.31-23.02.31s-23.02-.14-23.02-.31,10.3-.31,23.02-.31,23.02.14,23.02.31Z"/>
      <g>
        <rect class="cls-3" x="528.63" y="265.15" width="7.79" height="16.43"/>
        <path class="cls-13" d="m556.49,288.03c0,.17-10.31.31-23.02.31s-23.02-.14-23.02-.31,10.3-.31,23.02-.31,23.02.14,23.02.31Z"/>
      </g>
      <rect class="cls-1" x="482.19" y="264.67" width="7.79" height="16.43"/>
      <path class="cls-8" d="m510.05,287.56c0,.17-10.31.31-23.02.31s-23.02-.14-23.02-.31,10.3-.31,23.02-.31,23.02.14,23.02.31Z"/>
      <g>
        <rect class="cls-3" x="528.63" y="299.56" width="7.79" height="16.43"/>
        <path class="cls-13" d="m556.49,322.45c0,.17-10.31.31-23.02.31s-23.02-.14-23.02-.31,10.3-.31,23.02-.31,23.02.14,23.02.31Z"/>
      </g>
      <rect class="cls-1" x="482.19" y="299.09" width="7.79" height="16.43"/>
      <path class="cls-8" d="m510.05,321.97c0,.17-10.31.31-23.02.31s-23.02-.14-23.02-.31,10.3-.31,23.02-.31,23.02.14,23.02.31Z"/>
      <g>
        <rect class="cls-3" x="528.63" y="333.98" width="7.79" height="16.43"/>
        <path class="cls-13" d="m556.49,356.86c0,.17-10.31.31-23.02.31s-23.02-.14-23.02-.31,10.3-.31,23.02-.31,23.02.14,23.02.31Z"/>
      </g>
      <rect class="cls-1" x="482.19" y="333.5" width="7.79" height="16.43"/>
      <path class="cls-8" d="m510.05,356.39c0,.17-10.31.31-23.02.31s-23.02-.14-23.02-.31,10.3-.31,23.02-.31,23.02.14,23.02.31Z"/>
      <g>
        <rect class="cls-3" x="528.63" y="368.4" width="7.79" height="16.43"/>
        <path class="cls-13" d="m556.49,391.28c0,.17-10.31.31-23.02.31s-23.02-.14-23.02-.31,10.3-.31,23.02-.31,23.02.14,23.02.31Z"/>
      </g>
      <rect class="cls-1" x="482.19" y="367.92" width="7.79" height="16.43"/>
      <path class="cls-8" d="m510.05,390.8c0,.17-10.31.31-23.02.31s-23.02-.14-23.02-.31,10.3-.31,23.02-.31,23.02.14,23.02.31Z"/>
    </g>
    <path class="cls-3" d="m239.32,51.25c.59-4.28-5.45-7.8-9.98-8.16-2.16-.17-4.41.16-6.46-.56-4.44-1.55-6.21-7.28-10.55-9.11-3.24-1.37-6.97-.15-10.11,1.43-3.14,1.58-6.24,3.57-9.75,3.79-3.05.2-6.37-.94-9.03.55-1.99,1.11-3.03,3.4-4.87,4.76-1.79,1.32-4.13,1.6-6.36,1.72-2.23.12-4.53.14-6.56,1.07-2.03.93-3.7,3.07-3.28,5.26l76.95-.76Z"/>
    <path class="cls-3" d="m461.83,27.01c.59-4.28-5.45-7.8-9.98-8.16-2.16-.17-4.41.16-6.46-.56-4.44-1.55-6.21-7.28-10.55-9.11-3.24-1.37-6.97-.15-10.11,1.43-3.14,1.58-6.24,3.57-9.75,3.79-3.05.2-6.37-.94-9.03.55-1.99,1.11-3.03,3.4-4.87,4.76-1.79,1.32-4.13,1.6-6.36,1.72-2.23.12-4.53.14-6.56,1.07-2.03.93-3.7,3.07-3.28,5.26l76.95-.76Z"/>
  </g>
  <g id="Floor">
    <path class="cls-14" d="m715.57,419.26c0,.14-160.2.26-357.77.26s-357.8-.12-357.8-.26,160.16-.26,357.8-.26,357.77.12,357.77.26Z"/>
  </g>
  <g id="Device">
    <g>
      <g>
        <path class="cls-14" d="m245.47,408.06l-112.06-.07c-13.48,0-24.4-10.94-24.4-24.41l.05-280.93c0-13.48,10.94-24.41,24.42-24.41l112.06.07c13.48,0,24.4,10.94,24.4,24.41l-.06,280.93c0,13.48-10.94,24.41-24.42,24.4Z"/>
        <g>
          <g>
            <path class="cls-3" d="m246.25,87.77l-21.8-.1c-2.92-.01-5.3,2.45-5.32,5.51l-.02,3.95c-.01,3.06-2.39,5.52-5.32,5.51l-42.5-.2c-2.92-.01-5.28-2.5-5.27-5.56l.02-3.95c.01-3.06-2.35-5.55-5.27-5.56l-7.67-.04-19.08-.09c-9.48-.04-17.19,7.61-17.23,17.08l-1.16,275.17c-.04,9.47,7.6,17.18,17.08,17.23l112.23.52c9.48.04,17.19-7.61,17.23-17.08l1.16-275.17c.04-9.47-7.6-17.18-17.08-17.23Z"/>
            <g>
              <path class="cls-3" d="m198.62,345.25c-.13,3.32-.25,6.44-.35,9.03h16.12l-1.97-9.9-13.8.87Z"/>
              <path class="cls-3" d="m133.1,349.4l.14,4.88h63.41c.11-2.74.23-5.79.35-8.93l-63.9,4.04Z"/>
              <polygon class="cls-3" points="213.23 344.33 215.21 354.28 244.93 354.28 244.57 342.35 213.23 344.33"/>
              <polygon class="cls-13" points="200.23 205.19 205.85 172.61 191.13 171.52 191.13 205.19 200.23 205.19"/>
              <polygon class="cls-3" points="131.78 331.31 115.8 337.57 115.76 348.88 132.25 347.84 131.78 331.31"/>
              <polygon class="cls-13" points="131.7 328.77 130.83 298.42 130.82 298.42 130.82 287.72 116.01 289.29 115.81 334.97 131.7 328.75 131.7 328.77"/>
              <polygon class="cls-3" points="130.82 263.83 116.12 261.89 116.02 286.86 130.82 285.29 130.82 263.83"/>
              <polygon class="cls-3" points="240.35 288.17 239.73 296.87 222.38 298.74 223.72 305.62 243.42 304.13 243.13 294.27 244.7 287.73 240.35 288.17"/>
              <polygon class="cls-3" points="209.07 306.72 222.91 305.68 219.9 290.23 207.82 291.45 209.07 306.72"/>
              <polygon class="cls-13" points="209.2 308.33 210.26 321.21 212.14 338.87 212.91 342.74 244.52 340.74 243.47 305.74 209.2 308.33"/>
              <path class="cls-3" d="m154.79,247.52l1.22,2.08-24.38,14.22v33.73l25.73-1.82,49.59-5-1.82-22.11-47.38-6.19.31-2.39,46.86,6.12-3.07-37.42-46.39,4.46-.15-1.6,46.41-4.46-1.6-19.53h-44.62l-39.18,7.13-.19,44.72,14.84,1.96,23.82-13.89Zm-20.67,46.82s.18-27.82,0-28.85l19.89-10.58,2.58,38.02-22.47,1.42Z"/>
              <polygon class="cls-3" points="238.73 288.33 220.7 290.15 222.07 297.15 238.22 295.41 238.73 288.33"/>
              <path class="cls-3" d="m198.85,339.3c-.06,1.46-.11,2.92-.17,4.34l13.42-.85-.69-3.46-12.56-.03Z"/>
              <polygon class="cls-13" points="169.95 205.19 172.32 194.48 190.33 194.48 190.33 171.46 134.01 167.29 134.01 188.9 116.41 192.88 116.33 212.28 155.29 205.19 169.95 205.19"/>
              <path class="cls-3" d="m207.53,141.15l-.48-1.97,21.51-8.51-13.99-28.08c-.25.04-.51.06-.77.06l-23.77-.11.65,39.3,16.85-.69Z"/>
              <path class="cls-13" d="m240.12,126.09l-.02-38.34-15.65-.07c-2.92-.01-5.3,2.45-5.32,5.51l-.02,3.95c0,1.89-.92,3.55-2.3,4.54l14,28.1,9.31-3.69Z"/>
              <path class="cls-3" d="m159.27,127.73l-1.81-40.37-4.36-.02-17.01-.08-7.25,36.1,30.43,4.37Zm-3.88-36.28l.58,32.88-22.61-3.31,4.95-29.57h17.08Z"/>
              <path class="cls-3" d="m160.1,127.85v.34c.04,3.15.11,8.82.16,14.89l29.62-1.21-.65-39.34-17.93-.08c-2.92-.01-5.28-2.5-5.27-5.56l.02-3.95c.01-3.06-2.35-5.55-5.27-5.56h-2.51s1.82,40.47,1.82,40.47h.01Z"/>
              <path class="cls-3" d="m126.46,123.02l7.18-35.75c-9.3.17-16.8,7.72-16.84,17.06l-.08,17.82.08-.52,9.67,1.39Z"/>
              <polygon class="cls-3" points="131.59 167.11 116.53 166 116.43 190.4 131.59 186.97 131.59 167.11"/>
              <polygon class="cls-3" points="126.3 123.81 116.71 122.44 116.55 161.96 118.61 162.12 126.3 123.81"/>
              <polygon class="cls-3" points="156.73 328.3 156.98 296.57 131.63 298.36 132.53 329.45 156.73 328.3"/>
              <path class="cls-3" d="m161.39,320.98l35.89,17.19c.43-11.24.81-21.74.77-22.41l.78-.04.38-.76q.51.26.24,7.91c-.15,4.27-.36,9.96-.58,15.65h12.41l-1.83-17.25-2.44-29.75-46.9,4.73,1.27,24.71Z"/>
              <polygon class="cls-3" points="249.37 268.31 248.96 264.13 205.94 268.6 207.75 290.65 244.9 286.9 249.37 268.31"/>
              <polygon class="cls-3" points="190.33 196.89 174.25 196.89 172.42 205.19 190.33 205.19 190.33 196.89"/>
              <path class="cls-3" d="m242.73,199.69l-40.25-2.78-1.64,9.51,1.69,20.64,42.45-4.08-2.25-23.28Zm-38.77,6.71l2.16-6,34.96,2.21,2.02,17.17-37.96,4.5-1.18-17.88Z"/>
              <polygon class="cls-3" points="246.9 242.83 245.13 224.58 202.66 228.66 204.26 248.09 246.9 242.83"/>
              <polygon class="cls-3" points="132.3 349.45 115.82 350.49 115.75 349.42 115.73 354.28 132.44 354.28 132.3 349.45"/>
              <path class="cls-13" d="m263.03,117.02l.24.61.05-12.64c.04-9.47-7.6-17.18-17.08-17.23l-5.35-.02.02,38.02,22.1-8.75Z"/>
              <path class="cls-3" d="m197.25,339.05l-36.64-17.55-1.29-25.15-1.53.15-.26,32.57-24.97,1.18.02.73h0s0,.02,0,.02l.48,16.79,64.01-4.05c.06-1.56.12-3.13.18-4.69Zm-63.13-6.72l34.95-2.45,22.74,10.55-57.69,3.12v-11.22Z"/>
              <path class="cls-3" d="m252.62,159.25l1.5-8.89c-13.14-4.69-14.05-18.39-14.01-22.54l-8.58,3.39,12.91,25.92,8.17,2.11Z"/>
              <polygon class="cls-3" points="205.74 266.2 223.61 264.34 220.09 248.56 204.45 250.49 205.74 266.2"/>
              <polygon class="cls-3" points="244.28 174.72 210.91 174.72 208.15 174.51 204.38 196.36 243.98 199.1 243.06 189.6 246.96 175.57 244.28 174.72"/>
              <path class="cls-3" d="m241.97,168.86l.42-10.43-13.11-26.32-20.33,8.05,6.99,28.7h26.04Zm-13.49-33.55l12.02,22.86-1.74,7.12-20.56-.77-5.14-21.62,15.42-7.59Z"/>
              <polygon class="cls-3" points="247.16 294.68 247.78 315.17 262.23 314.35 262.28 315.16 247.8 315.97 248.54 340.49 262.2 339.62 262.31 341.23 248.59 342.09 248.95 354.28 262.27 354.28 262.56 285.93 248.94 287.3 247.16 294.68"/>
              <path class="cls-13" d="m159.3,128.55l-30.61-4.39-7.66,38.14,38.4,2.84c.15-5.87.02-23.88-.13-36.59Z"/>
              <polygon class="cls-3" points="209.65 168.86 214.28 168.86 207.72 141.95 190.69 142.64 191.1 167.49 209.65 168.86"/>
              <path class="cls-3" d="m115.65,373.86l-.02,5.64c0,.17.02.34.02.52v-6.16Z"/>
              <path class="cls-3" d="m160.22,165.2l30.07,2.23-.41-24.75-29.63,1.21c.06,8.37.09,17.3-.04,21.31Z"/>
              <polygon class="cls-3" points="247.13 245.23 220.89 248.47 224.41 264.26 248.73 261.73 247.13 245.23"/>
              <path class="cls-13" d="m254.25,149.56l1.68-9.98,7.24.56.09-21.48-22.35,8.84c-.45,15.12,9.04,20.43,13.33,22.05Z"/>
              <polygon class="cls-3" points="245.64 188.12 246.56 197.54 262.93 198.67 263.01 179.27 249.3 174.94 245.64 188.12"/>
              <path class="cls-3" d="m253.44,268.6l-4.3,17.88,13.43-1.35.08-18.75c-4.12-1.08-7.72-1.97-9.65-2.34l.44,4.57Z"/>
              <polygon class="cls-3" points="244.38 169.17 263.03 175.06 263.07 164.45 244.75 159.71 244.38 169.17"/>
              <path class="cls-3" d="m252.76,261.58c1.5.23,4.35.83,9.9,2.29l.17-40.99-13.69,1.32,3.62,37.39Z"/>
              <polygon class="cls-3" points="248.98 222.59 262.83 221.26 262.92 201.09 246.79 199.98 248.98 222.59"/>
              <path class="cls-3" d="m255.8,150.07c2.63.8,5.07,1.42,7.33,1.87l.04-10.18-5.9-.46-1.48,8.77Z"/>
              <path class="cls-3" d="m254.18,159.66l8.9,2.3.04-9.2c-2.3-.46-4.79-1.09-7.46-1.9l-1.48,8.79Z"/>
              <path class="cls-1" d="m262.31,341.23l-.1-1.61-13.67.86-.74-24.51,14.48-.81-.05-.8-14.46.81-.61-20.48,1.78-7.38,13.62-1.37v-.81s-13.42,1.35-13.42,1.35l4.3-17.88-.44-4.57c1.93.37,5.53,1.26,9.65,2.34v-2.51c-5.53-1.46-8.38-2.06-9.89-2.29l-3.62-37.39,13.69-1.32v-1.62s-13.84,1.33-13.84,1.33l-2.19-22.61,16.13,1.12v-2.42s-16.36-1.13-16.36-1.13l-.91-9.42,3.66-13.18,13.71,4.33.02-4.21-18.65-5.89.38-9.45,18.32,4.73v-2.49s-8.89-2.3-8.89-2.3l1.48-8.79c2.67.81,5.16,1.44,7.46,1.9v-.83c-2.26-.45-4.7-1.07-7.33-1.87l1.48-8.77,5.9.46v-1.61s-7.24-.56-7.24-.56l-1.68,9.98c-4.29-1.62-13.79-6.94-13.33-22.05l22.35-8.84v-1.02s-.24-.61-.24-.61l-22.1,8.75-.02-38.02h-.8s.02,38.34.02,38.34l-9.31,3.69-14-28.1c-.66.47-1.42.79-2.24.91l13.99,28.08-21.51,8.51.48,1.97-16.85.69-.65-39.3h-.8s.65,39.33.65,39.33l-29.62,1.21c-.05-6.06-.11-11.73-.15-14.89v-.34s-.02,0-.02,0l-1.82-40.48h-.81s1.81,40.37,1.81,40.37l-30.43-4.37,7.25-36.1h-2.07c-.13-.01-.26,0-.39,0l-7.18,35.75-9.67-1.39-.08.52v.28s9.58,1.38,9.58,1.38l-7.69,38.3-2.06-.15-.02,4.03,15.06,1.12v19.86l-15.17,3.43v2.48s17.58-3.98,17.58-3.98v-21.61l56.32,4.17v23.02h-18.01l-2.37,10.72h-14.66l-38.96,7.09v2.45s39.17-7.13,39.17-7.13h44.62l1.6,19.53-46.41,4.46.15,1.6,46.39-4.46,3.07,37.42-46.86-6.12-.31,2.39,47.38,6.19,1.82,22.11-49.59,5-25.73,1.82v-33.73l24.38-14.22-1.22-2.08-23.82,13.89-14.84-1.96v2.43s14.69,1.94,14.69,1.94v21.47l-14.8,1.57v2.43s14.8-1.57,14.8-1.57v10.7h.01s.87,30.35.87,30.35v-.02s-15.89,6.22-15.89,6.22v2.6s15.96-6.26,15.96-6.26l.48,16.53-16.5,1.04v.53s.07,1.07.07,1.07l16.48-1.04.14,4.83h.81l-.14-4.88,63.9-4.04c-.12,3.14-.24,6.18-.35,8.93h1.61c.1-2.59.22-5.71.35-9.03l13.8-.87,1.97,9.9h.82l-1.98-9.95,31.35-1.98.36,11.94h4.02m-50.27-10.64c.06-1.43.11-2.88.17-4.34l12.56.03.69,3.46-13.42.85Zm14.23-.9l-.77-3.87-1.88-17.66-1.06-12.88,34.27-2.58,1.05,35-31.61,2Zm7.79-52.59l18.03-1.82-.5,7.08-16.16,1.74-1.37-7Zm-.8.08l3.02,15.45-13.84,1.04-1.25-15.27,12.08-1.22Zm23.53,13.9l-19.7,1.49-1.34-6.88,17.36-1.87.62-8.7,4.35-.44-1.57,6.54.3,9.87Zm-23.34-55.57l3.52,15.78-17.86,1.86-1.29-15.71,15.63-1.93Zm4.33,15.69l-3.52-15.79,26.25-3.23,1.6,16.5-24.32,2.53Zm18.08-67l-39.6-2.74,3.77-21.85,2.77.2h33.36s2.68.85,2.68.85l-3.9,14.03.92,9.5Zm-2.38-69.43c-.04,4.15.87,17.85,14.01,22.54l-1.5,8.89-8.17-2.11-12.91-25.92,8.58-3.39Zm-10.83,4.29l13.11,26.32-.42,10.43h-26.04l-6.99-28.7,20.33-8.05Zm-21.55,9.84l6.55,26.91h-4.63l-18.55-1.37-.41-24.84,17.04-.7Zm-17.84.73l.41,24.75-30.07-2.23c.13-4.01.1-12.94.04-21.31l29.63-1.21Zm-61.2-18.52l30.61,4.39c.15,12.71.29,30.72.13,36.59l-38.4-2.84,7.66-38.14Zm77.16,48.46l-5.62,32.58h-9.1v-33.67l14.72,1.09Zm-31.59,24.28h16.07v8.3h-17.9l1.83-8.3Zm26.58,9.53l1.64-9.51,40.25,2.78,2.25,23.28-42.45,4.08-1.69-20.64Zm44.3,18.16l1.77,18.25-42.65,5.25-1.6-19.42,42.47-4.08Zm-39.19,44.03l43.02-4.48.41,4.18-4.47,18.59-37.15,3.75-1.81-22.05Zm3.52,52.68l1.83,17.25h-12.41c.22-5.69.43-11.38.58-15.65q.27-7.66-.24-7.91l-.38.76-.78.04c.04.67-.35,11.18-.77,22.41l-35.89-17.19-1.27-24.71,46.9-4.73,2.44,29.75Zm-52.48-24.71l-.25,31.74-24.2,1.15-.89-31.09,25.34-1.79Zm-24.4,34.43h0s0-.02,0-.02l-.02-.73,24.97-1.18.26-32.57,1.53-.15,1.29,25.15,36.64,17.55c-.06,1.56-.12,3.13-.18,4.69l-64.01,4.05-.48-16.79Z"/>
              <polygon class="cls-8" points="169.07 329.87 134.12 332.33 134.12 343.55 191.81 340.42 169.07 329.87"/>
              <polygon class="cls-8" points="241.08 202.61 206.12 200.4 203.95 206.4 205.14 224.28 243.1 219.78 241.08 202.61"/>
              <path class="cls-1" d="m115.73,296.35l-.08,77.52v6.16c.24,9.23,7.75,16.67,17.05,16.71l112.23.52c9.48.04,17.19-7.61,17.23-17.08l.11-83.82H115.73Z"/>
              <polygon class="cls-8" points="156.66 126.43 156.08 93.55 139 93.55 134.05 123.12 156.66 126.43"/>
              <polygon class="cls-13" points="238.77 165.3 240.5 158.17 228.49 135.31 213.07 142.9 218.21 164.52 238.77 165.3"/>
              <path class="cls-8" d="m134.12,265.48c.18,1.04,0,28.85,0,28.85l22.47-1.42-2.58-38.02-19.89,10.58Z"/>
            </g>
            <polygon class="cls-8" points="209.08 288.07 207.89 270.83 246.43 265.88 246.43 268.85 241.77 284.7 209.08 288.07"/>
            <path class="cls-1" d="m245.01,331.99l-.48-11.24-33.88,1.65c-.89.04-1.77-.15-2.56-.54l-48.06-24.27c-1.11-.56-1.84-1.68-1.91-2.93l-6.54-126.87c-.03-.61.2-1.2.64-1.63.44-.43,1.04-.64,1.64-.6l20.6,1.53v-22.52h2.41v22.83c0,.59-.25,1.15-.68,1.56-.43.4-1.01.6-1.6.56l-20.58-1.52,6.53,126.54c.02.38.24.73.58.9l48.06,24.27c.42.21.89.31,1.36.29l34.16-1.66c.58-.03,1.12.17,1.54.56.42.39.67.91.69,1.48l.5,11.52-2.41.1Z"/>
          </g>
          <path class="cls-10" d="m242.1,186.95c0-11.39-10.29-20.37-22.08-18.16-7.42,1.39-13.33,7.45-14.62,14.88-.81,4.65.15,9.02,2.27,12.62h-.01l.05.07c.71,1.2,1.6,2.05,2.5,3.31l10.74,14.23c1.34,1.77,4,1.77,5.33,0l10.56-13.99s1.97-2.35,2.69-3.56l.04-.05h0c1.61-2.74,2.55-5.93,2.55-9.34Zm-18.5,8.05c-4.5,0-8.14-3.64-8.14-8.14s3.64-8.14,8.14-8.14,8.14,3.64,8.14,8.14-3.64,8.14-8.14,8.14Z"/>
          <path class="cls-14" d="m189.51,387.87h0c-.1,0-.21-.04-.28-.12l-3.87-4.03c-.15-.15-.14-.4.01-.54.15-.15.4-.14.54.01l3.59,3.74,3.52-3.67c.15-.15.39-.16.55-.01.15.15.16.39.01.54l-3.8,3.96c-.07.08-.17.12-.28.12Z"/>
        </g>
      </g>
      <g>
        <g>
          <rect class="cls-1" x="203.24" y="123.39" width="110.83" height="35.82" rx="7.85" ry="7.85"/>
          <path class="cls-14" d="m306.22,159.21c-.01-.07,1.02.1,2.76-.56.86-.34,1.88-.9,2.82-1.88.93-.97,1.77-2.36,2.05-4.1.16-.86.1-1.79.11-2.78,0-.98,0-2.01-.01-3.09,0-2.15-.01-4.49-.02-7.01,0-2.51-.01-5.2-.02-8.05.01-.72-.04-1.41-.18-2.12-.16-.7-.42-1.38-.76-2.04-.36-.64-.81-1.24-1.34-1.78-.54-.53-1.16-.98-1.84-1.34-.68-.37-1.44-.6-2.21-.75-.77-.16-1.58-.11-2.42-.12-1.66,0-3.35,0-5.08,0-3.45,0-7.05,0-10.77.02-7.44,0-15.4.02-23.76.02-16.74,0-35.14.01-54.45.02-2.34,0-4.64,1.12-6.02,2.98-.7.92-1.19,1.98-1.42,3.11-.23,1.11-.13,2.3-.15,3.48,0,4.7,0,9.34,0,13.89,0,1.14,0,2.27,0,3.4-.03,1.14.03,2.21.39,3.25.68,2.06,2.27,3.76,4.22,4.59,1.95.9,4.18.54,6.32.61,2.14,0,4.26,0,6.35,0,16.74.02,31.81.04,44.47.06,12.65.03,22.88.06,29.98.08,3.53.02,6.27.04,8.15.05.92.01,1.63.02,2.12.03.48,0,.72.03.72.03,0,0-.24.02-.72.03-.49,0-1.2.01-2.12.03-1.88.01-4.62.03-8.15.05-7.1.02-17.33.05-29.98.08-12.66.02-27.73.03-44.47.06-2.09,0-4.21,0-6.35,0-1.07,0-2.15,0-3.23,0-1.11,0-2.24-.2-3.28-.65-2.08-.89-3.78-2.7-4.5-4.89-.39-1.08-.45-2.3-.42-3.4,0-1.13,0-2.26,0-3.4,0-4.55,0-9.19,0-13.89.02-1.17-.08-2.36.16-3.58.24-1.2.77-2.34,1.52-3.32,1.48-1.98,3.94-3.18,6.44-3.18,19.31,0,37.71.01,54.45.02,8.37,0,16.32.02,23.76.02,3.72,0,7.31.01,10.77.01,1.73,0,3.42,0,5.08,0,.82.01,1.66-.03,2.48.14.81.16,1.6.41,2.32.8.71.39,1.36.86,1.93,1.42.55.57,1.02,1.2,1.4,1.87.35.68.62,1.4.78,2.13.15.73.2,1.48.18,2.19,0,2.85-.01,5.54-.02,8.05,0,2.51-.01,4.85-.02,7.01,0,1.08,0,2.11-.01,3.09-.01.98.04,1.92-.13,2.81-.3,1.78-1.18,3.19-2.14,4.17-.96.99-2.02,1.55-2.89,1.87-.88.34-1.6.41-2.07.46-.48.02-.72,0-.72,0Z"/>
        </g>
        <g>
          <g>
            <circle class="cls-4" cx="228.01" cy="141.84" r="8.96"/>
            <path class="cls-1" d="m228.74,141.95c.69-.28,1.18-.98,1.19-1.81.02-1.09-.8-1.98-1.81-1.99-1.02-.02-1.86.85-1.87,1.94-.01.84.47,1.55,1.15,1.85-2.84.4-2.75,3.48-2.75,3.48l6.71.11s.19-3.11-2.62-3.57Z"/>
          </g>
          <g>
            <circle class="cls-10" cx="236.58" cy="136.79" r="3.91"/>
            <polygon class="cls-1" points="236.5 138.53 234.41 137.14 234.9 136.41 236.3 137.35 238.05 135.04 238.75 135.57 236.5 138.53"/>
          </g>
        </g>
        <g>
          <g>
            <circle class="cls-4" cx="258.2" cy="141.84" r="8.96"/>
            <path class="cls-1" d="m258.94,141.95c.69-.28,1.18-.98,1.19-1.81.02-1.09-.8-1.98-1.81-1.99-1.02-.02-1.86.85-1.87,1.94-.01.84.47,1.55,1.15,1.85-2.84.4-2.75,3.48-2.75,3.48l6.71.11s.19-3.11-2.62-3.57Z"/>
          </g>
          <g>
            <path class="cls-10" d="m270.69,136.79c0,2.16-1.75,3.91-3.91,3.91s-3.91-1.75-3.91-3.91,1.75-3.91,3.91-3.91,3.91,1.75,3.91,3.91Z"/>
            <polygon class="cls-1" points="266.7 138.53 264.61 137.14 265.1 136.41 266.5 137.35 268.24 135.04 268.94 135.57 266.7 138.53"/>
          </g>
        </g>
        <g>
          <g>
            <circle class="cls-4" cx="288.4" cy="141.84" r="8.96"/>
            <path class="cls-1" d="m289.13,141.95c.69-.28,1.18-.98,1.19-1.81.02-1.09-.8-1.98-1.81-1.99-1.02-.02-1.86.85-1.87,1.94-.01.84.47,1.55,1.15,1.85-2.84.4-2.75,3.48-2.75,3.48l6.71.11s.19-3.11-2.62-3.57Z"/>
          </g>
          <g>
            <circle class="cls-10" cx="296.97" cy="136.79" r="3.91"/>
            <polygon class="cls-1" points="296.9 138.53 294.81 137.14 295.29 136.41 296.7 137.35 298.44 135.04 299.14 135.57 296.9 138.53"/>
          </g>
        </g>
      </g>
    </g>
  </g>
  <g id="Speech_Bubble" data-name="Speech Bubble">
    <g>
      <g>
        <path class="cls-1" d="m375.91,209.64l3.15-6.12c4.24-1.25,8.16-3.79,11.13-7.58,6.72-8.55,6.13-20.98-1.37-28.85-9.42-9.89-25.35-9.03-33.65,1.82-6.66,8.7-5.83,21.22,1.9,28.98,3.95,3.97,8.98,6.1,14.09,6.47h-.01s4.75,5.27,4.75,5.27Z"/>
        <path class="cls-14" d="m375.91,209.64s-.11-.13-.31-.37c-.22-.25-.52-.59-.9-1.03-.8-.91-1.96-2.23-3.47-3.94l-.06.17h.01c.06-.01.09-.07.08-.12,0-.05-.05-.08-.09-.08-2.81-.23-6.52-1.06-10.21-3.44-1.85-1.17-3.63-2.76-5.2-4.71-1.58-1.95-2.92-4.3-3.78-6.96-.87-2.66-1.26-5.62-1-8.66.25-3.03,1.16-6.14,2.77-8.98,3.18-5.68,9.4-10.18,16.57-10.92l1.34-.13h1.34c.89-.06,1.78.11,2.66.16,1.74.27,3.46.66,5.06,1.32,3.22,1.26,6.06,3.25,8.27,5.66,2.2,2.44,3.77,5.29,4.68,8.21.91,2.92,1.17,5.92.89,8.71-.56,5.62-3.2,10.29-6.3,13.35-3.1,3.11-6.54,4.73-9.23,5.54-.02.02-.04.03-.06.05-.98,1.97-1.74,3.49-2.27,4.55-.25.51-.45.9-.59,1.19-.13.27-.2.42-.2.42,0,0,.07-.12.21-.37.15-.28.35-.66.62-1.15.56-1.06,1.37-2.58,2.42-4.56l-.06.05c2.72-.78,6.22-2.38,9.39-5.51,3.16-3.08,5.88-7.82,6.48-13.54.29-2.84.05-5.89-.87-8.88-.91-2.98-2.51-5.9-4.75-8.39-2.26-2.47-5.15-4.51-8.44-5.8-1.64-.68-3.39-1.07-5.17-1.35-.9-.06-1.8-.22-2.71-.18h-1.37s-1.37.14-1.37.14c-7.33.76-13.68,5.36-16.91,11.17-1.64,2.9-2.55,6.08-2.8,9.17-.25,3.1.15,6.12,1.05,8.82.89,2.71,2.27,5.09,3.89,7.06,1.61,1.97,3.43,3.58,5.32,4.75,3.76,2.38,7.53,3.19,10.37,3.38v-.2s-.02,0-.02,0c-.06.01-.09.06-.08.12,0,.02.01.04.03.05,1.56,1.69,2.77,3,3.61,3.91.39.42.69.74.92.98.2.22.31.32.31.31Z"/>
      </g>
      <polygon class="cls-10" points="371.34 193.09 359.65 185.41 362.33 181.33 370.17 186.48 379.76 173.56 383.68 176.47 371.34 193.09"/>
    </g>
  </g>
  <g id="Character_2" data-name="Character 2">
    <g>
      <g>
        <g>
          <g>
            <path class="cls-14" d="m385.28,233.96c-.65-1.28-2.18-2.03-3.58-1.78-1.64-1.32-4.22-1.28-5.82.09-1.24-.75-2.87-.78-4.14-.09-1.27.69-2.14,2.08-2.21,3.53-1.44-.24-3,.55-3.68,1.85-.68,1.3-.43,3.03.59,4.09-1.57.51-2.61,2.31-2.27,3.94.34,1.63,2.03,2.85,3.67,2.67l16.8-10.33c1.02-1,1.3-2.69.64-3.97Z"/>
            <g>
              <g>
                <path class="cls-7" d="m367.34,248.73c.62-7.48,6.86-13.23,14.32-13.2h.74c8,.5,10.49,7.91,9.78,15.94l-.8,29.84h0l-12.74,11-3.74-8.24-.9-8s-7.68-1.23-7.75-8.96c-.03-3.73.52-11.43,1.1-18.39Z"/>
                <path class="cls-9" d="m373.93,276.07s4.91.31,10.08-2.93c0,0-2.11,5.77-9.78,5.05l-.3-2.12Z"/>
                <path class="cls-14" d="m369.55,255.9c-.02.58.45,1.08,1.05,1.12.6.03,1.11-.41,1.13-.99.02-.58-.45-1.08-1.05-1.12-.6-.03-1.11.41-1.14.99Z"/>
                <path class="cls-14" d="m368.9,252.91c.14.14.97-.47,2.15-.46,1.18-.01,2.05.6,2.17.46.06-.06-.07-.32-.45-.6-.37-.28-1-.55-1.74-.55-.74,0-1.36.27-1.71.55-.36.28-.49.54-.42.6Z"/>
                <path class="cls-14" d="m379.67,256.44c-.02.58.45,1.08,1.05,1.12.6.03,1.11-.41,1.13-.99.02-.58-.45-1.08-1.05-1.12-.6-.03-1.11.41-1.14.99Z"/>
                <path class="cls-14" d="m380.2,252.78c.14.14.97-.47,2.15-.46,1.18,0,2.04.6,2.17.46.06-.06-.07-.32-.45-.6-.37-.28-1-.55-1.74-.55-.74,0-1.36.27-1.71.55-.36.28-.49.54-.42.6Z"/>
                <path class="cls-14" d="m376.28,261.58c0-.07-.73-.2-1.92-.35-.3-.03-.59-.09-.64-.3-.07-.22.06-.55.2-.9.29-.73.59-1.5.9-2.31,1.25-3.29,2.16-5.99,2.02-6.04-.13-.05-1.25,2.57-2.5,5.86-.3.81-.59,1.58-.86,2.32-.12.34-.31.73-.16,1.19.08.23.3.39.49.45.19.06.36.06.51.07,1.2.07,1.94.08,1.94,0Z"/>
                <path class="cls-14" d="m379.75,262.41c-.19-.01-.2,1.28-1.3,2.19-1.1.91-2.46.77-2.48.95-.02.08.3.25.88.27.57.02,1.39-.16,2.07-.72.67-.56.96-1.31,1.01-1.84.05-.54-.09-.86-.18-.85Z"/>
                <path class="cls-14" d="m380.19,249.39c.14.31,1.16.04,2.39.06,1.24,0,2.26.29,2.39-.02.06-.15-.15-.43-.58-.69-.43-.26-1.09-.49-1.83-.49-.74,0-1.39.2-1.81.46-.42.26-.62.54-.56.68Z"/>
                <path class="cls-14" d="m369.18,249.65c.18.29,1.02.08,1.99.15.98.04,1.79.34,2,.07.09-.13-.01-.41-.35-.7-.33-.28-.91-.54-1.58-.58-.67-.04-1.27.16-1.64.4-.37.25-.5.51-.42.65Z"/>
                <path class="cls-14" d="m368.09,245.19s2.04-4.84,4.37-5.96c2.81-1.36,4.01,1.75,6.69,1,2.68-.74,5.37-2.05,8.1.04,2.99,2.29,1.58,3.88,1.75,7.31.7,13.91,3.22,17.85,3.96,11.3.08-.72,2.06-1.28,2.37-4.31.39-3.93.56-8.71-.3-11.5-.73-2.35-2.06-3.98-4.44-5.78-3.76-2.84-8.95-2.92-12.47-2.57-3.52.34-10.32,4.4-10.02,10.46Z"/>
                <path class="cls-7" d="m391.5,258.68c.05-1.19,1.08-2.13,2.26-2.01,1.43.14,3.03.97,2.92,3.95-.19,5.29-5.42,4.01-5.43,3.86,0-.1.15-3.58.25-5.79Z"/>
                <path class="cls-9" d="m392.47,262.52s.09.07.24.14c.15.07.41.13.68.04.56-.19,1.06-1.05,1.12-2.01.03-.48-.05-.94-.21-1.33-.15-.39-.39-.67-.66-.73-.28-.07-.48.09-.55.23-.08.15-.05.25-.07.26-.01.01-.11-.09-.06-.31.03-.1.09-.23.22-.32.13-.1.32-.14.51-.12.4.04.76.43.93.85.19.43.3.94.27,1.48-.07,1.06-.65,2.04-1.42,2.24-.37.08-.68-.04-.83-.17-.16-.14-.18-.26-.16-.26Z"/>
              </g>
              <path class="cls-14" d="m392.41,248.44c-.68.47-1.41.95-2.23,1.03-.82.08-1.76-.4-1.9-1.22-.06-.37.03-.79-.21-1.08-.29-.34-.82-.24-1.26-.19-1.53.16-3.09-.93-3.47-2.43-.39.59-1.3.56-1.89.17-.59-.38-.97-1.01-1.43-1.54-.46-.53-1.11-1.01-1.8-.91-.39.05-.75.29-1.14.25-.69-.06-1.02-.88-1.13-1.57-.1-.69-.18-1.49-.76-1.87-.54-.35-1.24-.15-1.88-.06-.64.09-1.46-.06-1.62-.69-.08-.33.06-.67.24-.96.82-1.29,2.61-1.86,4.02-1.28.52-1.75,2.15-3.1,3.95-3.28,1.8-.19,3.67.81,4.53,2.41,1.11-1.01,2.73-1.43,4.19-1.09,1.46.34,2.73,1.43,3.29,2.83,1.28-.33,2.73.17,3.54,1.22.81,1.05.92,2.6.27,3.76.94.55,1.75,1.49,1.76,2.59.02,1.09-1.05,2.18-2.1,1.89.42.85.07,2.01-.75,2.48-.82.47-1.99.19-2.51-.61"/>
            </g>
            <path class="cls-4" d="m395.78,246.41s.1.44-.33,1.02c-.21.27-.57.55-1.06.63-.47.08-1.05-.04-1.5-.44l.22-.03c-.26.45-.61.92-1.05,1.31-.29.25-.61.47-.96.6-.35.14-.74.15-1.06.1-.67-.08-1.25-.44-1.51-.88-.28-.43-.37-.83-.42-1.1-.05-.27-.06-.42-.04-.43.02,0,.07.14.15.4.09.25.21.63.48,1.01.5.76,2.12,1.15,3.16.09.42-.37.75-.81,1-1.23l.09-.16.13.12c.36.34.86.46,1.27.41.42-.05.74-.27.95-.5.42-.48.42-.91.47-.9Z"/>
            <path class="cls-4" d="m385.89,234.3s-.14.04-.37.14c-.23.1-.57.3-.82.7l-.06.1-.07-.1c-.49-.66-1.31-1.52-2.53-2.08-.61-.27-1.32-.46-2.07-.46-.75,0-1.53.21-2.23.63-.54.33-1,.77-1.33,1.26-.33.5-.53,1.05-.58,1.59l-.02.17-.16-.04c-.79-.22-1.59-.07-2.18.26-.6.33-.98.83-1.2,1.28-.43.93-.28,1.57-.33,1.56-.01,0-.05-.15-.06-.43,0-.28.03-.71.24-1.2.21-.48.6-1.04,1.24-1.42.63-.37,1.5-.56,2.37-.33l-.18.12c.05-.59.27-1.19.61-1.73.36-.53.84-1,1.42-1.35.74-.45,1.59-.68,2.39-.67.8,0,1.54.22,2.18.52,1.27.61,2.09,1.52,2.56,2.22h-.14c.3-.42.68-.61.93-.68.26-.08.4-.07.4-.05Z"/>
          </g>
          <path class="cls-3" d="m391.93,272.79l.61,3.99-22.16,11.49,1.45-6.46s3.07-2.8,6.85-4.62c6.3-3.04,13.26-4.39,13.26-4.39Z"/>
          <path class="cls-10" d="m395.72,279.04s5.62,14.8,5.68,20.26c.06,5.46-3.12,20.25-3.12,20.25l-15.9,30.33-2.8,22.4c-10.56.05-24.7-2.07-39.9-4.82,0,0,11.64-41.95,15.31-47.58,3.67-5.64,16.55-31.48,16.55-31.48,0,0,1.06-2.7,4.27-5.61,4.45-4.04,12.64-6.11,19.94-6.99l-.03,3.24Z"/>
          <g>
            <path class="cls-10" d="m389.66,285.28c-4.55-.15-10.8,2.35-13.98,9.89l-3.39,9.41-12.6,18.09-33.07-2.17-2.04,13.67s36.03,7.99,40.26,7.54c4.22-.45,24.67-21.78,24.67-21.78,0,0,10.62-13.26,10.1-24.3"/>
            <path class="cls-14" d="m399.6,295.63s-.02.16-.03.47c-.01.33-.03.79-.05,1.37-.03.6-.17,1.34-.27,2.21-.19.86-.35,1.87-.7,2.96-1.24,4.41-4.16,10.56-9.21,17.16h.01c-3.11,3.19-6.62,6.7-10.5,10.41-1.95,1.85-3.98,3.76-6.15,5.65-1.08.95-2.2,1.9-3.36,2.81-1.16.9-2.38,1.83-3.7,2.48-.35.14-.65.28-1.01.27-.37-.01-.74,0-1.12-.03-.77-.09-1.54-.14-2.31-.27-1.55-.21-3.12-.48-4.71-.75-3.17-.56-6.4-1.18-9.7-1.83-6.59-1.32-13.41-2.76-20.39-4.28l-1.77-.39.23.33c.69-4.65,1.38-9.22,2.04-13.68l-.31.25c11.88.77,23.03,1.49,33.07,2.14h.15s.08-.11.08-.11c4.65-6.71,8.87-12.8,12.56-18.12l.02-.02v-.03c.74-2.06,1.44-4.02,2.1-5.87.68-1.84,1.2-3.64,2.02-5.14,1.58-3.07,3.84-5.15,5.91-6.37,2.09-1.24,3.97-1.65,5.21-1.84.63-.08,1.12-.12,1.44-.12.33-.01.49-.02.49-.03,0,0-.67-.09-1.95.04-1.26.15-3.18.53-5.31,1.76-2.12,1.21-4.46,3.3-6.09,6.41-.86,1.54-1.38,3.33-2.08,5.17-.67,1.85-1.39,3.81-2.13,5.86l.02-.05c-3.71,5.3-7.96,11.38-12.64,18.06l.23-.11c-10.03-.67-21.18-1.42-33.06-2.21l-.27-.02-.04.27c-.67,4.45-1.35,9.02-2.05,13.67l-.04.27.27.06,1.77.39c6.99,1.53,13.82,2.96,20.41,4.27,3.3.65,6.54,1.27,9.71,1.82,1.59.27,3.16.53,4.73.74.78.12,1.57.18,2.34.27.39.04.8.02,1.2.03.41,0,.84-.17,1.19-.32,1.42-.71,2.62-1.64,3.81-2.56,1.17-.93,2.29-1.89,3.37-2.84,2.17-1.91,4.2-3.83,6.15-5.69,3.88-3.73,7.36-7.27,10.46-10.5h0s0-.01,0-.01c5.05-6.69,7.92-12.89,9.11-17.36.33-1.11.48-2.13.65-3,.09-.88.21-1.63.22-2.23,0-.58,0-1.04-.01-1.37,0-.31-.01-.47-.02-.47Z"/>
          </g>
          <path class="cls-14" d="m368.57,289.41s.3-.24.8-.73c.25-.24.55-.54.93-.86.37-.32.78-.71,1.27-1.09.96-.79,2.16-1.66,3.54-2.54,1.4-.86,2.99-1.72,4.72-2.48,3.47-1.52,6.81-2.39,9.24-2.92,1.22-.26,2.2-.45,2.89-.57.68-.12,1.06-.2,1.06-.23s-.39.01-1.08.1c-.69.08-1.69.24-2.92.47-2.45.47-5.82,1.31-9.32,2.84-1.75.77-3.35,1.65-4.75,2.53-1.39.9-2.58,1.79-3.53,2.61-.49.39-.88.8-1.25,1.13-.37.33-.66.65-.9.9-.48.51-.73.8-.71.82Z"/>
        </g>
        <g>
          <g>
            <path class="cls-7" d="m342.68,257.62l3.15,9.26,1.1,1.55s.96,5.15,1.02,6.25c.06,1.1-1.37,6.86-1.37,6.86l3.2,5.12-8.85,3.4s-2.4-4.68-3.07-5.21c-.67-.53-1.15-2.05-1.31-3.07-.16-1.03-1.48-7.1-1.48-7.1,0,0-3.92-6.71-2.29-7.05.37-.08,1.23.02,1.23.02,0,0,2.36,4.41,3,4.5l.89-.52s-1.85-6.75-1.94-8.01c-.09-1.26.17-2.15,1.14-2.3,0,0,.73.29.8.61.07.32,1.91,7.85,2.32,7.71.42-.14.22-.83.22-.83,0,0-2.45-9.13-2.34-9.65.11-.52.56-1.34,1.47-1.25l1.88,5.01s-.88-4.22-.2-4.97c.68-.75,1.43-.35,1.43-.35Z"/>
            <path class="cls-9" d="m340.81,278.12c.08,0,.02-.79.32-2.05.3-1.23,1.11-2.99,2.75-4.26l.12-.09-.03-.14c-.15-.67-.32-1.37-.48-2.1v-.04s-.04-.04-.04-.04c-.15-.22-.31-.47-.46-.73-.5-.87-.87-1.78-1.02-2.67-.07-.44-.09-.88.02-1.25.09-.37.39-.64.67-.68l-.15-.06c1.06,1.01,1.95,1.85,2.58,2.42s1,.88,1.03.85c.03-.03-.29-.4-.87-1.02-.58-.62-1.43-1.49-2.46-2.54l-.06-.07h-.09c-.52.06-.92.49-1.05.96-.15.47-.12.96-.05,1.44.15.97.54,1.92,1.06,2.83.16.27.32.53.49.77l-.04-.08c.17.72.34,1.42.5,2.09l.09-.23c-1.77,1.41-2.52,3.27-2.77,4.57-.12.66-.14,1.19-.12,1.55.02.36.05.56.07.55Z"/>
            <path class="cls-9" d="m340.81,270.62c-.04-.12-1.39.28-2.81,1.23-1.43.94-2.32,2.03-2.23,2.11.1.1,1.1-.81,2.49-1.72,1.38-.92,2.61-1.49,2.56-1.61Z"/>
          </g>
          <polygon class="cls-10" points="337.19 289.27 350.53 283.56 357.99 295.37 341.08 296.77 337.19 289.27"/>
        </g>
      </g>
      <g>
        <g>
          <path class="cls-5" d="m457.27,263.39l2.87,8.43,1,1.41s.87,4.69.93,5.69c.06,1-1.25,6.25-1.25,6.25l2.91,4.66-8.06,3.09s-2.18-4.26-2.79-4.74c-.61-.48-1.05-1.86-1.19-2.8-.14-.93-1.35-6.47-1.35-6.47,0,0-3.57-6.11-2.08-6.42.34-.07,1.12.02,1.12.02,0,0,2.15,4.02,2.73,4.1l.81-.47s-1.68-6.14-1.77-7.29c-.09-1.15.15-1.96,1.04-2.09,0,0,.66.27.72.56.06.29,1.74,7.15,2.12,7.02.38-.13.2-.75.2-.75,0,0-2.23-8.31-2.13-8.79.1-.48.51-1.22,1.34-1.14l1.71,4.57s-.8-3.84-.18-4.53c.62-.69,1.3-.32,1.3-.32Z"/>
          <path class="cls-11" d="m455.56,282.06c.07,0,.02-.72.29-1.86.27-1.12,1.01-2.72,2.5-3.88l.11-.09-.03-.13c-.14-.61-.29-1.25-.44-1.91v-.04s-.04-.04-.04-.04c-.14-.2-.29-.43-.42-.66-.46-.79-.79-1.62-.93-2.43-.06-.4-.08-.8.02-1.14.08-.34.35-.58.61-.62l-.14-.05c.96.92,1.77,1.68,2.35,2.2.57.52.91.8.94.78s-.26-.36-.79-.93c-.53-.56-1.3-1.36-2.24-2.31l-.06-.06h-.08c-.48.06-.84.44-.96.87-.13.43-.11.88-.05,1.32.14.88.49,1.75.96,2.58.14.25.29.48.45.7l-.04-.08c.16.66.31,1.3.45,1.91l.08-.21c-1.61,1.29-2.29,2.97-2.52,4.16-.11.6-.13,1.08-.11,1.41.02.33.04.51.06.51Z"/>
          <path class="cls-11" d="m455.57,275.24c-.04-.1-1.26.25-2.56,1.12-1.3.86-2.11,1.84-2.03,1.92.09.09,1-.74,2.27-1.56,1.25-.83,2.37-1.36,2.33-1.47Z"/>
        </g>
        <g>
          <path class="cls-14" d="m498.26,245.18c-1.55-1.81-1.08-4.78.58-6.51,1.65-1.72,4.16-2.38,6.54-2.43,3.69-.08,7.63,1.31,9.67,4.39,2.04,3.08,1.39,7.93-1.87,9.66,1.59.45,3.27.95,4.39,2.16,1.12,1.21,1.39,3.38.11,4.42-1.46,1.19-3.62.2-5.21-.81.99.95.82,2.71-.15,3.68s-2.49,1.21-3.83.92c-1.34-.29-2.53-1.03-3.66-1.81"/>
          <path class="cls-10" d="m503.8,246.87c-.51-.93-1.03-1.88-1.79-2.61-.77-.73-1.83-1.24-2.88-1.07-.49.08-1,.34-1.18.8-.18.47.15,1.11.65,1.08l.1.09c1.07,1.02,2.17,2.02,3.28,2.99.28.25.57.5.92.62.35.12.78.09,1.04-.18.42-.45.15-1.17-.14-1.71Z"/>
          <path class="cls-14" d="m505.76,250.57c-3.53-4.63-8.39-7.4-14.2-7.7-3.28-.17-4.66.47-7.05,1.02-2.39.56-4.56,1.75-6.05,3.7-1.76,2.32-3.26,4.93-3.68,7.81-.43,2.96-.86,5.94-.74,8.93.12,2.99.82,6.02,2.49,8.5l7.54,1.58c4.18.29,10.34,5.72,14.45,4.9,4.11-.81,8-7.39,9.37-11.53,1.83-5.53,1.39-12.58-2.14-17.21Z"/>
          <path class="cls-5" d="m483.57,287.87c.14-2.66.35-5.99.35-5.98,0,0-6.16-.9-7.59-8.88-.71-3.97-.64-10.5-.41-15.85.21-4.81,4.53-11.22,10.48-11.03l2.65-.21,9.97,4.37c1.46.12,2.58,1.34,2.58,2.81l-1.04,35.89-6.65,9.56-10.36-6.61.03-4.05Z"/>
          <path class="cls-11" d="m488.28,271.58c-.04-.42-.26-.8-.55-1.06-.57-.53-1.44-.61-2.09-.19-.65.42-1.04,1.3-.95,2.14h0c.34.5.87.85,1.47.92.09.01.19.02.28.02.46,0,.93-.13,1.29-.46.36-.32.6-.85.55-1.37Z"/>
          <path class="cls-14" d="m477.76,263.13c0,.54.44,1,1.01,1.02.57.02,1.03-.4,1.04-.95,0-.54-.44-1-1.01-1.02-.57-.02-1.03.4-1.04.95Z"/>
          <path class="cls-14" d="m477.64,259.9c.13.13.9-.46,2-.48,1.1-.03,1.93.52,2.04.38.06-.06-.08-.3-.44-.55-.35-.25-.95-.49-1.64-.47-.69.02-1.26.28-1.59.55-.33.27-.44.51-.38.57Z"/>
          <path class="cls-14" d="m484.42,268.8c0-.06-.69-.17-1.8-.29-.28-.02-.55-.07-.6-.27-.07-.2.04-.51.17-.84.25-.69.52-1.41.79-2.17,1.1-3.08,1.89-5.62,1.76-5.66-.12-.04-1.12,2.42-2.21,5.5-.26.76-.52,1.48-.76,2.18-.1.32-.28.69-.12,1.11.08.21.29.36.47.4.18.05.34.05.48.06,1.12.04,1.82.03,1.82-.03Z"/>
          <path class="cls-11" d="m483.92,281.89s5.39.24,10.67-3.07c0,0-2.75,5.61-10.78,5.02l.11-1.94Z"/>
          <path class="cls-14" d="m487.69,269.5c-.18,0-.16,1.19-1.17,2.06-1.01.87-2.29.77-2.3.93-.02.08.29.23.83.23.53,0,1.3-.18,1.92-.71.62-.53.87-1.24.9-1.73.04-.5-.1-.8-.19-.79Z"/>
          <path class="cls-14" d="m477.82,257.7c.19.27,1.03.07,2.02.13.99.03,1.81.31,2.03.06.09-.12-.02-.38-.37-.65-.34-.26-.93-.5-1.61-.53-.68-.03-1.29.15-1.65.38-.37.23-.5.48-.42.61Z"/>
          <path class="cls-14" d="m490.18,263.34c0,.54-.44,1-1.01,1.02-.57.02-1.03-.4-1.04-.94,0-.54.44-1,1.01-1.02.57-.02,1.03.4,1.04.94Z"/>
          <path class="cls-14" d="m492.58,260c-.13.13-.9-.46-2-.47-1.1-.03-1.92.52-2.04.38-.06-.06.08-.3.43-.55.35-.25.95-.49,1.64-.47.69.02,1.26.28,1.59.54.34.27.45.51.38.57Z"/>
          <path class="cls-14" d="m492.04,256.44c-.22.25-1.07-.03-2.1-.06-1.02-.06-1.9.14-2.09-.13-.09-.13.06-.38.44-.61.38-.23,1.01-.41,1.71-.38.7.03,1.31.27,1.66.53.36.26.47.52.37.65Z"/>
          <path class="cls-5" d="m499.75,266.48c-.01-.6.65-2.02,1.24-2.12,1.57-.28,4.41-.21,4.51,3.79.14,5.46-5.37,4.48-5.38,4.32-.01-.12-.33-3.93-.37-5.99Z"/>
          <path class="cls-11" d="m501.57,270.43s.1.06.26.13c.16.07.43.11.71,0,.57-.23,1.03-1.16,1.03-2.14,0-.5-.12-.97-.3-1.35-.18-.4-.44-.67-.73-.71-.29-.06-.49.12-.55.28-.07.15-.03.26-.06.27-.01.01-.12-.09-.08-.31.02-.11.08-.24.21-.35.13-.11.32-.17.52-.15.42.02.81.4,1.02.82.23.43.37.95.37,1.51,0,1.1-.54,2.15-1.32,2.39-.38.11-.7,0-.87-.12-.17-.13-.2-.25-.19-.26Z"/>
          <path class="cls-14" d="m501.21,264.38l-1.43,1.39c-5.78-5.93-16.96-20.66-16.34-19.79,0,0,4.15-1.54,8.57-.63,4.42.91,12.77,3.43,12.46,8.67-.31,5.24-3.26,10.36-3.26,10.36Z"/>
          <path class="cls-4" d="m509.17,263.46s-.02-.11-.07-.32c-.06-.21-.16-.5-.34-.87-.35-.73-1.04-1.73-2.19-2.64-1.12-.94-2.7-1.73-4.51-2.36-1.8-.66-3.84-1.19-5.83-2.13-2-.9-3.77-2.04-5.28-3.2-1.5-1.17-2.73-2.38-3.68-3.45-.95-1.08-1.64-2.02-2.11-2.68-.21-.31-.38-.57-.52-.77-.12-.18-.19-.27-.2-.26,0,0,.04.1.15.29.11.18.26.46.48.8.44.68,1.1,1.65,2.05,2.75.94,1.1,2.17,2.33,3.67,3.53,1.51,1.18,3.3,2.34,5.32,3.25,2.01.95,4.07,1.48,5.86,2.11,1.8.62,3.35,1.38,4.47,2.28,1.14.88,1.84,1.83,2.21,2.54.38.71.48,1.15.51,1.14Z"/>
          <path class="cls-4" d="m507.55,264.26s.07-.44-.17-1.2c-.23-.75-.84-1.77-1.96-2.64-1.11-.89-2.71-1.47-4.48-1.94-1.78-.46-3.71-1.03-5.59-1.99-1.88-.95-3.55-2.08-4.93-3.28-1.38-1.19-2.49-2.42-3.33-3.51-.86-1.09-1.43-2.06-1.83-2.71-.18-.32-.32-.57-.44-.78-.1-.18-.16-.27-.17-.26,0,0,.03.1.12.29.1.21.23.48.39.81.38.68.93,1.67,1.77,2.78.83,1.12,1.94,2.37,3.32,3.59,1.38,1.23,3.07,2.38,4.97,3.34,1.9.97,3.87,1.55,5.64,1.99,1.77.45,3.34,1.01,4.43,1.85,1.1.82,1.72,1.8,1.97,2.52.27.72.24,1.17.27,1.16Z"/>
        </g>
      </g>
      <g>
        <g>
          <path class="cls-14" d="m413.64,252.9s-6.86,5.95-9.33,15.02c-2.47,9.07-1.06,34.94-4.77,43.19-3.71,8.25-21.02,38.86-21.33,45.54s1.27,9.34,5,15.71c3.73,6.37,11.75,16.25,17.88,16.37,6.13.12,7.9-5.81,7.9-5.81l-10.51-20.78,13.78-34.36,9.53-37.88,4.29-18.67-12.43-18.33Z"/>
          <g>
            <path class="cls-8" d="m388.52,357.52s-3.62,5.89-.45,11.13c3.16,5.23,12.29,20.56,17.2,18.74,4.92-1.81,6.99-4.72,6.54-5.33-.44-.61-3.66-13.07-2.15-24.78,1.51-11.72,13.25-56.4,15.95-66.75s4.1-30.27.06-37.47c-4.04-7.2-12.04-.16-12.04-.16,0,0,5.74,20.39,4.56,30.01-1.18,9.61-29.68,74.61-29.68,74.61Z"/>
            <path class="cls-14" d="m388.52,357.52s.09-.16.24-.49c.16-.34.37-.82.66-1.45.58-1.3,1.42-3.2,2.5-5.65,2.16-4.93,5.29-12.13,9.13-21.21,3.81-9.08,8.44-20,13.18-32.54.59-1.57,1.19-3.16,1.74-4.79.28-.81.57-1.63.86-2.46.26-.84.52-1.68.78-2.53.29-.84.47-1.72.66-2.61.25-.88.24-1.8.33-2.71.04-1.83-.02-3.67-.21-5.52-.73-7.41-2.41-15-4.48-22.75l-.09.29c1.2-.99,2.58-1.86,4.06-2.43,1.47-.58,3.14-.81,4.61-.22,1.48.56,2.54,1.91,3.22,3.39.73,1.48,1.1,3.14,1.44,4.79.59,3.34.75,6.81.74,10.3-.02,3.49-.25,7.02-.65,10.56-.28,2.6-.68,5.17-1.18,7.69-.49,2.52-1.2,5-1.83,7.47-1.28,4.94-2.53,9.81-3.77,14.6-2.44,9.58-4.76,18.82-6.84,27.67-1.04,4.42-2.03,8.74-2.89,12.96-.86,4.21-1.65,8.36-1.69,12.42-.1,4.06.21,7.97.75,11.69.28,1.86.61,3.67,1.02,5.43.22.89.39,1.72.75,2.61.22.27-.01.64-.22.99-.23.34-.5.67-.8.96-1.2,1.18-2.64,2.05-4.11,2.71-.75.3-1.47.73-2.2.64-.75-.06-1.46-.39-2.1-.77-1.29-.8-2.37-1.86-3.36-2.9-.99-1.06-1.88-2.15-2.72-3.22-3.31-4.32-5.74-8.36-7.75-11.62-1.04-1.61-1.39-3.32-1.43-4.77-.03-1.47.23-2.7.5-3.67.28-.97.59-1.67.81-2.14.22-.47.34-.71.34-.71,0,0-.63.88-1.26,2.81-.3.97-.58,2.21-.57,3.7.02,1.48.36,3.25,1.41,4.89,1.98,3.29,4.38,7.34,7.68,11.71.83,1.09,1.72,2.19,2.72,3.26,1,1.06,2.09,2.14,3.43,2.98.67.41,1.42.77,2.27.84.21.02.43,0,.64-.02.2-.06.43-.09.62-.17.38-.15.76-.29,1.14-.47,1.5-.67,2.99-1.55,4.24-2.78.32-.3.6-.65.86-1.02.12-.19.24-.39.32-.63.04-.12.07-.25.06-.4,0-.07-.04-.17-.08-.25l-.06-.14c-.29-.74-.49-1.66-.7-2.51-.4-1.74-.73-3.55-.99-5.4-.52-3.7-.83-7.59-.71-11.61.05-4.03.85-8.12,1.71-12.33.87-4.21,1.87-8.52,2.91-12.94,2.09-8.83,4.42-18.08,6.87-27.65,1.24-4.78,2.5-9.65,3.78-14.59.63-2.47,1.34-4.95,1.84-7.5.51-2.55.91-5.13,1.19-7.74.4-3.56.62-7.11.65-10.62.01-3.51-.15-7-.75-10.41-.34-1.69-.72-3.38-1.49-4.94-.72-1.54-1.87-3.04-3.54-3.67-1.66-.66-3.49-.39-5.02.23-1.57.61-2.97,1.48-4.23,2.53l-.13.11.05.18c2.07,7.71,3.75,15.29,4.49,22.64,1.32,7.47-1.94,14.13-4.09,20.4-4.69,12.54-9.28,23.47-13.05,32.57-3.83,9.06-6.88,16.29-8.98,21.27-1.05,2.47-1.86,4.37-2.41,5.68-.27.63-.47,1.12-.61,1.47-.14.33-.19.51-.19.51Z"/>
          </g>
        </g>
        <rect class="cls-10" x="135.46" y="330.43" width="532.26" height="74.44" transform="translate(803.19 735.29) rotate(180)"/>
        <g class="cls-12">
          <rect x="135.46" y="330.43" width="532.26" height="74.44" transform="translate(803.19 735.29) rotate(180)"/>
        </g>
        <g>
          <path class="cls-14" d="m522.25,256.22s-6.86,5.95-9.33,15.02c-2.47,9.07-1.06,34.94-4.77,43.19-3.71,8.25-21.02,38.86-21.33,45.54-.31,6.68,1.27,9.34,5,15.71,3.73,6.37,11.75,16.25,17.88,16.37,6.13.12,7.9-5.81,7.9-5.81l-10.51-20.78,13.78-34.36,9.53-37.88,4.29-18.67-12.43-18.33Z"/>
          <g>
            <path class="cls-8" d="m497.13,360.84s-3.62,5.9-.45,11.13c3.16,5.23,12.29,20.56,17.2,18.74,4.92-1.81,6.99-4.72,6.54-5.33-.44-.61-3.66-13.07-2.15-24.78,1.51-11.72,13.25-56.4,15.95-66.75,2.7-10.35,4.1-30.27.06-37.47-4.04-7.2-12.04-.16-12.04-.16,0,0,5.74,20.39,4.56,30.01-1.18,9.61-29.68,74.61-29.68,74.61Z"/>
            <path class="cls-14" d="m497.13,360.84s.09-.16.24-.49c.16-.34.37-.82.66-1.45.58-1.3,1.42-3.2,2.5-5.65,2.16-4.93,5.29-12.13,9.13-21.21,3.81-9.08,8.44-20,13.18-32.54.59-1.57,1.19-3.16,1.74-4.79.28-.81.57-1.63.86-2.46.26-.84.52-1.68.78-2.53.29-.84.47-1.72.66-2.61.25-.88.24-1.8.33-2.71.04-1.83-.02-3.67-.21-5.52-.73-7.41-2.41-15-4.48-22.75l-.09.29c1.2-.99,2.58-1.86,4.06-2.43,1.47-.58,3.14-.81,4.61-.22,1.48.56,2.54,1.91,3.22,3.39.73,1.48,1.1,3.14,1.44,4.79.59,3.34.75,6.81.74,10.3-.02,3.49-.25,7.02-.65,10.56-.28,2.6-.68,5.17-1.18,7.69-.49,2.52-1.2,5-1.83,7.47-1.28,4.94-2.53,9.81-3.77,14.6-2.44,9.58-4.76,18.82-6.84,27.67-1.04,4.42-2.03,8.74-2.89,12.96-.86,4.21-1.65,8.36-1.69,12.42-.1,4.06.21,7.97.75,11.69.28,1.86.61,3.67,1.02,5.43.22.89.39,1.72.75,2.61.22.27-.01.64-.22.99-.23.34-.5.67-.8.96-1.2,1.18-2.64,2.05-4.11,2.71-.75.3-1.47.73-2.2.64-.75-.06-1.46-.39-2.1-.77-1.29-.8-2.37-1.86-3.36-2.9-.99-1.06-1.88-2.15-2.72-3.22-3.31-4.32-5.74-8.36-7.75-11.62-1.04-1.61-1.39-3.32-1.43-4.77-.03-1.47.23-2.7.5-3.67.28-.97.59-1.67.81-2.14.22-.47.34-.71.34-.71,0,0-.63.88-1.26,2.81-.3.97-.58,2.21-.57,3.7.02,1.48.36,3.25,1.41,4.89,1.98,3.29,4.38,7.34,7.68,11.71.83,1.09,1.72,2.19,2.72,3.26,1,1.06,2.09,2.14,3.43,2.98.67.41,1.42.77,2.27.84.21.02.43,0,.64-.02.2-.06.43-.09.62-.17.38-.15.76-.29,1.14-.47,1.5-.67,2.99-1.55,4.24-2.78.32-.3.6-.65.86-1.02.12-.19.24-.39.32-.63.04-.12.07-.25.06-.4,0-.07-.04-.17-.08-.25l-.06-.14c-.29-.74-.49-1.66-.7-2.51-.4-1.74-.73-3.55-.99-5.4-.52-3.7-.83-7.59-.71-11.61.05-4.03.85-8.12,1.71-12.33.87-4.21,1.87-8.52,2.91-12.94,2.09-8.83,4.42-18.08,6.87-27.65,1.24-4.78,2.5-9.65,3.78-14.59.63-2.47,1.34-4.95,1.84-7.5.51-2.55.91-5.13,1.19-7.74.4-3.56.62-7.11.65-10.62.01-3.51-.15-7-.75-10.41-.34-1.69-.72-3.38-1.49-4.94-.72-1.54-1.87-3.04-3.54-3.67-1.66-.66-3.49-.39-5.02.23-1.57.61-2.97,1.48-4.23,2.53l-.13.11.05.18c2.07,7.71,3.75,15.29,4.49,22.64,1.32,7.47-1.94,14.13-4.09,20.4-4.69,12.54-9.28,23.47-13.05,32.57-3.83,9.06-6.88,16.29-8.98,21.27-1.05,2.47-1.86,4.37-2.41,5.68-.27.64-.47,1.12-.61,1.47-.14.33-.19.51-.19.51Z"/>
          </g>
        </g>
        <path class="cls-10" d="m693.59,332.26s-2.2-20.56-3.17-23.16c-.98-2.6-4.88-8.07-4.88-8.07v-23.16c2.93-2.86,3.41-5.2,3.41-5.2.54-1.39-34.64-5.2-34.64-5.2,0,0-80.25-25.76-96.84-30.71-16.59-4.94-91.23-11.97-91.23-11.97-55.86-7.09-93.92-2.45-133.46,11.45-23.07,8.11-117.29,58.04-117.29,58.04l-9.51.78s-29.37,4.16-35.97,4.94c-10.89,1.29-50.14,16.4-65.26,26.03-8.88,5.65-15.32,12.11-19.12,16.48-2.61,3-4.05,6.93-4.05,11.02v30.79c-.73,10.93,26.59,32.53,26.59,32.53h33.66v-18.74h1.03c-.11-1.48-.18-2.97-.18-4.48,0-30.61,22.84-55.42,51.02-55.42s51.02,24.81,51.02,55.42c0,1.51-.07,3-.18,4.48l-.2,18.74h292l.11-25.24c.98-29.67,23.42-53.39,50.98-53.39s49.99,23.72,50.98,53.39l-.06,19.48s37.43-5.69,42.07-9.59c4.63-3.9,23.69-29.93,23.69-36.69s-10.52-32.53-10.52-32.53Zm-279.86-41.07l-116.02,8.79-17.87-25.85s44.95-27.28,84.45-35.52c40.07-8.35,60.32-6.1,60.32-6.1l-10.88,58.67Zm25.82,0s3.65-55.63,5.1-57.58c1.46-1.95,107.57,12.45,110.12,14,2.55,1.56,15.68,28.01,16.04,29.18l-131.27,14.39Z"/>
        <path class="cls-14" d="m140.07,364.8s.09-.16.27-.46c.18-.31.43-.77.79-1.37.69-1.21,1.81-2.94,3.33-5.14,1.58-2.15,3.53-4.8,6.15-7.59,2.59-2.8,5.73-5.87,9.67-8.69,3.91-2.81,8.5-5.63,13.92-7.44,5.39-1.89,11.49-2.85,18.03-2.95,6.53-.14,13.49.52,20.57,2.35,3.55.88,7.11,2.1,10.62,3.68,3.5,1.58,7.01,3.49,10.16,6l.1.08h.11c23.34-2.47,49.64-5.24,77.36-8.17,25.5-2.71,49.79-5.29,71.88-7.63.69-.07,1.38-.15,2.06-.22.69-.04,1.37-.08,2.06-.11,1.37-.07,2.72-.14,4.07-.21,2.7-.13,5.36-.25,7.99-.38,5.25-.2,10.36-.4,15.29-.58,9.87-.32,19.06-.52,27.45-.65,16.79-.26,30.37-.29,39.76-.34,4.68-.03,8.32-.05,10.81-.07,1.22-.01,2.16-.03,2.81-.03.63-.01.96-.03.96-.03,0,0-.32-.02-.96-.03-.65,0-1.59-.02-2.81-.03-2.49-.01-6.13-.03-10.81-.06-9.39-.02-22.98-.07-39.77.13-8.4.1-17.59.27-27.46.57-4.93.15-10.04.33-15.29.55-2.63.12-5.29.24-8,.36-1.35.07-2.71.13-4.08.2-.68.04-1.37.07-2.06.11-.69.07-1.37.14-2.07.22-22.1,2.33-46.39,4.89-71.89,7.58-27.72,2.94-54.02,5.74-77.36,8.22l.21.07c-3.24-2.58-6.76-4.47-10.3-6.07-3.54-1.59-7.13-2.81-10.7-3.69-7.13-1.82-14.14-2.47-20.7-2.31-6.56.11-12.73,1.11-18.15,3.03-5.46,1.85-10.07,4.71-13.99,7.56-3.94,2.85-7.08,5.96-9.66,8.79-2.61,2.81-4.55,5.5-6.1,7.67-1.5,2.22-2.59,3.97-3.26,5.2-.69,1.22-.98,1.88-.98,1.88Z"/>
        <g>
          <g class="cls-6">
            <path d="m81.58,362.45l21.54-8.2,2.56,12.49,34.39-1.95s15.14-30.86,46.1-33.57c26.51-2.32,47.57,11.74,47.57,11.74l151.48-16.03s76.84-3.12,106.48-2.73c29.64.39,55.76,23.37,55.76,23.37,0,0,8.75-13.54,39.74-13.85,30.99-.31,43.93,19.11,43.93,19.11,21.85-3.05,42.91-12.32,60.42-26.59l1.51,1.29c.32,2.78.53,4.73.53,4.73,0,0,10.52,25.76,10.52,32.53s-19.06,32.79-23.69,36.69c-4.63,3.9-42.07,9.59-42.07,9.59l.06-19.48c-.98-29.67-23.42-53.39-50.98-53.39s-49.99,23.72-50.98,53.39l-.11,25.24H244.35l.2-18.74c.11-1.48.18-2.97.18-4.48,0-30.61-22.84-55.42-51.02-55.42s-51.02,24.81-51.02,55.42c0,1.51.07,3,.18,4.48h-1.03v18.74h-33.66s-27.32-21.6-26.59-32.53v-21.86h0Z"/>
          </g>
          <path class="cls-14" d="m601.14,269.14l-28.7-21.99c-1.07-.82-2.31-1.34-3.62-1.52-60.95-8.52-108.1-16.01-132.68-16.92-81.18-4.75-135.57,30.05-143.32,33.95-7.75,3.9-40.77,23.67-48.23,31.33-3.73,3.83-3.16,7.2-1.65,9.61,1.58,2.53,4.43,3.84,7.28,3.67l177.82-10.52,145.84-17.15,25.67-3.65c3.17-.45,4.19-4.81,1.59-6.8Zm-187.41,22.05l-116.02,8.79-17.87-25.85s44.95-27.28,84.45-35.52c40.07-8.35,60.32-6.1,60.32-6.1l-10.88,58.67Zm25.82,0s3.65-55.63,5.1-57.58c1.46-1.95,107.57,12.45,110.12,14,2.55,1.56,15.68,28.01,16.04,29.18l-131.27,14.39Z"/>
          <polygon class="cls-14" points="530.39 243.58 531.31 282.41 525.84 282.41 525.84 242.93 530.39 243.58"/>
          <path class="cls-14" d="m275.39,272.72s-.1.19-.27.59c-.17.41-.42.99-.75,1.76-.32.78-.77,1.73-1.19,2.91-.43,1.18-.93,2.54-1.49,4.07-2.1,6.21-4.65,15.57-6.23,27.78-1.61,12.19-2.27,27.19-1.3,44.27.48,8.54,1.35,17.6,2.7,27.08.69,4.74,1.47,9.58,2.47,14.5.27,1.22.46,2.48.94,3.7.46,1.2,1.05,2.33,1.66,3.44,1.24,2.22,2.63,4.36,4.1,6.48l.08.12h.14c35.33-.69,76.62-1.49,120.53-2.35,22.79-.56,44.86-1.1,65.78-1.61,10.46-.22,20.63-.44,30.45-.51,1.23,0,2.45-.03,3.66,0,1.21.03,2.42.02,3.66-.04,2.45-.19,4.81-.95,6.95-2.09,2.14-1.15,4.07-2.66,5.78-4.36,1.71-1.71,3.22-3.58,4.48-5.65v.02c11.22-16.5,21.36-31.75,30.24-45.36,4.42-6.82,8.55-13.2,12.28-19.18,3.74-5.97,7.11-11.49,9.98-16.61,1.44-2.55,2.76-5.01,3.77-7.44.24-.61.48-1.22.71-1.82.23-.59.36-1.22.54-1.81.15-.6.37-1.18.46-1.77.1-.59.21-1.17.31-1.75.76-4.6.11-8.62-.73-11.67-.88-3.07-2.03-5.23-2.88-6.6-.85-1.38-1.42-1.99-1.42-1.99,0,0,.12.17.36.5.23.34.57.85.99,1.54.82,1.39,1.94,3.55,2.79,6.61.81,3.03,1.43,7.02.65,11.58-.1.56-.21,1.14-.31,1.73-.1.59-.31,1.16-.47,1.75-.18.59-.31,1.2-.55,1.79-.23.59-.47,1.19-.71,1.8-1.02,2.41-2.34,4.85-3.78,7.39-2.88,5.1-6.27,10.61-10.02,16.56-3.74,5.96-7.89,12.34-12.32,19.14-8.91,13.58-19.08,28.81-30.33,45.29h0s-.01.02-.01.02c-2.48,3.95-5.89,7.53-10.05,9.78-2.08,1.11-4.38,1.84-6.74,2.02-1.18.06-2.39.06-3.61.04-1.22-.02-2.44,0-3.67,0-9.83.06-20,.28-30.46.49-20.92.5-43,1.04-65.79,1.58-43.91.88-85.2,1.72-120.53,2.43l.22.11c-1.46-2.09-2.85-4.22-4.08-6.42-.61-1.1-1.18-2.21-1.63-3.36-.45-1.13-.65-2.38-.92-3.6-1-4.9-1.79-9.74-2.49-14.46-1.37-9.46-2.26-18.5-2.75-27.02-1.01-17.05-.39-32.02,1.17-44.19,1.53-12.19,4.02-21.55,6.07-27.76.55-1.54,1.03-2.9,1.45-4.08.41-1.18.85-2.13,1.15-2.92.31-.78.55-1.37.71-1.78.16-.4.23-.61.23-.61Z"/>
          <path class="cls-14" d="m425.82,296.88s-.14.37-.3,1.1c-.16.73-.37,1.81-.59,3.22-.43,2.81-.88,6.91-1.17,11.99-.64,10.17-.38,24.23-.19,39.75.23,15.52.55,29.57.82,39.73.15,5.04.27,9.13.36,12.04.06,1.38.1,2.47.13,3.27.02.34.04.62.05.85.01.19.03.29.04.29.01,0,.02-.1.02-.29,0-.23,0-.51.01-.85,0-.81,0-1.9-.02-3.27-.04-2.9-.09-7-.16-12.04-.16-10.22-.39-24.24-.64-39.73-.19-15.51-.51-29.56.01-39.71.24-5.07.62-9.17.98-11.98.18-1.41.35-2.49.47-3.23.06-.33.11-.61.15-.84.03-.19.05-.29.04-.29Z"/>
          <g class="cls-6">
            <path d="m515.84,368.08s-54.2,24.31-64.05,26.6-168.66,3.6-168.66,3.6l-3.28-7.56,165.75-1.17s66.59-26.55,70.25-21.47Z"/>
          </g>
          <path class="cls-14" d="m547.46,347.57s.1-.09.29-.28c.18-.19.47-.46.84-.81.76-.69,1.91-1.66,3.49-2.77,1.59-1.09,3.61-2.29,6.05-3.49,2.46-1.14,5.32-2.3,8.58-3.25,3.27-.9,6.89-1.77,10.84-2.23,1.96-.32,4.02-.41,6.13-.6,1.05-.09,2.13-.05,3.21-.08,1.09,0,2.19-.08,3.3.03,8.9.37,18.66,2.83,27.84,7.84,3.91,2.13,7.61,4.58,10.77,7.37l.26.23.19-.28c5.17-7.62,9.98-14.82,14.15-21.43,4.17-6.61,7.7-12.63,10.56-17.7,2.87-5.07,5.1-9.17,6.62-12,.74-1.39,1.32-2.48,1.73-3.26.18-.35.32-.63.44-.85.1-.19.14-.29.13-.3,0,0-.07.09-.18.27-.13.21-.28.48-.48.82-.44.77-1.05,1.84-1.82,3.2-1.61,2.83-3.91,6.87-6.78,11.89-2.91,5.03-6.47,11.02-10.67,17.6-4.19,6.58-9.02,13.76-14.2,21.37l.45-.05c-3.23-2.87-6.93-5.32-10.89-7.47-9.26-5.05-19.11-7.51-28.09-7.86-1.12-.11-2.23-.02-3.33-.02-1.09.04-2.18,0-3.24.1-2.12.2-4.19.3-6.16.64-3.97.49-7.61,1.39-10.89,2.33-3.27.99-6.14,2.18-8.61,3.36-2.44,1.24-4.46,2.49-6.04,3.61-1.56,1.15-2.7,2.16-3.44,2.89-.36.37-.63.66-.8.87-.17.2-.25.32-.24.32Z"/>
          <path class="cls-14" d="m686.15,378.49s.2-.65.45-1.85c.25-1.2.58-2.95.96-5.11.77-4.32,1.73-10.31,2.64-16.95.92-6.64,1.62-12.68,2.05-17.05.22-2.19.37-3.96.46-5.19.09-1.23.12-1.91.07-1.91-.04,0-.15.67-.31,1.88-.17,1.34-.39,3.07-.66,5.16-.54,4.36-1.31,10.37-2.23,17.01-.92,6.63-1.81,12.63-2.46,16.97-.31,2.08-.57,3.81-.77,5.14-.17,1.22-.25,1.89-.21,1.9Z"/>
          <path class="cls-14" d="m637.32,382.86s.21.04.62.05c.48,0,1.07,0,1.78.01,1.55,0,3.79-.05,6.56-.15,5.53-.2,13.17-.66,21.58-1.55,8.41-.89,15.99-2.04,21.45-3,2.73-.48,4.94-.9,6.45-1.23.7-.15,1.28-.28,1.75-.38.4-.1.6-.16.6-.18,0-.02-.22,0-.62.05-.47.07-1.06.16-1.77.26-1.62.26-3.81.6-6.48,1.02-5.47.85-13.05,1.92-21.45,2.81-8.4.89-16.02,1.43-21.54,1.74-2.69.15-4.91.27-6.54.36-.71.05-1.3.08-1.78.11-.41.03-.62.06-.62.08Z"/>
          <path class="cls-13" d="m103.12,354.26s6.71-16.57,6.52-17.13c-1.03-2.97-4.89-11.11-4.89-11.11,0,0-3.15,1.85-6.98,4.78-4.27,3.27-9.42,7.85-12.99,12.06-2.07,2.44-3.21,5.6-3.21,8.89v13.88s21.55-11.37,21.55-11.37Z"/>
          <path class="cls-14" d="m249.1,277.49c-.13.13,1.37,2.04,3.11,4.47,1.75,2.43,3.08,4.48,3.23,4.38.14-.09-.97-2.32-2.74-4.78-1.76-2.47-3.49-4.19-3.6-4.07Z"/>
          <path class="cls-13" d="m685.54,277.87s-50.82,4.44-50.26,5.63c.56,1.2,50.26,17.53,50.26,17.53v-23.16Z"/>
          <path class="cls-14" d="m685.69,301.7c.17,0,.31-5.31.31-11.86,0-6.55-.14-11.86-.31-11.86s-.31,5.31-.31,11.86c0,6.55.14,11.86.31,11.86Z"/>
          <path class="cls-14" d="m283.12,398.28s.21.02.61.02c.43,0,1.02,0,1.78,0,1.59-.02,3.88-.05,6.82-.08,5.95-.1,14.52-.25,25.1-.43,21.21-.43,50.48-1.02,82.8-1.67,16.17-.35,31.57-.69,45.59-1,.88-.02,1.75-.04,2.61-.06.86-.03,1.73,0,2.6-.14,1.76-.22,3.32-1.07,4.85-1.7,3.07-1.33,6.08-2.57,8.98-3.77,5.82-2.37,11.27-4.51,16.24-6.47,9.95-3.89,17.98-7.11,23.48-9.46,2.75-1.17,4.88-2.1,6.32-2.75.7-.32,1.24-.57,1.63-.75.37-.17.55-.28.55-.28,0,0-.2.06-.57.21-.4.16-.95.39-1.65.69-1.48.61-3.62,1.5-6.36,2.64-5.53,2.27-13.58,5.42-23.55,9.26-4.98,1.93-10.44,4.04-16.27,6.39-2.91,1.18-5.92,2.42-9,3.74-1.56.64-3.06,1.45-4.72,1.65-.82.12-1.67.1-2.54.12-.86.02-1.73.03-2.61.05-14.01.29-29.42.61-45.59.95-32.32.73-61.58,1.39-82.79,1.86-10.57.27-19.14.49-25.09.64-2.94.09-5.24.16-6.82.21-.76.03-1.35.05-1.77.07-.4.02-.6.05-.6.05Z"/>
          <path class="cls-10" d="m296.55,273.72c2.18,4.78,4.58,11.85,4.14,19.19-.29,4.78-3.98,8.52-8.47,8.55l-20.9.17c-3.08.02-5.87-2.29-6.27-5.54-.13-1.06-.01-2.21.53-3.39,2.17-4.72,3.98-3.83,3.98-3.83,0,0,6.33-13.93,15.95-19.21,4.03-2.22,9.05-.28,11.03,4.07Z"/>
          <path class="cls-14" d="m274.91,301.6c-.03.09-.83-.16-1.9-.98-1.02-.81-2.48-2.22-3.03-4.39-.53-2.11-.42-4.03-.43-5.39.02-1.37.09-2.21.19-2.22.1,0,.22.84.32,2.2.13,1.36.12,3.26.61,5.2.48,1.92,1.75,3.28,2.66,4.17.94.89,1.63,1.3,1.58,1.41Z"/>
          <path class="cls-1" d="m273.33,285.92c-.08-.04.28-1.18,1.16-2.89.88-1.71,2.33-3.94,4.31-6.04,1.99-2.1,4.09-3.64,5.7-4.56,1.61-.93,2.68-1.3,2.72-1.22.11.22-4.03,2.18-7.91,6.32-3.91,4.1-5.78,8.51-5.99,8.38Z"/>
          <path class="cls-4" d="m434.62,228.64s-.08.23-.18.68c-.1.52-.23,1.17-.39,1.97-.32,1.71-.76,4.19-1.28,7.26-1.03,6.14-2.39,14.64-3.7,24.05-1.31,9.42-2.32,17.98-2.83,24.2-.14,1.55-.23,2.96-.3,4.2-.07,1.24-.14,2.3-.14,3.18,0,.81-.02,1.48-.02,2.01,0,.46.01.7.03.7.02,0,.05-.24.09-.7.04-.53.08-1.19.14-2,.04-.87.14-1.93.25-3.16.1-1.23.22-2.64.39-4.18.62-6.2,1.69-14.73,3-24.15,1.31-9.41,2.6-17.91,3.52-24.07.45-3.01.81-5.48,1.08-7.3.11-.8.2-1.46.27-1.99.06-.46.08-.7.05-.7Z"/>
          <g class="cls-6">
            <path d="m685.54,301.03l-25.13-15.91-.73-4.84c-9.76,1.03-21.6,2.02-24.4,3.21,0,.81,30.91,11.26,50.26,17.53Z"/>
          </g>
          <g class="cls-6">
            <path d="m109.63,337.13l-13.43,12.17-14.63,2.45v13.88s21.55-11.37,21.55-11.37c2.65-6.6,5.07-12.77,6.52-17.13Z"/>
          </g>
          <path class="cls-14" d="m109.78,337.13s.12-.03.34-.13c.25-.11.57-.25.97-.43.89-.41,2.14-.97,3.72-1.69,3.27-1.49,7.94-3.62,13.68-6.25,5.79-2.61,12.68-5.71,20.41-8.96,3.87-1.58,7.94-3.3,12.25-4.62,2.17-.58,4.45-.94,6.74-1.36,2.31-.39,4.64-.78,7.01-1.18,18.96-3.09,36.15-5.7,48.59-7.64,6.19-.97,11.2-1.76,14.73-2.31,1.7-.28,3.04-.5,4-.66.43-.08.77-.14,1.04-.19.23-.05.35-.07.35-.09,0-.01-.12,0-.36.02-.27.03-.61.07-1.05.12-.96.13-2.31.31-4.02.53-3.53.5-8.56,1.22-14.75,2.1-12.45,1.83-29.65,4.36-48.62,7.45-2.37.4-4.71.8-7.02,1.19-2.3.42-4.58.78-6.8,1.38-4.38,1.35-8.43,3.08-12.31,4.68-7.72,3.29-14.6,6.43-20.37,9.1-5.76,2.67-10.41,4.89-13.61,6.44-1.57.77-2.8,1.37-3.68,1.81-.39.2-.7.36-.95.49-.21.11-.32.18-.31.19Z"/>
          <g>
            <path class="cls-14" d="m635.26,394.82c.38,28.01-20.6,51.05-46.86,51.46-26.26.4-47.85-21.98-48.23-49.99-.38-28.01,20.6-51.05,46.86-51.46,26.26-.4,47.85,21.98,48.23,49.99Z"/>
            <path class="cls-14" d="m635.25,394.69s0,.09,0,.13c.38,28.01-20.6,51.05-46.86,51.46-26.26.4-47.85-21.98-48.23-49.99,0-.04,0-.09,0-.13l95.08-1.46Z"/>
            <path class="cls-2" d="m621.1,395.03c.27,19.67-14.46,35.84-32.9,36.13-18.44.28-33.6-15.43-33.86-35.1-.27-19.67,14.46-35.84,32.9-36.13,18.43-.28,33.59,15.43,33.86,35.1Z"/>
            <path class="cls-8" d="m587.24,359.94c18.43-.28,33.59,15.43,33.86,35.1l-66.76,1.03c-.27-19.67,14.46-35.84,32.9-36.13Z"/>
            <path class="cls-14" d="m608.05,395.24c.16,11.98-8.81,21.83-20.04,22.01-11.23.17-20.47-9.4-20.63-21.38-.16-11.98,8.81-21.83,20.04-22.01,11.23-.17,20.46,9.4,20.63,21.38Z"/>
          </g>
          <g>
            <ellipse class="cls-14" cx="194.21" cy="395.55" rx="47.55" ry="50.73"/>
            <path class="cls-14" d="m241.75,394.69s0,.09,0,.13c.38,28.01-20.6,51.05-46.86,51.46-26.26.4-47.85-21.98-48.23-49.99,0-.04,0-.09,0-.13l95.08-1.46Z"/>
            <path class="cls-2" d="m227.59,395.03c.27,19.67-14.46,35.84-32.9,36.13-18.44.28-33.6-15.43-33.86-35.1-.27-19.67,14.46-35.84,32.9-36.13,18.43-.28,33.59,15.43,33.86,35.1Z"/>
            <path class="cls-8" d="m193.73,359.94c18.43-.28,33.59,15.43,33.86,35.1l-66.76,1.03c-.27-19.67,14.46-35.84,32.9-36.13Z"/>
            <path class="cls-14" d="m214.54,395.24c.16,11.98-8.81,21.83-20.04,22.01-11.23.17-20.47-9.4-20.63-21.38-.16-11.98,8.81-21.83,20.04-22.01,11.23-.17,20.46,9.4,20.63,21.38Z"/>
          </g>
          <g>
            <path class="cls-1" d="m373.78,281.35c.08-.16-8.73-5.08-19.67-10.98-10.94-5.9-19.88-10.55-19.95-10.39-.08.16,8.73,5.08,19.67,10.98,10.94,5.9,19.87,10.55,19.95,10.39Z"/>
            <path class="cls-1" d="m386.05,280.06c.08-.16-8.29-5.02-18.68-10.85-10.4-5.83-18.89-10.43-18.97-10.27-.08.16,8.28,5.02,18.68,10.85,10.4,5.83,18.89,10.43,18.97,10.27Z"/>
          </g>
          <path class="cls-14" d="m81.56,365.63s.08-.71.12-2c.03-1.4.06-3.24.1-5.45.05-2.29,0-5.07.13-8.05.24-2.97,2.31-5.68,4.33-8.37,2.05-2.69,4.52-4.78,6.73-6.67,2.24-1.87,4.32-3.47,6.07-4.8,1.7-1.26,3.11-2.31,4.19-3.11.99-.73,1.53-1.14,1.51-1.18-.02-.04-.61.3-1.64.97-1.03.67-2.51,1.66-4.3,2.94-1.79,1.28-3.9,2.85-6.18,4.7-2.24,1.88-4.75,3.97-6.86,6.73-1.05,1.36-2.05,2.72-2.87,4.16-.83,1.41-1.44,3-1.56,4.57-.1,3.09,0,5.79,0,8.1.04,2.21.07,4.04.09,5.45.04,1.29.08,2,.12,2Z"/>
        </g>
      </g>
    </g>
  </g>
  <g id="Character_1" data-name="Character 1">
    <g>
      <g>
        <path class="cls-14" d="m124.65,213.82c-1.16.15-2.38-.37-3.04-1.29.78.11,1.63.22,2.33-.12.71-.34,1.1-1.34.55-1.88-.43-.42-1.14-.35-1.76-.39-1.44-.1-2.76-1.07-3.24-2.37-.52-1.43-.04-2.99.14-4.5.54-4.37-1.63-8.95-5.43-11.44l-9.88-5.45c-3.58,4.38-4.7,10.28-3.96,15.79.74,5.51,3.19,10.69,6.13,15.48.86,1.4,1.77,2.78,2.98,3.92,1.21,1.13,2.75,2.01,4.44,2.17.44-1.32.16-2.85-.73-3.95,2.67.16,5.39-.77,7.34-2.51-.71-.52-1.41-1.03-2.12-1.55,2.23.29,4.58-.43,6.22-1.9Z"/>
        <path class="cls-7" d="m89.49,198.7c.17-3.94-.13-7.5,3.84-8.58l12.38-3.38c5.37-.7,9.16,5.53,9.67,10.69.56,5.73.99,11.78.41,16.08-1.15,8.65-8.03,9.95-8.03,9.95,0-.01-.83,7.31-.76,9.83l-5.24,13.06-10.99-16.25-1.29-31.27c-.32,0,0,.08,0-.12Z"/>
        <path class="cls-14" d="m113.64,204.56c.04.58-.44,1.1-1.08,1.15-.63.05-1.18-.38-1.22-.96-.04-.58.44-1.1,1.08-1.15.64-.05,1.19.38,1.23.96Z"/>
        <path class="cls-14" d="m114.12,200.84c-.14.15-1.03-.45-2.28-.41-1.24.02-2.14.66-2.28.52-.07-.06.07-.33.46-.61.38-.29,1.04-.57,1.82-.59.78-.02,1.44.23,1.82.5.39.27.53.53.46.59Z"/>
        <path class="cls-14" d="m103.38,204.56c.04.58-.44,1.1-1.08,1.15-.63.05-1.18-.38-1.22-.96-.04-.58.44-1.1,1.08-1.15.64-.05,1.18.38,1.23.96Z"/>
        <path class="cls-14" d="m102.31,201.16c-.14.15-1.04-.45-2.28-.41-1.24.02-2.14.66-2.28.52-.07-.06.07-.33.46-.61.38-.29,1.04-.57,1.82-.59.78-.02,1.44.23,1.82.5.39.27.53.53.46.59Z"/>
        <path class="cls-14" d="m106.48,210.39c0-.07.76-.22,2.01-.41.32-.04.62-.11.66-.32.07-.22-.08-.54-.24-.89-.32-.73-.66-1.49-1.01-2.28-1.41-3.25-2.44-5.93-2.31-5.98.14-.05,1.39,2.54,2.8,5.79.34.8.67,1.57.97,2.3.13.34.35.73.2,1.19-.08.23-.31.4-.51.46-.2.07-.38.07-.54.09-1.26.1-2.04.13-2.05.06Z"/>
        <path class="cls-9" d="m95.71,220.72s2.79,6.31,11.79,5.24l.26-2.5s-5.93.53-12.05-2.74Z"/>
        <path class="cls-14" d="m101.79,197.33c-.11.33-1.36.21-2.81.42-1.46.18-2.62.63-2.83.34-.09-.14.1-.45.57-.77.46-.33,1.21-.65,2.08-.76.87-.12,1.68,0,2.22.18.54.19.82.44.77.59Z"/>
        <path class="cls-14" d="m113.61,197.21c-.21.28-1.08.02-2.11.04-1.03-.02-1.9.24-2.11-.04-.09-.13.04-.41.41-.68.37-.27.99-.49,1.7-.49.71,0,1.33.23,1.7.49.37.27.5.54.41.68Z"/>
        <path class="cls-9" d="m101.81,212.71c.14-.71.89-1.27,1.64-1.22.56.04,1.07.38,1.33.85.27.47.29,1.04.12,1.55l-.02.11c-.49.55-1.37.76-2.07.48-.7-.28-1.15-1.06-1-1.77Z"/>
        <path class="cls-14" d="m105.78,214c0-.18-1.26-.09-2.24-1.05-.98-.96-.94-2.25-1.12-2.24-.08-.01-.22.3-.19.84.02.53.27,1.29.86,1.88.6.59,1.35.8,1.87.8.53,0,.83-.15.82-.23Z"/>
        <path class="cls-14" d="m90.77,184.72c1.39-2.11,4.68-4.32,7.26-4.75,2.94-.49,4.71,0,6.64,1.67,0,0,1.5,1.38,2.91,1.65,1.41.26,2.59.04,4.27.86,2.29,1.12,3.3,4.05,4.36,6.29,1.32,2.79,3.2,5.35,4.07,8.3.86,2.95.4,6.56-2.2,8.35.45-2.26.82-4.74-.16-6.78.11.82.09,1.64-.16,2.44-.49-1.33-1-2.69-2.01-3.72-.95-.97-2.26-1.54-3.24-2.48-1.44-1.38-2.1-3.48-3.85-4.48-1.82-1.04-4.12-.52-6.24-.51-3.56.02-7.09-1.61-9.3-4.28l.53-.04c-.95-.62-1.92-1.44-2.88-2.52Z"/>
        <path class="cls-14" d="m77.51,205.79c.81-2.53,2.23-4.85,3.12-7.36.87-2.44,1.22-5.05,2.37-7.39,1.55-3.14,4.44-7.21,8.94-6.98l.31.26c1.53-.17,3.1-.01,4.54.52l.07,3.35.86.73c-.36.67-.7,1.31-1.04,1.94-.29,1.26-.63,2.51-1.15,3.69-.21.48-.19,2.17-.17,4.04.04,2.89-2.09,6.07-5,6.48,0,0-.17,11.45.22,21.01l-3.64-5.18c-1.88-1.03-3.41-2.61-4.35-4.47-.13.62-.26,1.23-.39,1.84-1.77-1.78-2.86-4.16-3.03-6.61-.34.59-.67,1.18-1.01,1.77-1.6-2.17-1.49-5.11-.68-7.64Z"/>
        <path class="cls-7" d="m90.76,205.14c-.12-.29-5.73-2.05-5.64,3.59.09,5.48,5.85,4.24,5.85,4.08,0-.16-.22-7.67-.22-7.67Z"/>
        <path class="cls-9" d="m89.16,210.77s-.1.07-.27.15c-.16.08-.45.13-.75.03-.61-.2-1.14-1.11-1.19-2.1-.02-.5.08-.97.25-1.37.17-.4.43-.69.74-.75.3-.07.52.1.59.25.08.15.05.26.08.27.02.01.12-.09.07-.32-.03-.11-.1-.24-.23-.34-.14-.1-.34-.16-.56-.13-.44.04-.83.43-1.03.87-.22.44-.34.97-.32,1.53.06,1.1.67,2.12,1.5,2.34.41.09.74-.03.91-.16.17-.14.2-.26.18-.27Z"/>
        <path class="cls-4" d="m87.26,212.59c.12-.53.72-.92,1.28-.83l.27.07c.52.21.81.84.62,1.35-.19.51-.83.82-1.38.68-.55-.15-.91-.74-.79-1.27Z"/>
        <path class="cls-4" d="m97.28,190.29c-.11.04-.64-1.81-2.24-3.54-1.57-1.75-3.43-2.5-3.37-2.6.02-.04.5.09,1.21.46.71.37,1.63,1.01,2.44,1.9.81.89,1.35,1.85,1.64,2.57.29.72.36,1.2.32,1.21Z"/>
      </g>
      <g>
        <path class="cls-7" d="m146.43,203.49l-2.89,8.13-1.01,1.36s-.88,4.52-.94,5.49c-.06.97,1.26,6.02,1.26,6.02l-2.94,4.5,8.14,2.98s2.21-4.11,2.82-4.57c.61-.47,1.06-1.8,1.2-2.7.14-.9,1.36-6.24,1.36-6.24,0,0,3.61-5.89,2.1-6.19-.34-.07-1.13.02-1.13.02,0,0-2.17,3.87-2.75,3.95l-.82-.46s1.7-5.92,1.78-7.03-.15-1.89-1.05-2.02c0,0-.67.26-.73.54s-1.75,6.89-2.14,6.77-.2-.72-.2-.72c0,0,2.25-8.02,2.15-8.48-.1-.46-.51-1.18-1.35-1.1l-1.73,4.4s.8-3.7.18-4.37c-.62-.66-1.32-.31-1.32-.31Z"/>
        <path class="cls-9" d="m148.15,221.49c-.07,0-.02-.69-.3-1.8-.28-1.08-1.02-2.62-2.53-3.74l-.11-.08.03-.12c.14-.59.29-1.21.44-1.84v-.04s.04-.04.04-.04c.14-.19.29-.41.42-.64.46-.76.8-1.57.94-2.34.06-.39.08-.77-.02-1.1-.08-.33-.35-.56-.62-.6l.14-.05c-.97.89-1.79,1.62-2.37,2.12-.58.5-.92.78-.95.75-.03-.03.27-.35.8-.89s1.32-1.31,2.26-2.23l.06-.06h.08c.48.06.84.43.97.84.13.41.11.85.05,1.27-.14.85-.49,1.69-.97,2.49-.14.24-.29.46-.45.68l.04-.07c-.16.63-.31,1.25-.46,1.84l-.08-.2c1.62,1.24,2.32,2.87,2.54,4.01.11.58.13,1.05.11,1.36-.02.32-.04.49-.07.49Z"/>
        <path class="cls-9" d="m148.15,214.91c.04-.1,1.27.24,2.59,1.08,1.32.83,2.13,1.78,2.05,1.85-.09.08-1.01-.71-2.29-1.51-1.27-.81-2.4-1.31-2.35-1.42Z"/>
        <path class="cls-10" d="m107.76,230.71c.24,0,23.17,12.93,23.17,12.93l9.05-19.91,12.99,4.03s-8.36,24.13-10.17,27.16c-1.45,2.43-7.08,6.39-12.96,4.73-5.88-1.66-16.04-4.37-16.04-4.37l-6.04-24.58Z"/>
      </g>
      <g>
        <g>
          <path class="cls-4" d="m76.31,418l-.2,22.32,29.09.38c-.13-2.66-15.1-8.18-15.1-8.18l.74-14.3-14.53-.23Z"/>
          <path class="cls-1" d="m81.12,431.21c-.57.14-.96.74-.84,1.28.12.54.76.94,1.33.81.57-.13,1.07-.84.88-1.36-.19-.53-.96-.95-1.48-.69"/>
          <path class="cls-14" d="m76.11,440.37v-2.39s27.97,1.39,27.97,1.39c0,0,1.28.56,1.12,1.43l-29.08-.43Z"/>
          <path class="cls-14" d="m90.57,432.39c0,.14-.72.19-1.42.61-.72.41-1.09.99-1.22.94-.13-.03.09-.84.96-1.34.86-.51,1.71-.34,1.68-.21Z"/>
          <path class="cls-14" d="m93.6,433.64c.03.13-.59.35-1.08.92-.51.55-.64,1.17-.78,1.16-.13.02-.22-.78.4-1.47.62-.7,1.45-.74,1.46-.62Z"/>
          <path class="cls-14" d="m95.28,437.15c-.13.03-.32-.65.06-1.39.37-.74,1.04-1.03,1.1-.91.08.11-.36.51-.66,1.12-.31.6-.36,1.17-.5,1.19Z"/>
          <path class="cls-14" d="m90.36,429.12c-.06.12-.71-.07-1.51-.03-.8.03-1.43.27-1.51.16-.08-.1.54-.59,1.48-.63.95-.04,1.61.4,1.54.5Z"/>
        </g>
        <g>
          <path class="cls-4" d="m63.04,400.29l-14.59,17.45,22.64,17.44c1.61-2.17-6.6-15.34-6.6-15.34l9.83-10.81-11.28-8.74Z"/>
          <path class="cls-1" d="m58.29,413.51c-.53-.22-1.23.01-1.49.52-.26.5,0,1.18.52,1.42.53.23,1.38-.03,1.58-.55.2-.53-.14-1.31-.71-1.41"/>
          <path class="cls-14" d="m48.42,417.77l1.55-1.88,21.1,17.56s.65,1.2-.04,1.79l-22.61-17.47Z"/>
          <path class="cls-14" d="m64.96,420.01c-.09.1-.69-.28-1.52-.35-.83-.1-1.5.14-1.56.02-.08-.1.61-.6,1.62-.49,1,.1,1.57.75,1.46.82Z"/>
          <path class="cls-14" d="m66.54,422.78c-.06.12-.69-.07-1.44.09-.76.14-1.26.55-1.37.46-.12-.06.33-.74,1.27-.92.94-.19,1.63.27,1.54.37Z"/>
          <path class="cls-14" d="m65.59,426.53c-.12-.05.17-.7.94-1.06.77-.36,1.48-.19,1.46-.07-.01.13-.61.19-1.24.49-.64.29-1.04.71-1.16.64Z"/>
          <path class="cls-14" d="m66.91,417.31c-.13.06-.51-.48-1.17-.92-.65-.45-1.31-.63-1.29-.76,0-.13.81-.15,1.57.38.77.52,1.01,1.26.88,1.3Z"/>
        </g>
        <path class="cls-14" d="m118.75,325.01c.42,2.25,1.08,21.42,1.5,31.53s-.63,15.09-1.84,17.35c-1.21,2.26-51.5,43.41-51.5,43.41l-13.9-9.83s20.45-29.48,27.72-34.76c7.27-5.28,21.15-10.14,21.15-10.14l-3.95-55.37,18.96-.99,1.86,18.79Z"/>
        <g>
          <path class="cls-14" d="m120.85,303.93c0,1.31,2.21,34.3-9.08,58.16,0,0-3.91,7.46-4.6,10.73s-15.33,57.37-15.33,57.37l-16.89-.59s-2.7-27.11.03-42.8c2.74-15.69,7.74-13.86,7.74-23.99s-2.52-31.14-2.52-31.14c0,0-3.69-5.74-4.95-16.86-1.02-9.04,3.43-18.72,3.43-18.72l4.41-7.45,37.26-1.86.5,17.15Z"/>
          <path class="cls-4" d="m120.85,303.93s0-.38,0-1.12c-.02-.75-.04-1.85-.07-3.3-.08-2.91-.19-7.2-.33-12.73v-.09s-.09,0-.09,0c-9.15.44-21.87,1.06-37.26,1.81h-.08s-.04.07-.04.07c-1.37,2.31-2.87,4.84-4.42,7.44h0s0,.01,0,.01c-1.11,2.56-2.01,5.29-2.65,8.16-.66,2.86-1.03,5.88-.93,8.97.21,3.09.73,6.21,1.52,9.35.82,3.13,1.86,6.28,3.57,9.25l-.03-.07c.64,5.5,1.23,11.19,1.73,17.05.25,2.93.47,5.9.62,8.92.08,1.51.13,3.02.15,4.55.03.76-.03,1.52-.05,2.28-.08.76-.12,1.52-.3,2.27-.28,1.51-.85,2.95-1.6,4.32-.75,1.38-1.59,2.74-2.29,4.18-1.43,2.87-2.36,5.98-3.03,9.13-1.35,6.33-1.62,12.92-1.69,19.55-.03,8.76.43,17.36,1.19,25.68l.02.17h.18c5.76.21,11.39.4,16.89.59h.16s.04-.14.04-.14c4.89-18.12,9.46-35.06,13.48-50.29.49-1.91.98-3.79,1.46-5.64.25-.93.41-1.86.71-2.74.29-.89.64-1.76.99-2.61.72-1.71,1.5-3.36,2.3-4.98.2-.4.4-.8.6-1.2.21-.39.41-.8.57-1.21.35-.81.69-1.62,1.04-2.42,2.66-6.43,4.23-12.67,5.33-18.36,2.16-11.42,2.45-20.71,2.55-27.05.04-6.35-.23-9.8-.23-9.8,0,0,0,.22,0,.64.01.43.03,1.06.05,1.88.05,1.66.07,4.11.03,7.28-.14,6.33-.47,15.62-2.66,27.01-1.12,5.68-2.7,11.9-5.36,18.3-.34.79-.69,1.6-1.04,2.41-.16.41-.36.8-.57,1.2-.2.4-.4.8-.61,1.2-.8,1.62-1.59,3.28-2.32,4.99-.36.86-.71,1.73-1.01,2.64-.31.91-.48,1.85-.72,2.76-.48,1.85-.97,3.73-1.47,5.63-4.1,15.21-8.66,32.15-13.54,50.28l.2-.14c-5.5-.19-11.13-.39-16.89-.59l.2.18c-.75-8.3-1.21-16.9-1.18-25.64.07-6.62.35-13.18,1.68-19.47.67-3.14,1.59-6.21,3-9.05.69-1.42,1.53-2.77,2.28-4.17.76-1.39,1.35-2.89,1.63-4.43.18-.77.22-1.55.3-2.32.01-.77.07-1.55.05-2.31-.01-1.53-.07-3.05-.15-4.56-.15-3.02-.38-6-.63-8.93-.51-5.87-1.1-11.56-1.75-17.06v-.03s-.03-.04-.03-.04c-1.67-2.89-2.73-6.05-3.54-9.15-.78-3.11-1.31-6.23-1.52-9.28-.1-3.06.25-6.05.91-8.89.64-2.85,1.53-5.57,2.62-8.11h0c1.54-2.59,3.03-5.13,4.4-7.44l-.12.07c15.38-.79,28.1-1.45,37.25-1.92l-.09-.08c.18,5.53.32,9.82.41,12.73.05,1.45.09,2.55.12,3.3.03.74.06,1.12.06,1.12Z"/>
        </g>
      </g>
      <g>
        <path class="cls-8" d="m107.12,230.23s17.86,17.53,18.31,25.27c.28,4.86-4.28,15.99-5.49,23.01-.21,1.21.99,4.45,1.02,6.49.04,2.92-6.94,3.77-10.22,3.64-5.82-.24-10.52-3.28-17.01-3.57l-12.14-1.5,4.25-11.29s-.95-10.27-1.25-14.2c-.79-10.18-1.79-12.94-.81-18.41.99-5.47,7.02-12.05,7.02-12.05,10.33,3.42,16.23,5.52,16.32,2.6Z"/>
        <path class="cls-14" d="m113.69,271.11s.21-.12.55-.39c.34-.27.79-.69,1.33-1.24,1.07-1.1,2.37-2.78,3.42-4.85,1.04-2.07,1.59-4.1,1.82-5.58.12-.74.18-1.35.18-1.76.01-.42,0-.65-.02-.65-.07,0-.15.91-.46,2.36-.3,1.45-.89,3.42-1.91,5.46-1.02,2.03-2.27,3.71-3.26,4.84-.99,1.14-1.69,1.77-1.65,1.82Z"/>
      </g>
      <path class="cls-10" d="m111.33,280.76c0-4.97-2-15.34-4.1-24.6-2.46-10.84-6.41-20.17-14.67-27.96l-2.53-1.11c-4.34,2.54-10.09,5.2-10.31,14.02-.08,3.29,4.99,33.62,4.99,33.62,0,0-16.53,33.67-12.79,39.99.28.47,34.98,6.54,38.59,4.38,3.61-2.16.82-34.92.82-38.35Z"/>
      <g>
        <rect class="cls-4" x="69.95" y="281.29" width="39.01" height="24.93" rx="5.88" ry="5.88"/>
        <path class="cls-4" d="m74.26,284.45l-.99-.11,4.76-44.45c.34-3.21,2.04-6.09,4.64-7.89,2.48-1.72,5.57-2.28,8.47-1.53l.31.08c7.27,1.99,9.26,12.02,10.12,27.55.69,12.5,2.85,24.67,2.88,24.79l-.98.18c-.02-.12-2.19-12.35-2.89-24.91-.84-15.09-2.7-24.81-9.38-26.64l-.3-.08c-2.65-.69-5.37-.2-7.65,1.38-2.37,1.64-3.9,4.25-4.22,7.18l-4.76,44.45Z"/>
      </g>
      <path class="cls-14" d="m85.66,231.98s.23-.12.69-.22c.45-.1,1.12-.19,1.96-.19,1.65-.01,4.03.44,6.15,1.91,2.14,1.46,3.36,3.58,3.87,5.15.26.79.37,1.46.4,1.93.03.46.01.72-.02.72-.09.01-.14-1.02-.73-2.52-.57-1.49-1.79-3.46-3.82-4.85-2.02-1.4-4.27-1.89-5.87-1.97-1.61-.09-2.62.14-2.63.05Z"/>
      <g>
        <path class="cls-10" d="m97.4,276s1.36-27.23.79-34.11l-17.69-5.47c-1.75,4.41-3.79,33.38-.87,43.27,3.02,10.22,21.3,35.39,21.3,35.39l11.6-6.1-15.14-32.98Z"/>
        <path class="cls-14" d="m98.91,244.67s.01.19,0,.56c-.01.4-.03.94-.05,1.64-.06,1.47-.14,3.58-.25,6.28-.24,5.47-.59,13.29-1.02,22.85l-.02-.09c4.3,9.34,9.5,20.61,15.19,32.95l.1.22-.22.11c-3.72,1.96-7.62,4.01-11.6,6.11l-.2.11-.13-.18c-.39-.54-.8-1.12-1.22-1.71-3.31-4.67-6.45-9.29-9.38-13.83-2.91-4.55-5.65-8.98-7.91-13.41-1.13-2.21-2.15-4.43-2.84-6.7-.14-.58-.27-1.15-.4-1.72-.12-.57-.19-1.14-.28-1.71-.2-1.13-.26-2.25-.39-3.35-.36-4.41-.36-8.52-.29-12.27.16-7.5.68-13.56,1.21-17.72.26-2.08.54-3.69.79-4.77.1-.54.25-.94.34-1.21.09-.27.14-.4.15-.4.04.01-.18.55-.39,1.64-.22,1.08-.47,2.69-.69,4.77-.47,4.16-.93,10.21-1.04,17.7-.04,3.74-.03,7.85.36,12.23.22,2.18.46,4.45,1.08,6.69.69,2.22,1.69,4.41,2.83,6.61,2.26,4.4,5,8.82,7.91,13.36,2.92,4.53,6.06,9.14,9.37,13.81.42.58.83,1.16,1.22,1.7l-.33-.08c3.98-2.09,7.88-4.14,11.6-6.1l-.11.33c-5.65-12.36-10.82-23.65-15.09-33l-.02-.05v-.05c.5-9.55.91-17.37,1.2-22.84.15-2.7.27-4.81.36-6.28.05-.7.08-1.24.11-1.64.03-.37.06-.56.06-.56Z"/>
        <g>
          <path class="cls-7" d="m116.18,316.69s1.61,1.58,2.14,2.63c.53,1.05,1.26,5.51,1.26,5.51,0,0-.9.68-2.25-1.74-1.35-2.42-1.71-3.61-1.71-3.61l.56-2.79Z"/>
          <path class="cls-7" d="m117.77,324.93l-1.5-8.14-4.71-6.95-9.36,4.97.82,8.29s2.4,3.92,3.3,4.58c.89.66,2.22-.21,2.22-.21,1.03,1.02,3.09.18,3.09.18,1.31,1,2.71-.44,2.71-.44,0,0,1.7.99,2.35.78.23-.07.43-.29.61-.56.48-.74.63-1.64.48-2.5Z"/>
          <path class="cls-9" d="m107.3,325.51c.09-.05.43.34.74.86.32.53.5,1,.41,1.05-.09.05-.43-.34-.74-.86-.32-.53-.5-1-.41-1.05Z"/>
          <path class="cls-9" d="m109.97,324.88c.1-.03.42.62.85,1.4.43.78.81,1.4.72,1.47-.08.06-.62-.48-1.06-1.3-.45-.81-.61-1.54-.51-1.57Z"/>
          <path class="cls-9" d="m113.08,324.56c.11-.02.32.58.62,1.3.3.72.58,1.29.49,1.35-.09.05-.53-.46-.84-1.21-.32-.75-.37-1.42-.27-1.43Z"/>
          <path class="cls-9" d="m116.68,319.36c.1-.02.46,1.35.79,3.05.33,1.7.51,3.1.41,3.11-.1.02-.46-1.35-.79-3.05-.33-1.7-.51-3.1-.41-3.11Z"/>
          <path class="cls-9" d="m106.81,323.91s0,.16-.17.3c-.16.14-.45.28-.8.28-.35,0-.63-.15-.79-.29-.16-.14-.2-.27-.16-.3.08-.07.44.23.95.23.51,0,.88-.28.96-.21Z"/>
          <path class="cls-9" d="m110.04,323.81s-.03.16-.22.3c-.19.13-.5.25-.86.25-.36,0-.68-.12-.86-.26-.19-.14-.25-.27-.22-.3.07-.08.49.2,1.08.19.59.01,1.01-.26,1.08-.19Z"/>
          <path class="cls-9" d="m115.92,322.07c.03-.05.29.17.12.57-.18.36-.6.66-1.15.82-.55.15-1.08.09-1.41-.04-.34-.13-.5-.29-.47-.33.04-.09.83.3,1.78.02.46-.13.85-.38,1.02-.6.17-.22.08-.42.12-.44Z"/>
        </g>
      </g>
    </g>
  </g>
</svg>
