<?xml version="1.0" encoding="UTF-8"?>
<svg xmlns="http://www.w3.org/2000/svg" viewBox="0 0 500 372.61">
  <defs>
    <style>
      .cls-1 {
        fill: #f0f0f0;
      }

      .cls-2, .cls-3, .cls-4 {
        fill: #fff;
      }

      .cls-5 {
        fill: #fafafa;
      }

      .cls-6, .cls-7 {
        opacity: .5;
      }

      .cls-8 {
        opacity: .9;
      }

      .cls-3 {
        opacity: .4;
      }

      .cls-9 {
        fill: #f5f5f5;
      }

      .cls-10, .cls-11 {
        opacity: .2;
      }

      .cls-12, .cls-7 {
        fill: #e0e0e0;
      }

      .cls-4 {
        opacity: .7;
      }

      .cls-13 {
        fill: #e6e6e6;
      }

      .cls-14 {
        fill: #b55b52;
      }

      .cls-15 {
        fill: #ebebeb;
      }

      .cls-16, .cls-11 {
        fill: #407bff;
      }

      .cls-17 {
        fill: #a02724;
      }

      .cls-18 {
        fill: #263238;
      }
    </style>
  </defs>
  <g id="Background_Complete" data-name="Background Complete">
    <g>
      <g>
        <rect class="cls-15" y="327.45" width="500" height=".25"/>
        <path class="cls-15" d="m237.01,282.85H43.91c-3.15,0-5.71-2.56-5.71-5.71V5.71c0-3.15,2.56-5.71,5.71-5.71h193.1c3.15,0,5.71,2.56,5.71,5.71v271.43c0,3.15-2.56,5.71-5.71,5.71ZM43.91.25c-3.01,0-5.46,2.45-5.46,5.46v271.43c0,3.01,2.45,5.46,5.46,5.46h193.1c3.01,0,5.46-2.45,5.46-5.46V5.71c0-3.01-2.45-5.46-5.46-5.46H43.91Z"/>
        <path class="cls-15" d="m453.31,282.85h-193.1c-3.15,0-5.71-2.56-5.71-5.71V5.71c0-3.15,2.56-5.71,5.71-5.71h193.1c3.15,0,5.71,2.56,5.71,5.71v271.43c0,3.15-2.56,5.71-5.71,5.71ZM260.21.25c-3.01,0-5.46,2.45-5.46,5.46v271.43c0,3.01,2.45,5.46,5.46,5.46h193.1c3.01,0,5.46-2.45,5.46-5.46V5.71c0-3.01-2.45-5.46-5.46-5.46h-193.1Z"/>
      </g>
      <g>
        <rect class="cls-15" x="423.9" y="343.54" width="26" height=".25"/>
        <rect class="cls-15" x="311" y="346.26" width="45.03" height=".25"/>
        <rect class="cls-15" x="362.11" y="334.26" width="60.79" height=".25"/>
        <rect class="cls-15" x="52.46" y="335.94" width="19.23" height=".25"/>
        <rect class="cls-15" x="80.6" y="335.94" width="55.29" height=".25"/>
        <rect class="cls-15" x="169.67" y="340.16" width="74.47" height=".25"/>
      </g>
    </g>
    <g>
      <g>
        <rect class="cls-5" x="46.24" y="254.07" width="21.2" height="73.38"/>
        <rect class="cls-5" x="64.8" y="270.17" width="21.2" height="57.28"/>
        <rect class="cls-5" x="78.36" y="222.96" width="21.2" height="104.48"/>
        <rect class="cls-5" x="92.45" y="138.25" width="21.2" height="189.2"/>
        <rect class="cls-5" x="109.2" y="152.98" width="56.89" height="174.47"/>
      </g>
      <g>
        <rect class="cls-5" x="387.27" y="277.23" width="24.22" height="50.22" transform="translate(798.77 604.67) rotate(180)"/>
        <rect class="cls-5" x="366.06" y="288.24" width="24.22" height="39.2" transform="translate(756.34 615.69) rotate(180)"/>
        <rect class="cls-5" x="350.57" y="255.94" width="24.22" height="71.51" transform="translate(725.37 583.38) rotate(180)"/>
        <rect class="cls-5" x="334.47" y="197.96" width="24.22" height="129.49" transform="translate(693.17 525.4) rotate(180)"/>
      </g>
      <g>
        <g>
          <rect class="cls-1" x="273.17" y="169.26" width="74.33" height="158.19"/>
          <g>
            <rect class="cls-9" x="336.88" y="175.89" width="3.54" height="19.25"/>
            <rect class="cls-9" x="336.88" y="205.99" width="3.54" height="19.25"/>
            <rect class="cls-9" x="336.88" y="236.1" width="3.54" height="19.25"/>
            <rect class="cls-9" x="336.88" y="266.2" width="3.54" height="19.25"/>
            <rect class="cls-9" x="336.88" y="296.3" width="3.54" height="19.25"/>
            <rect class="cls-9" x="324.34" y="175.89" width="3.54" height="19.25"/>
            <rect class="cls-9" x="324.34" y="205.99" width="3.54" height="19.25"/>
            <rect class="cls-9" x="324.34" y="236.1" width="3.54" height="19.25"/>
            <rect class="cls-9" x="324.34" y="266.2" width="3.54" height="19.25"/>
            <rect class="cls-9" x="324.34" y="296.3" width="3.54" height="19.25"/>
            <rect class="cls-9" x="311.8" y="175.89" width="3.54" height="19.25"/>
            <rect class="cls-9" x="311.8" y="205.99" width="3.54" height="19.25"/>
            <rect class="cls-9" x="311.8" y="236.1" width="3.54" height="19.25"/>
            <rect class="cls-9" x="311.8" y="266.2" width="3.54" height="19.25"/>
            <rect class="cls-9" x="311.8" y="296.3" width="3.54" height="19.25"/>
            <rect class="cls-9" x="299.26" y="175.89" width="3.54" height="19.25"/>
            <rect class="cls-9" x="299.26" y="205.99" width="3.54" height="19.25"/>
            <rect class="cls-9" x="299.26" y="236.1" width="3.54" height="19.25"/>
            <rect class="cls-9" x="299.26" y="266.2" width="3.54" height="19.25"/>
            <rect class="cls-9" x="299.26" y="296.3" width="3.54" height="19.25"/>
            <rect class="cls-9" x="286.71" y="175.89" width="3.54" height="19.25"/>
            <rect class="cls-9" x="286.71" y="205.99" width="3.54" height="19.25"/>
            <rect class="cls-9" x="286.71" y="236.1" width="3.54" height="19.25"/>
            <rect class="cls-9" x="286.71" y="266.2" width="3.54" height="19.25"/>
            <rect class="cls-9" x="286.71" y="296.3" width="3.54" height="19.25"/>
          </g>
          <polygon class="cls-7" points="273.17 169.26 288.48 169.26 295.14 327.45 273.17 327.45 273.17 169.26"/>
        </g>
        <g>
          <polygon class="cls-1" points="236.63 108.14 280.71 116.48 280.71 327.45 236.63 327.45 236.63 108.14"/>
          <rect class="cls-13" x="201.36" y="108.14" width="35.27" height="219.31"/>
          <rect class="cls-12" x="201.36" y="126.31" width="79.35" height="1.12" transform="translate(482.07 253.74) rotate(180)"/>
          <rect class="cls-12" x="201.36" y="138.25" width="79.35" height="1.12" transform="translate(482.07 277.62) rotate(180)"/>
          <rect class="cls-12" x="201.36" y="150.19" width="79.35" height="1.12" transform="translate(482.07 301.51) rotate(180)"/>
          <rect class="cls-12" x="201.36" y="162.13" width="79.35" height="1.12" transform="translate(482.07 325.39) rotate(180)"/>
          <rect class="cls-12" x="201.36" y="174.07" width="79.35" height="1.12" transform="translate(482.07 349.27) rotate(180)"/>
          <rect class="cls-12" x="201.36" y="186.02" width="79.35" height="1.12" transform="translate(482.07 373.15) rotate(180)"/>
          <rect class="cls-12" x="201.36" y="197.96" width="79.35" height="1.12" transform="translate(482.07 397.04) rotate(180)"/>
          <rect class="cls-12" x="201.36" y="209.9" width="79.35" height="1.12" transform="translate(482.07 420.92) rotate(180)"/>
          <rect class="cls-12" x="201.36" y="221.84" width="79.35" height="1.12" transform="translate(482.07 444.8) rotate(180)"/>
          <rect class="cls-12" x="201.36" y="233.78" width="79.35" height="1.12" transform="translate(482.07 468.68) rotate(180)"/>
          <rect class="cls-12" x="201.36" y="245.72" width="79.35" height="1.12" transform="translate(482.07 492.57) rotate(180)"/>
          <rect class="cls-12" x="201.36" y="257.66" width="79.35" height="1.12" transform="translate(482.07 516.45) rotate(180)"/>
          <rect class="cls-12" x="201.36" y="269.6" width="79.35" height="1.12" transform="translate(482.07 540.33) rotate(180)"/>
          <rect class="cls-12" x="201.36" y="281.55" width="79.35" height="1.12" transform="translate(482.07 564.21) rotate(180)"/>
          <rect class="cls-12" x="201.36" y="293.49" width="79.35" height="1.12" transform="translate(482.07 588.1) rotate(180)"/>
          <rect class="cls-12" x="201.36" y="305.43" width="79.35" height="1.12" transform="translate(482.07 611.98) rotate(180)"/>
          <rect class="cls-12" x="201.36" y="317.37" width="79.35" height="1.12" transform="translate(482.07 635.86) rotate(180)"/>
        </g>
        <g>
          <rect class="cls-1" x="145.2" y="61.53" width="36.87" height="265.92"/>
          <polygon class="cls-5" points="182.07 61.53 145.2 61.53 158.77 38.05 211.57 38.05 182.07 61.53"/>
          <polygon class="cls-15" points="182.07 61.53 211.57 38.05 211.57 327.45 182.07 327.45 182.07 61.53"/>
          <rect class="cls-12" x="145.2" y="73.92" width="66.37" height="1.42"/>
          <rect class="cls-12" x="145.2" y="88.97" width="66.37" height="1.42"/>
          <rect class="cls-12" x="145.2" y="104.02" width="66.37" height="1.42"/>
          <rect class="cls-12" x="145.2" y="119.07" width="66.37" height="1.42"/>
          <rect class="cls-12" x="145.2" y="134.12" width="66.37" height="1.42"/>
          <rect class="cls-12" x="145.2" y="149.18" width="66.37" height="1.42"/>
          <rect class="cls-12" x="145.2" y="164.23" width="66.37" height="1.42"/>
          <rect class="cls-12" x="145.2" y="179.28" width="66.37" height="1.42"/>
          <rect class="cls-12" x="145.2" y="194.33" width="66.37" height="1.42"/>
          <rect class="cls-12" x="145.2" y="209.38" width="66.37" height="1.42"/>
          <rect class="cls-12" x="145.2" y="224.43" width="66.37" height="1.42"/>
          <rect class="cls-12" x="145.2" y="239.49" width="66.37" height="1.42"/>
          <rect class="cls-12" x="145.2" y="254.54" width="66.37" height="1.42"/>
          <rect class="cls-12" x="145.2" y="269.59" width="66.37" height="1.42"/>
          <rect class="cls-12" x="145.2" y="284.64" width="66.37" height="1.42"/>
          <rect class="cls-12" x="145.2" y="299.69" width="66.37" height="1.42"/>
          <rect class="cls-12" x="145.2" y="314.74" width="66.37" height="1.42"/>
        </g>
        <g>
          <rect class="cls-1" x="98.55" y="190.2" width="40.25" height="137.24"/>
          <rect class="cls-13" x="106.47" y="197.3" width="6.46" height="22.03"/>
          <rect class="cls-13" x="122.32" y="197.3" width="6.46" height="22.03"/>
          <rect class="cls-13" x="106.47" y="225.82" width="6.46" height="22.03"/>
          <rect class="cls-13" x="122.32" y="225.82" width="6.46" height="22.03"/>
          <rect class="cls-13" x="106.47" y="254.35" width="6.46" height="22.03"/>
          <rect class="cls-13" x="122.32" y="254.35" width="6.46" height="22.03"/>
          <rect class="cls-13" x="106.47" y="282.87" width="6.46" height="22.03"/>
          <rect class="cls-13" x="122.32" y="282.87" width="6.46" height="22.03"/>
          <polygon class="cls-2" points="138.79 190.2 98.55 190.2 107.99 180.7 148.24 180.7 138.79 190.2"/>
          <polygon class="cls-13" points="138.79 190.2 148.24 180.7 157.68 190.2 157.68 327.45 138.79 327.45 138.79 190.2"/>
        </g>
      </g>
    </g>
  </g>
  <g id="Shadow">
    <ellipse id="_Path_" data-name="&amp;lt;Path&amp;gt;" class="cls-9" cx="250" cy="361.29" rx="193.89" ry="11.32"/>
  </g>
  <g id="Smartphone">
    <g>
      <rect class="cls-16" x="280.13" y="59.63" width="146.11" height="301.65" rx="9.29" ry="9.29"/>
      <g>
        <rect class="cls-16" x="274.35" y="59.63" width="146.11" height="301.65" rx="9.29" ry="9.29"/>
        <rect class="cls-4" x="274.35" y="59.63" width="146.11" height="301.65" rx="9.29" ry="9.29"/>
      </g>
      <g class="cls-8">
        <rect class="cls-2" x="295.77" y="59.63" width="7.91" height="301.65"/>
        <rect class="cls-2" x="382.52" y="59.63" width="4.85" height="301.65"/>
        <polygon class="cls-2" points="274.35 125.15 274.35 133.06 420.46 124 420.46 116.09 274.35 125.15"/>
        <rect class="cls-2" x="343.45" y="242.92" width="7.91" height="146.11" transform="translate(31.44 663.38) rotate(-90)"/>
        <rect class="cls-2" x="345.25" y="93.73" width="4.31" height="146.11" transform="translate(180.62 514.2) rotate(-90)"/>
        <polygon class="cls-2" points="274.35 266.61 274.35 275.66 420.46 226.23 420.46 217.17 274.35 266.61"/>
        <polygon class="cls-2" points="325.56 59.63 317.65 59.63 338.91 361.29 346.82 361.29 325.56 59.63"/>
      </g>
    </g>
  </g>
  <g id="Car">
    <g>
      <g>
        <path class="cls-16" d="m394.99,330.34h-173.94v-54.22h153.33l14.31,11.63c3.99,3.24,6.3,8.11,6.3,13.25v29.35Z"/>
        <path class="cls-6" d="m394.99,330.34h-173.94v-54.22h153.33l14.31,11.63c3.99,3.24,6.3,8.11,6.3,13.25v29.35Z"/>
      </g>
      <g>
        <path class="cls-18" d="m220.05,325.45c0-19.79,8.97-35.83,20.04-35.83h-21.26c-11.07,0-20.04,16.04-20.04,35.83s8.97,35.83,20.04,35.83h21.26c-11.07,0-20.04-16.04-20.04-35.83Z"/>
        <ellipse class="cls-18" cx="240.09" cy="325.45" rx="20.04" ry="35.83"/>
        <ellipse class="cls-2" cx="241.7" cy="325.45" rx="14.21" ry="27.94"/>
      </g>
      <g>
        <path class="cls-18" d="m104.54,325.45c0-19.79,8.97-35.83,20.04-35.83h-21.26c-11.07,0-20.04,16.04-20.04,35.83s8.97,35.83,20.04,35.83h21.26c-11.07,0-20.04-16.04-20.04-35.83Z"/>
        <ellipse class="cls-18" cx="124.58" cy="325.45" rx="20.04" ry="35.83"/>
      </g>
      <g>
        <path class="cls-18" d="m357.38,325.45c0-19.79,8.97-35.83,20.04-35.83h-21.26c-11.07,0-20.04,16.04-20.04,35.83s8.97,35.83,20.04,35.83h21.26c-11.07,0-20.04-16.04-20.04-35.83Z"/>
        <ellipse class="cls-18" cx="377.42" cy="325.45" rx="20.04" ry="35.83"/>
        <ellipse class="cls-2" cx="379.04" cy="325.45" rx="14.21" ry="27.94"/>
      </g>
      <g>
        <path class="cls-16" d="m196.37,335.45h-25.71l-1.44-1.44c-1.48-1.48-3.49-2.31-5.59-2.31h-64.26c-2.1,0-4.11.83-5.59,2.31l-.87.87h-2.34c-7.62,0-13.8-6.18-13.8-13.8v-21.19h145.83l-11.62,25.22c-2.19,6.19-8.05,10.33-14.62,10.33Z"/>
        <path class="cls-10" d="m196.37,335.45h-25.71l-1.44-1.44c-1.48-1.48-3.49-2.31-5.59-2.31h-64.26c-2.1,0-4.11.83-5.59,2.31l-.87.87h-2.34c-7.62,0-13.8-6.18-13.8-13.8v-21.19h145.83l-11.62,25.22c-2.19,6.19-8.05,10.33-14.62,10.33Z"/>
      </g>
      <path class="cls-18" d="m348.16,209.73c-.09,0-.17-.02-.25-.07-.24-.14-.32-.45-.18-.68l7-12c.14-.24.45-.32.68-.18.24.14.32.45.18.68l-7,12c-.09.16-.26.25-.43.25Z"/>
      <path class="cls-16" d="m385.08,269.42v-13.64c0-7.17-10.42-41-24.75-47.33-14.33-6.33-49-9.17-70.83-8-21.83,1.17-50.96,46.83-50.96,46.83l3.17,39.28c4.44,0,18.57-1.33,20.65,37.53.3,5.68,4.97,10.14,10.65,10.14h76.46c5.31,0,9.82-3.9,10.56-9.17,1.96-13.85,7.22-38.51,19.8-38.51,8.83,0,15.17,7.56,15.17,16.23h0c0-9.52-2.32-18.9-6.75-27.33l-3.17-6.03Z"/>
      <g>
        <path class="cls-16" d="m209.49,200.45c-39.78,0-84.83,46.83-84.83,46.83h113.87s29.13-45.67,50.96-46.83h-80Z"/>
        <path class="cls-3" d="m211.93,200.45c-33.51,0-68.64,33.23-78.89,43.71-1.14,1.17-.32,3.12,1.31,3.12h91.86c7.48,0,14.54-3.54,18.96-9.58,9.87-13.46,28.91-36.43,44.31-37.26h-77.56Z"/>
      </g>
      <path class="cls-16" d="m238.53,247.29l-42.07,33.19-113.19-.36s-6.5,9.44-6.5,19.78h145.83c2.39-6.33,10.76-13.33,19.1-13.33,0-11.78-3.17-39.28-3.17-39.28Z"/>
      <path class="cls-10" d="m211,270.7c-.24,0-.46-.18-.49-.42-.04-.27.15-.53.42-.57,12.4-1.88,21.69-7.94,27.3-12.7,3.18-2.69,3.8-7.31,1.45-10.74-.16-.23-.1-.54.13-.69.23-.16.54-.1.69.13,2.64,3.85,1.94,9.04-1.63,12.07-5.71,4.84-15.16,11.01-27.79,12.92-.03,0-.05,0-.08,0Z"/>
      <path class="cls-16" d="m83.28,280.12s19.88-23.17,41.38-32.83h113.87l-42.07,33.19-113.19-.36Z"/>
      <rect class="cls-18" x="96.66" y="280.12" width="74.67" height="2.17"/>
      <path class="cls-2" d="m169.78,275.78l4.01-4.01c.9-.9,2.04-1.52,3.28-1.79l30.21-6.58c1.06-.23,2.16-.2,3.21.1l1.61.45c4.7,1.32,6.41,7.09,3.2,10.76l-6.49,7.42c-1.12,1.28-2.69,2.08-4.38,2.24l-29.35,2.72c-1.96.18-3.9-.52-5.3-1.91h0c-2.6-2.59-2.61-6.8,0-9.4Z"/>
      <path class="cls-2" d="m98.77,277.9l-3.32-6.19c-.47-.87-1.16-1.59-2-2.1h0c-1.63-.98-3.65-1.04-5.34-.15l-2.51,1.32c-1.24.65-2.18,1.75-2.63,3.08l-1.54,4.53c-1.08,3.17.94,6.56,4.24,7.13l6.91,1.19c2.31.4,4.62-.72,5.73-2.79l.46-.85c.87-1.61.87-3.55,0-5.17Z"/>
      <path class="cls-3" d="m261.79,248.62h105.28c3.84,0,6.58-3.69,5.48-7.37-2.39-8.01-7.01-20.51-13.91-26.89-.77-.71-1.71-1.18-2.73-1.4-12.41-2.63-32.36-4.38-47.16-5.4-13.58-.93-26.87,4.12-36.41,13.83-5.02,5.12-10.44,11.38-15.19,18.53-2.47,3.72.18,8.69,4.64,8.69Z"/>
      <path class="cls-18" d="m193.72,311.62c0,3.28-3.36,5.94-7.5,5.94s-7.5-2.66-7.5-5.94,3.36-5.94,7.5-5.94,7.5,2.66,7.5,5.94Z"/>
      <path class="cls-18" d="m133.29,275.58c2.46,0,3.66,2.52,2.68,5.62-.98,3.11-3.77,5.62-6.23,5.62s-3.66-2.52-2.68-5.62c.98-3.11,3.77-5.62,6.23-5.62Z"/>
      <path class="cls-18" d="m82.83,311.62c0,3.28-.95,5.94-2.11,5.94s-2.11-2.66-2.11-5.94.95-5.94,2.11-5.94,2.11,2.66,2.11,5.94Z"/>
      <path class="cls-18" d="m258.55,247.67v-3.37c0-4.13,3.79-7.21,7.83-6.37l12.82,2.67c3.02.63,5.18,3.29,5.18,6.37v.7c0,3.59-2.91,6.51-6.51,6.51h-12.82c-3.59,0-6.51-2.91-6.51-6.51Z"/>
      <path class="cls-18" d="m326,208.96s-1.71-.17-4.69-.43c13.19,27.01,9.83,40.1,9.83,40.1h10.06c.1-16.44-15.19-39.66-15.19-39.66Z"/>
      <path class="cls-11" d="m214.84,236.53c-.43,4.4-4.12,7.75-8.54,7.75h-51.82c-3.78,0-5.15-4.21-2.42-7.36,5.26-6.05,10.92-11.35,16.06-15.68,9.76-8.22,21.88-12.49,33.21-11.7,1.38.1,2.81.2,4.29.31,3.79.29,6.94,3.05,7.73,6.77,1.86,8.71,1.93,15.33,1.49,19.9Z"/>
      <path class="cls-10" d="m332.33,327.12c-.28,0-.5-.22-.5-.5,0-10.12,5.16-51.85,6.51-58.11,1.31-6.07,1.32-12.84,0-17.25-.08-.26.07-.54.34-.62.26-.08.54.07.62.34,1.35,4.56,1.35,11.53,0,17.75-1.35,6.24-6.49,47.81-6.49,57.89,0,.28-.22.5-.5.5Z"/>
      <path class="cls-10" d="m331,269.01h-12.19c-1.02,0-1.7-.83-1.52-1.85l.25-1.42c.18-1.02,1.16-1.85,2.17-1.85h12.19c1.02,0,1.7.83,1.52,1.85l-.25,1.42c-.18,1.02-1.16,1.85-2.17,1.85Z"/>
    </g>
  </g>
  <g id="Pin">
    <g>
      <path class="cls-16" d="m367.88,117.53h-1c0-2.56-.37-5.09-1.09-7.52l.96-.29c.75,2.52,1.13,5.15,1.13,7.8Zm-4.31-12.78c-4.67-8.38-13.5-13.58-23.06-13.58v-1c9.92,0,19.1,5.4,23.94,14.1l-.87.49Z"/>
      <path class="cls-16" d="m340.5,93.66c-13.18,0-23.87,10.69-23.87,23.87,0,22.99,23.87,38.76,23.87,38.76,0,0,23.88-15.77,23.88-38.76,0-13.18-10.69-23.87-23.88-23.87Zm0,35.11c-6.15,0-11.14-4.99-11.14-11.14s4.99-11.14,11.14-11.14,11.15,4.98,11.15,11.14-4.99,11.14-11.15,11.14Z"/>
    </g>
  </g>
  <g id="Character">
    <g>
      <polygon class="cls-14" points="297.97 359.76 304.01 359.67 305.75 345.67 299.72 345.76 297.97 359.76"/>
      <polygon class="cls-14" points="326.8 359.32 332.66 357.52 329.02 344.26 323.16 346.05 326.8 359.32"/>
      <path class="cls-18" d="m332.48,355.77l-6.54,3.37c-.22.11-.33.36-.27.6l1.4,5.31c.15.55.78.82,1.28.55,2.08-1.12,3.56-2.04,6.21-3.4,1.63-.84,6.63-3.21,8.88-4.37,2.2-1.14,1.4-3.54.37-3.27-4.6,1.23-8.36,1.59-10.29,1.08-.35-.09-.72-.05-1.04.12Z"/>
      <path class="cls-18" d="m304.13,358.97l-6.59.1c-.25,0-.46.18-.51.42l-1.11,5.38c-.11.56.32,1.08.89,1.06,2.38-.08,5.81-.27,8.8-.32,3.49-.05,4.51.09,8.6.02,2.48-.04,3.13-2.55,2.09-2.76-4.74-.96-6.59-1.01-10.71-3.46-.45-.27-.94-.46-1.46-.45Z"/>
      <path class="cls-14" d="m313.3,176.1c1.37,2.75,2.91,5.66,4.47,8.42,1.57,2.78,3.19,5.53,4.94,8.12.45.63.87,1.3,1.33,1.92l1.12,1.54c.24.3.37.45.4.52.03.07.06.16.35.18.57.04,1.78-.56,2.86-1.4.55-.42,1.11-.9,1.66-1.41.54-.5,1.1-1.1,1.57-1.58l3.95,2.22c-.36.96-.74,1.73-1.18,2.57-.44.83-.94,1.63-1.53,2.42-.59.79-1.27,1.55-2.1,2.28-.83.73-1.85,1.41-3.17,1.89-1.3.49-3,.65-4.56.25-1.57-.39-2.87-1.19-3.82-2.04-.27-.21-.46-.43-.68-.65l-.32-.33-.23-.26-.88-1.01c-.59-.67-1.13-1.36-1.69-2.04-2.17-2.77-4.11-5.65-5.9-8.6-.88-1.48-1.75-2.97-2.55-4.49-.81-1.54-1.58-3.01-2.32-4.69l8.3-3.84Z"/>
      <g>
        <path class="cls-16" d="m302.48,176.14c-1.63,5.54,9.83,20.63,9.83,20.63l11.55-7.43s-3.39-7.7-8-13.57c-4.73-6.03-11.59-5.7-13.38.38Z"/>
        <g class="cls-10">
          <path d="m302.48,176.14c-1.63,5.54,9.83,20.63,9.83,20.63l11.55-7.43s-3.39-7.7-8-13.57c-4.73-6.03-11.59-5.7-13.38.38Z"/>
        </g>
      </g>
      <path class="cls-10" d="m309.52,182.64c2.38,1.02,5.87,6.74,7.69,10.98l-4.9,3.15s-4.41-5.81-7.37-11.55c1.55-1.7,3.32-3.11,4.58-2.58Z"/>
      <path class="cls-14" d="m331.32,193.51l4.18-6.76,3.64,5.82s-1.34,2.55-4.02,3.29l-3.8-2.35Z"/>
      <path class="cls-14" d="m341.33,186.82v2.09c-.02.65-.25,1.28-.66,1.79l-1.53,1.88-3.64-5.82,3.77-1.38c1-.37,2.06.38,2.06,1.45Z"/>
      <polygon class="cls-16" points="337.25 195.46 330.67 195.36 334.31 181.73 340.89 181.83 337.25 195.46"/>
      <polygon class="cls-18" points="337.92 195.46 331.34 195.36 334.98 181.73 341.56 181.83 337.92 195.46"/>
      <polygon class="cls-10" points="305.75 345.67 304.85 352.89 298.82 352.98 299.71 345.77 305.75 345.67"/>
      <polygon class="cls-10" points="323.16 346.06 329.03 344.26 330.9 351.1 325.03 352.9 323.16 346.06"/>
      <g>
        <path class="cls-16" d="m276.95,179.07c4.93,21.22,3.85,42.27,4.39,46.81,4.72-.34,22.5-1.67,32.19-2.39,3.09-34.49-4.23-52-4.23-52,0,0-2.07-.4-4.88-.69-.88-.09-1.84-.17-2.83-.22-.55-.03-1.1-.05-1.67-.06-3.64-.06-9.59.52-13.69,1.02-.86.11-1.73.24-2.58.37-.78.13-1.55.28-2.28.42-.03,0-.07.01-.1.02-3.08.62-5.05,3.67-4.34,6.73Z"/>
        <g class="cls-10">
          <path d="m276.95,179.07c4.93,21.22,3.85,42.27,4.39,46.81,4.72-.34,22.5-1.67,32.19-2.39,3.09-34.49-4.23-52-4.23-52,0,0-2.07-.4-4.88-.69-.88-.09-1.84-.17-2.83-.22-.55-.03-1.1-.05-1.67-.06-3.64-.06-9.59.52-13.69,1.02-.86.11-1.73.24-2.58.37-.78.13-1.55.28-2.28.42-.03,0-.07.01-.1.02-3.08.62-5.05,3.67-4.34,6.73Z"/>
        </g>
      </g>
      <path class="cls-10" d="m282.45,183.53l-3.69,4.75c.01.06.02.11.02.17.51,3.22.92,6.38,1.21,9.41,3.53-4.37,3-12.26,2.46-14.34Z"/>
      <path class="cls-14" d="m287.85,162.11c.77,3.24.72,6.84-1.6,9.42,2.57,2.2,5.9,4.72,11.15,4.51,5.24-.21,4.06-3.73,2.54-5.53-4.48-.72-4.49-3.63-4.52-6.83,0-.67-.44-1.25-1.07-1.46l-4.92-1.58c-.92-.29-1.79.53-1.57,1.46Z"/>
      <path class="cls-16" d="m302.04,196.72c-2.7,0-5.19-3.24-5.68-7.38-.3-2.55.25-4.91,1.49-6.3.71-.8,1.59-1.22,2.56-1.22h0c2.7,0,5.19,3.24,5.68,7.38.3,2.55-.25,4.91-1.49,6.3-.71.8-1.59,1.22-2.56,1.22h0Zm-1.62-13.9h0c-.68,0-1.29.3-1.81.89-1.03,1.16-1.5,3.27-1.24,5.51.42,3.52,2.56,6.5,4.68,6.5h0c.68,0,1.29-.3,1.81-.89,1.03-1.16,1.51-3.27,1.24-5.52h0c-.41-3.52-2.56-6.5-4.68-6.5Z"/>
      <path class="cls-10" d="m295.42,163.86l-4.95.64c.11.22.25.43.38.64.94,1.5,3.02,2.49,5.14,2.85-.53-1.16-.56-2.61-.58-4.12Z"/>
      <path class="cls-18" d="m301.84,151c2.75.46,7.9-2.66,6.7-6.82-1.54,1.93-6.7,1.29-6.7,1.29v5.54Z"/>
      <path class="cls-18" d="m291.1,155.45c.3,2.78-3.13,7.72-7.21,6.28,2.02-1.43,1.68-6.61,1.68-6.61l5.53.33Z"/>
      <path class="cls-14" d="m287.07,150.03c-.74,5.94-1.47,9.39.93,12.96,3.62,5.37,11.37,4.04,13.87-1.56,2.25-5.04,3.08-13.92-2.23-17.33-5.24-3.36-11.83,0-12.57,5.94Z"/>
      <path class="cls-18" d="m286.25,156c1.45,1.53,5.44-4.71,4.71-6.94,1.5.65,4.38-.6,4.2-3.09,4.49,2.4,10.99,4.3,11.1-.04.11-4.35-4-7.54-8.02-7.89.48,1.29-.79,1.84-3.4,1.29-2.61-.56-12.68-5.17-11.56,4.07-3.74.25-4.24,5.01,2.97,12.6Z"/>
      <path class="cls-14" d="m283.31,153.74c.21,1.6,1.14,2.96,2.2,3.75,1.6,1.19,2.6-.07,2.75-1.96.14-1.7-.01-4.36-1.91-4.81-1.87-.44-3.28,1.19-3.04,3.02Z"/>
      <path class="cls-18" d="m292.38,225.06l21.16-1.57s2.73,43.43,2.53,61.85c-.21,19.15-8.97,66.13-8.97,66.13l-10.22.16s.81-45.56.81-64.37c0-25.33-5.31-62.19-5.31-62.19"/>
      <path class="cls-10" d="m300.56,270.2c.28,1.25,8.15,36.46,10.69,57.02,1.36-8.55,2.75-18.13,3.68-26.6l-14.37-30.43Z"/>
      <path class="cls-18" d="m302.12,224.33s16.1,39.46,19.74,56.77c3.98,18.95,10.34,66.88,10.34,66.88l-10.92,1.71s-8.28-35.83-12.9-54.14c-5.27-20.85-26.12-53.89-27.03-69.68l20.77-1.55Z"/>
      <polygon class="cls-16" points="333.58 348.92 320 352.09 318.29 346.87 333.12 344.33 333.58 348.92"/>
      <polygon class="cls-16" points="308.39 351.68 296.21 351.87 296.15 347.93 309.76 347.51 308.39 351.68"/>
      <path class="cls-18" d="m295.35,153.13c-.09.48.09.91.4.97.31.06.64-.28.73-.76.09-.48-.09-.91-.4-.97-.31-.06-.64.28-.73.76Z"/>
      <path class="cls-18" d="m301.27,154.38c-.09.48.09.91.4.97s.64-.28.73-.76c.09-.48-.09-.91-.4-.97-.31-.06-.64.28-.73.76Z"/>
      <path class="cls-17" d="m299.32,154.27s.57,2.96,1.52,4.52c-.99.63-2.37,0-2.37,0l.85-4.52Z"/>
      <path class="cls-18" d="m297.46,160.26c-1.82-.41-2.56-1.77-2.6-1.83-.04-.07-.01-.16.06-.19.07-.04.16-.01.19.06,0,.02.88,1.59,3,1.78.08,0,.14.08.13.16,0,.08-.08.14-.16.13-.22-.02-.43-.05-.63-.1Z"/>
      <path class="cls-18" d="m294.76,150.98s-.09-.04-.12-.08c-.11-.12-.1-.3.02-.4,1.17-1.06,2.45-.75,2.5-.73.15.04.24.2.2.35-.04.15-.2.24-.35.2h0s-1.04-.25-1.98.6c-.08.07-.19.09-.28.06Z"/>
      <path class="cls-18" d="m304.46,152.9c-.09-.03-.16-.1-.19-.2-.33-1.22-1.31-1.55-1.35-1.57-.15-.05-.23-.21-.18-.36.05-.15.21-.23.36-.18.05.02,1.31.43,1.72,1.96.04.15-.05.31-.2.35-.06.02-.11.01-.16,0Z"/>
      <g>
        <path class="cls-16" d="m334.74,355.79c-.5.26-1.08.43-1.5.53-.06.01-.11,0-.15-.05-.03-.05-.04-.11,0-.16.13-.22,1.31-2.18,2.06-2.18.12,0,.28.04.4.25.16.27.19.55.08.81-.14.33-.48.6-.89.81Zm-1.23.16c1-.29,1.69-.68,1.85-1.08.07-.17.05-.35-.07-.55-.06-.1-.11-.11-.16-.11-.39,0-1.14.97-1.63,1.74Z"/>
        <path class="cls-16" d="m333.27,356.31s-.05.02-.08.02c-.05,0-.1-.04-.12-.09-.03-.07-.7-1.68-.34-2.51.09-.22.25-.37.46-.44h0c.32-.12.5.03.58.12.42.54-.04,2.27-.44,2.86-.01.02-.03.04-.05.05Zm-.04-2.73c-.1.05-.18.14-.23.26-.23.53.06,1.52.23,2.01.34-.7.56-1.94.31-2.26-.02-.03-.08-.1-.25-.03h0s-.04.02-.06.03Z"/>
        <path class="cls-16" d="m304.74,359.8c-.05-.02-.09-.06-.1-.11,0-.06.02-.12.07-.15.27-.15,2.68-1.41,3.42-1.02.14.08.23.21.24.38h0c.03.28-.06.52-.26.7-.65.6-2.39.39-3.36.21,0,0-.01,0-.02,0Zm3.21-1.05c-.46-.15-1.76.37-2.71.84,1.34.2,2.33.13,2.69-.21.13-.12.18-.27.17-.46,0-.07-.03-.12-.09-.15-.02,0-.03-.02-.05-.02Z"/>
        <path class="cls-16" d="m304.74,359.8s-.03-.01-.04-.02c-.04-.03-.07-.08-.06-.13,0-.07.14-1.7.9-2.34.23-.2.5-.28.79-.26h0c.39.03.51.23.54.39.12.68-1.3,2.01-2.02,2.35-.03.02-.07.02-.11,0Zm1.71-2.43s-.09-.02-.15-.03h0c-.22-.02-.41.04-.58.19-.5.42-.7,1.4-.77,1.87.74-.46,1.7-1.5,1.63-1.91,0-.03-.02-.09-.13-.13Zm-.13-.17h0s0,0,0,0Z"/>
      </g>
      <g>
        <path class="cls-14" d="m286.61,180.93c-1.99,3.55-4,7.34-5.8,11.07-1.82,3.74-3.47,7.54-4.66,11.29-.15.47-.26.92-.39,1.39-.06.21-.15.51-.18.65-.02.12-.07.22-.08.35-.08.5-.08,1.15.06,1.89.28,1.48,1.02,3.2,1.95,4.87,1.89,3.35,4.53,6.73,7.22,9.79l-2.9,3.49c-3.83-2.6-7.21-5.55-10.18-9.36-1.45-1.93-2.82-4.05-3.67-6.76-.42-1.35-.71-2.87-.63-4.53.01-.41.08-.84.13-1.25.06-.39.12-.62.17-.94.12-.59.23-1.19.36-1.77,1.11-4.6,2.72-8.84,4.54-12.94,1.84-4.12,3.85-8,6.2-11.92l7.86,4.68Z"/>
        <g>
          <path class="cls-16" d="m280.33,172.74c-5.57,1.52-11.03,17.17-11.03,17.17l13.4,3.72s2.95-3.74,5.58-10.72c2.86-7.6-1.21-12.02-7.95-10.17Z"/>
          <g class="cls-10">
            <path d="m280.33,172.74c-5.57,1.52-11.03,17.17-11.03,17.17l13.4,3.72s2.95-3.74,5.58-10.72c2.86-7.6-1.21-12.02-7.95-10.17Z"/>
          </g>
        </g>
        <path class="cls-14" d="m282.16,221.19l6.12,1.61-2.43,5.75s-5.49-1.16-5.46-4.16l1.77-3.21Z"/>
        <polygon class="cls-14" points="290.63 226.7 288.82 231.25 285.85 228.55 288.28 222.8 290.63 226.7"/>
      </g>
    </g>
  </g>
</svg>