<?xml version="1.0" encoding="UTF-8"?>
<svg xmlns="http://www.w3.org/2000/svg" viewBox="0 0 707.74 438.76">
  <defs>
    <style>
      .cls-1, .cls-2, .cls-3, .cls-4, .cls-5, .cls-6, .cls-7, .cls-8, .cls-9, .cls-10, .cls-11 {
        stroke: #263238;
      }

      .cls-1, .cls-3, .cls-4, .cls-8, .cls-11 {
        stroke-miterlimit: 10;
      }

      .cls-1, .cls-7, .cls-12, .cls-13 {
        fill: #fff;
      }

      .cls-2 {
        fill: #348ac7;
      }

      .cls-2, .cls-4, .cls-5, .cls-6, .cls-7, .cls-9, .cls-10 {
        stroke-linecap: round;
      }

      .cls-2, .cls-5, .cls-6, .cls-7, .cls-9, .cls-10 {
        stroke-linejoin: round;
      }

      .cls-3, .cls-10, .cls-14 {
        fill: #263238;
      }

      .cls-4, .cls-8, .cls-9 {
        fill: none;
      }

      .cls-15 {
        fill: #348ac7;
        opacity: .8;
      }

      .cls-5 {
        fill: #787878;
      }

      .cls-6 {
        fill: #348ac7;
      }

      .cls-16 {
        fill: #92e3a9;
      }

      .cls-12 {
        opacity: .58;
      }

      .cls-13 {
        opacity: .31;
      }

      .cls-11 {
        fill: #b2b2b2;
      }
    </style>
  </defs>
  <g id="Background_Simple" data-name="Background Simple">
    <g>
      <path class="cls-16" d="m666.68,335.31c17.26-31.96,19.81-68.47,15.76-103.71-3.59-31.26-9.01-67.12-24.17-95.33-38.4-71.48-135.47-105.02-214.29-83.53-32.87,8.96-55.93,29.75-82.33,49.52-19.51,14.62-40.93,28.9-66.14,31.82-60.39,7-129.12-50-186.39-45C51.85,94.08,7.07,145.08,4.99,189.08c-2.08,44,41.65,89,37.49,119-4.17,30-31.24,110,76.01,113s163.48-57,205.13-44c41.65,13,133.28,51,210.34,41,50.27-6.52,99.42-31.21,126.97-73.14,2.08-3.16,3.99-6.37,5.75-9.62Z"/>
      <path class="cls-15" d="m666.68,335.31c17.26-31.96,19.81-68.47,15.76-103.71-3.59-31.26-9.01-67.12-24.17-95.33-38.4-71.48-135.47-105.02-214.29-83.53-32.87,8.96-55.93,29.75-82.33,49.52-19.51,14.62-40.93,28.9-66.14,31.82-60.39,7-129.12-50-186.39-45C51.85,94.08,7.07,145.08,4.99,189.08c-2.08,44,41.65,89,37.49,119-4.17,30-31.24,110,76.01,113s163.48-57,205.13-44c41.65,13,133.28,51,210.34,41,50.27-6.52,99.42-31.21,126.97-73.14,2.08-3.16,3.99-6.37,5.75-9.62Z"/>
    </g>
  </g>
  <g id="Floor">
    <line class="cls-9" x1="1.72" y1="438.26" x2="700.9" y2="438.26"/>
  </g>
  <g id="Clouds">
    <path class="cls-4" d="m275.76,11.17s-3.26-8.7-10.88-10.33c-7.61-1.63-10.61,2.99-12.24,6.8-1.63,3.81-6.53.82-10.61.27s-6.26,3.54-7.07,6.53c-.82,2.99-5.98-1.36-10.61,1.36-4.62,2.72-5.44,6.26-6.53,7.07s-4.08-.54-5.71,1.63l-1.63,2.18h85.12s2.72-6.26-2.45-10.88c-5.17-4.62-14.14,2.45-17.41-4.62Z"/>
    <path class="cls-4" d="m510.74,19.22s-5.72-15.27-19.08-18.13c-13.36-2.86-18.61,5.25-21.47,11.93-2.86,6.68-11.45,1.43-18.61.48-7.16-.95-10.97,6.2-12.4,11.45-1.43,5.25-10.5-2.39-18.61,2.39-8.11,4.77-9.54,10.97-11.45,12.4-1.91,1.43-7.16-.95-10.02,2.86l-2.86,3.82h149.32s4.77-10.97-4.29-19.08c-9.06-8.11-24.81,4.29-30.53-8.11Z"/>
    <path class="cls-4" d="m128.84,45.1s-2.25-6-7.5-7.12c-5.25-1.12-7.31,2.06-8.44,4.69-1.12,2.62-4.5.56-7.31.19-2.81-.37-4.31,2.44-4.87,4.5-.56,2.06-4.12-.94-7.31.94-3.19,1.87-3.75,4.31-4.5,4.87-.75.56-2.81-.37-3.94,1.12l-1.12,1.5h58.67s1.87-4.31-1.69-7.5c-3.56-3.19-9.75,1.69-12-3.19Z"/>
    <path class="cls-4" d="m555.89,70.66s-2.25-6-7.5-7.12c-5.25-1.12-7.31,2.06-8.44,4.69-1.12,2.62-4.5.56-7.31.19-2.81-.38-4.31,2.44-4.87,4.5-.56,2.06-4.12-.94-7.31.94-3.19,1.87-3.75,4.31-4.5,4.87-.75.56-2.81-.37-3.94,1.12l-1.12,1.5h58.67s1.87-4.31-1.69-7.5c-3.56-3.19-9.75,1.69-12-3.19Z"/>
  </g>
  <g id="Buildings">
    <g>
      <polyline class="cls-4" points="46.57 271.21 76.15 271.21 76.15 181.54 102.2 181.54 102.2 139.64 151.49 139.64 151.49 222.7 164.17 222.7 164.17 61.61 218.39 61.61 218.39 132.29 252.19 132.29 252.19 71.28 309.93 71.28 309.93 208.73 388.8 208.73 388.8 126.6 440.31 126.6 440.31 209.47 471.89 209.47 471.89 219.02 491.6 219.02 491.6 154.94 504.98 154.94 504.98 219.02 514.14 219.02 514.14 151.4 528.93 151.4 528.93 216.08 547.23 216.08 547.23 107.3 580.33 107.3 580.33 178.6 599.34 178.6 599.34 72.02 645.82 72.02 645.82 287.38"/>
      <g>
        <rect class="cls-4" x="83.89" y="196.24" width="5.63" height="7.35"/>
        <rect class="cls-4" x="93.05" y="196.24" width="5.63" height="7.35"/>
        <rect class="cls-4" x="102.2" y="196.24" width="5.63" height="7.35"/>
        <rect class="cls-4" x="111.36" y="196.24" width="5.63" height="7.35"/>
        <rect class="cls-4" x="120.51" y="196.24" width="5.63" height="7.35"/>
        <rect class="cls-4" x="129.66" y="196.24" width="5.63" height="7.35"/>
      </g>
      <g>
        <rect class="cls-4" x="172.62" y="141.85" width="5.63" height="7.35"/>
        <rect class="cls-4" x="181.77" y="141.85" width="5.63" height="7.35"/>
        <rect class="cls-4" x="190.93" y="141.85" width="5.63" height="7.35"/>
        <rect class="cls-4" x="200.08" y="141.85" width="5.63" height="7.35"/>
        <rect class="cls-4" x="172.62" y="128.61" width="5.63" height="7.35"/>
        <rect class="cls-4" x="181.77" y="128.61" width="5.63" height="7.35"/>
        <rect class="cls-4" x="190.93" y="128.61" width="5.63" height="7.35"/>
        <rect class="cls-4" x="200.08" y="128.61" width="5.63" height="7.35"/>
        <rect class="cls-4" x="172.62" y="115.38" width="5.63" height="7.35"/>
        <rect class="cls-4" x="181.77" y="115.38" width="5.63" height="7.35"/>
        <rect class="cls-4" x="190.93" y="115.38" width="5.63" height="7.35"/>
        <rect class="cls-4" x="200.08" y="115.38" width="5.63" height="7.35"/>
        <rect class="cls-4" x="172.62" y="102.15" width="5.63" height="7.35"/>
        <rect class="cls-4" x="181.77" y="102.15" width="5.63" height="7.35"/>
        <rect class="cls-4" x="190.93" y="102.15" width="5.63" height="7.35"/>
        <rect class="cls-4" x="200.08" y="102.15" width="5.63" height="7.35"/>
        <rect class="cls-4" x="172.62" y="88.92" width="5.63" height="7.35"/>
        <rect class="cls-4" x="181.77" y="88.92" width="5.63" height="7.35"/>
        <rect class="cls-4" x="190.93" y="88.92" width="5.63" height="7.35"/>
        <rect class="cls-4" x="200.08" y="88.92" width="5.63" height="7.35"/>
        <rect class="cls-4" x="209.23" y="141.85" width="5.63" height="7.35"/>
        <rect class="cls-4" x="218.39" y="141.85" width="5.63" height="7.35"/>
      </g>
      <g>
        <rect class="cls-4" x="172.62" y="156.55" width="5.63" height="7.35"/>
        <rect class="cls-4" x="181.77" y="156.55" width="5.63" height="7.35"/>
        <rect class="cls-4" x="190.93" y="156.55" width="5.63" height="7.35"/>
        <rect class="cls-4" x="200.08" y="156.55" width="5.63" height="7.35"/>
        <rect class="cls-4" x="209.23" y="156.55" width="5.63" height="7.35"/>
        <rect class="cls-4" x="218.39" y="156.55" width="5.63" height="7.35"/>
      </g>
      <g>
        <rect class="cls-4" x="83.89" y="211.67" width="5.63" height="7.35"/>
        <rect class="cls-4" x="93.05" y="211.67" width="5.63" height="7.35"/>
        <rect class="cls-4" x="102.2" y="211.67" width="5.63" height="7.35"/>
        <rect class="cls-4" x="111.36" y="211.67" width="5.63" height="7.35"/>
        <rect class="cls-4" x="120.51" y="211.67" width="5.63" height="7.35"/>
        <rect class="cls-4" x="129.66" y="211.67" width="5.63" height="7.35"/>
      </g>
      <g>
        <rect class="cls-4" x="83.89" y="227.11" width="5.63" height="7.35"/>
        <rect class="cls-4" x="93.05" y="227.11" width="5.63" height="7.35"/>
        <rect class="cls-4" x="102.2" y="227.11" width="5.63" height="7.35"/>
        <rect class="cls-4" x="111.36" y="227.11" width="5.63" height="7.35"/>
        <rect class="cls-4" x="120.51" y="227.11" width="5.63" height="7.35"/>
        <rect class="cls-4" x="129.66" y="227.11" width="5.63" height="7.35"/>
      </g>
      <g>
        <rect class="cls-4" x="83.89" y="242.54" width="5.63" height="7.35"/>
        <rect class="cls-4" x="93.05" y="242.54" width="5.63" height="7.35"/>
        <rect class="cls-4" x="102.2" y="242.54" width="5.63" height="7.35"/>
        <rect class="cls-4" x="111.36" y="242.54" width="5.63" height="7.35"/>
        <rect class="cls-4" x="120.51" y="242.54" width="5.63" height="7.35"/>
        <rect class="cls-4" x="129.66" y="242.54" width="5.63" height="7.35"/>
      </g>
      <g>
        <rect class="cls-4" x="83.89" y="257.98" width="5.63" height="7.35"/>
        <rect class="cls-4" x="93.05" y="257.98" width="5.63" height="7.35"/>
        <rect class="cls-4" x="102.2" y="257.98" width="5.63" height="7.35"/>
        <rect class="cls-4" x="111.36" y="257.98" width="5.63" height="7.35"/>
        <rect class="cls-4" x="120.51" y="257.98" width="5.63" height="7.35"/>
        <rect class="cls-4" x="129.66" y="257.98" width="5.63" height="7.35"/>
      </g>
      <rect class="cls-4" x="616.95" y="87.45" width="5.63" height="7.35"/>
      <rect class="cls-4" x="626.1" y="87.45" width="5.63" height="7.35"/>
      <rect class="cls-4" x="635.25" y="87.45" width="5.63" height="7.35"/>
      <rect class="cls-4" x="616.95" y="105.83" width="5.63" height="7.35"/>
      <rect class="cls-4" x="626.1" y="105.83" width="5.63" height="7.35"/>
      <rect class="cls-4" x="635.25" y="105.83" width="5.63" height="7.35"/>
      <rect class="cls-4" x="616.95" y="124.2" width="5.63" height="7.35"/>
      <rect class="cls-4" x="626.1" y="124.2" width="5.63" height="7.35"/>
      <rect class="cls-4" x="635.25" y="124.2" width="5.63" height="7.35"/>
      <rect class="cls-4" x="616.95" y="142.58" width="5.63" height="7.35"/>
      <rect class="cls-4" x="626.1" y="142.58" width="5.63" height="7.35"/>
      <rect class="cls-4" x="635.25" y="142.58" width="5.63" height="7.35"/>
      <rect class="cls-4" x="616.95" y="160.96" width="5.63" height="7.35"/>
      <rect class="cls-4" x="626.1" y="160.96" width="5.63" height="7.35"/>
      <rect class="cls-4" x="635.25" y="160.96" width="5.63" height="7.35"/>
      <rect class="cls-4" x="616.95" y="179.33" width="5.63" height="7.35"/>
      <rect class="cls-4" x="626.1" y="179.33" width="5.63" height="7.35"/>
      <rect class="cls-4" x="635.25" y="179.33" width="5.63" height="7.35"/>
      <rect class="cls-4" x="616.95" y="197.71" width="5.63" height="7.35"/>
      <rect class="cls-4" x="626.1" y="197.71" width="5.63" height="7.35"/>
      <rect class="cls-4" x="635.25" y="197.71" width="5.63" height="7.35"/>
      <rect class="cls-4" x="616.95" y="216.08" width="5.63" height="7.35"/>
      <rect class="cls-4" x="626.1" y="216.08" width="5.63" height="7.35"/>
      <rect class="cls-4" x="635.25" y="216.08" width="5.63" height="7.35"/>
      <rect class="cls-4" x="616.95" y="234.46" width="5.63" height="7.35"/>
      <rect class="cls-4" x="626.1" y="234.46" width="5.63" height="7.35"/>
      <rect class="cls-4" x="557.01" y="124.2" width="5.63" height="7.35"/>
      <rect class="cls-4" x="566.17" y="124.2" width="5.63" height="7.35"/>
      <rect class="cls-4" x="557.01" y="142.58" width="5.63" height="7.35"/>
      <rect class="cls-4" x="566.17" y="142.58" width="5.63" height="7.35"/>
      <rect class="cls-4" x="557.01" y="160.96" width="5.63" height="7.35"/>
      <rect class="cls-4" x="566.17" y="160.96" width="5.63" height="7.35"/>
      <rect class="cls-4" x="557.01" y="179.33" width="5.63" height="7.35"/>
      <rect class="cls-4" x="566.17" y="179.33" width="5.63" height="7.35"/>
      <rect class="cls-4" x="557.01" y="197.71" width="5.63" height="7.35"/>
      <rect class="cls-4" x="566.17" y="197.71" width="5.63" height="7.35"/>
      <rect class="cls-4" x="557.01" y="216.08" width="5.63" height="7.35"/>
      <rect class="cls-4" x="566.17" y="216.08" width="5.63" height="7.35"/>
      <rect class="cls-4" x="557.01" y="234.46" width="5.63" height="7.35"/>
      <rect class="cls-4" x="566.17" y="234.46" width="5.63" height="7.35"/>
      <rect class="cls-4" x="395.68" y="142.58" width="5.63" height="7.35"/>
      <rect class="cls-4" x="404.83" y="142.58" width="5.63" height="7.35"/>
      <rect class="cls-4" x="395.68" y="160.96" width="5.63" height="7.35"/>
      <rect class="cls-4" x="404.83" y="160.96" width="5.63" height="7.35"/>
      <rect class="cls-4" x="395.68" y="179.33" width="5.63" height="7.35"/>
      <rect class="cls-4" x="404.83" y="179.33" width="5.63" height="7.35"/>
      <rect class="cls-4" x="395.68" y="197.71" width="5.63" height="7.35"/>
      <rect class="cls-4" x="404.83" y="197.71" width="5.63" height="7.35"/>
      <rect class="cls-4" x="395.68" y="216.08" width="5.63" height="7.35"/>
      <rect class="cls-4" x="404.83" y="216.08" width="5.63" height="7.35"/>
      <rect class="cls-4" x="395.68" y="234.46" width="5.63" height="7.35"/>
      <rect class="cls-4" x="404.83" y="234.46" width="5.63" height="7.35"/>
      <rect class="cls-4" x="416.41" y="142.58" width="5.63" height="7.35"/>
      <rect class="cls-4" x="425.56" y="142.58" width="5.63" height="7.35"/>
      <rect class="cls-4" x="416.41" y="160.96" width="5.63" height="7.35"/>
      <rect class="cls-4" x="425.56" y="160.96" width="5.63" height="7.35"/>
      <rect class="cls-4" x="416.41" y="179.33" width="5.63" height="7.35"/>
      <rect class="cls-4" x="425.56" y="179.33" width="5.63" height="7.35"/>
      <rect class="cls-4" x="416.41" y="197.71" width="5.63" height="7.35"/>
      <rect class="cls-4" x="425.56" y="197.71" width="5.63" height="7.35"/>
      <rect class="cls-4" x="416.41" y="216.08" width="5.63" height="7.35"/>
      <rect class="cls-4" x="425.56" y="216.08" width="5.63" height="7.35"/>
      <rect class="cls-4" x="416.41" y="234.46" width="5.63" height="7.35"/>
      <rect class="cls-4" x="425.56" y="234.46" width="5.63" height="7.35"/>
      <rect class="cls-4" x="272.51" y="87.45" width="5.63" height="7.35"/>
      <rect class="cls-4" x="281.67" y="87.45" width="5.63" height="7.35"/>
      <rect class="cls-4" x="272.51" y="105.83" width="5.63" height="7.35"/>
      <rect class="cls-4" x="281.67" y="105.83" width="5.63" height="7.35"/>
      <rect class="cls-4" x="272.51" y="124.2" width="5.63" height="7.35"/>
      <rect class="cls-4" x="281.67" y="124.2" width="5.63" height="7.35"/>
      <rect class="cls-4" x="272.51" y="142.58" width="5.63" height="7.35"/>
      <rect class="cls-4" x="281.67" y="142.58" width="5.63" height="7.35"/>
      <rect class="cls-4" x="272.51" y="160.96" width="5.63" height="7.35"/>
      <rect class="cls-4" x="281.67" y="160.96" width="5.63" height="7.35"/>
      <rect class="cls-4" x="272.51" y="179.33" width="5.63" height="7.35"/>
      <rect class="cls-4" x="281.67" y="179.33" width="5.63" height="7.35"/>
      <rect class="cls-4" x="272.51" y="197.71" width="5.63" height="7.35"/>
      <rect class="cls-4" x="281.67" y="197.71" width="5.63" height="7.35"/>
      <rect class="cls-4" x="272.51" y="216.08" width="5.63" height="7.35"/>
      <rect class="cls-4" x="281.67" y="216.08" width="5.63" height="7.35"/>
      <rect class="cls-4" x="272.51" y="234.46" width="5.63" height="7.35"/>
      <rect class="cls-4" x="281.67" y="234.46" width="5.63" height="7.35"/>
      <rect class="cls-4" x="635.25" y="234.46" width="5.63" height="7.35"/>
    </g>
  </g>
  <g id="Trees">
    <g>
      <path class="cls-16" d="m621.19,353.62c0,28.05-15.73,30.17-35.14,30.17s-35.14-2.12-35.14-30.17,15.73-86.69,35.14-86.69,35.14,58.64,35.14,86.69Z"/>
      <path class="cls-12" d="m621.19,353.62c0,28.05-15.73,30.17-35.14,30.17s-35.14-2.12-35.14-30.17,15.73-86.69,35.14-86.69,35.14,58.64,35.14,86.69Z"/>
      <polygon class="cls-14" points="597.93 366.35 592.12 366.75 607.26 356.55 596.45 362.01 597.93 357.74 592.99 363.76 587.19 366.69 586.73 346.54 589.8 339.09 586.66 343.28 586.39 331.6 596.02 318.76 586.32 328.69 585.74 302.98 585.22 319.44 579.04 312.55 585.12 322.6 584.3 348.66 578.92 345.14 574.02 336.46 575.98 343.23 566.37 336.94 584.18 352.3 581.48 437.85 588.82 437.85 587.27 370.02 588.96 368.88 597.93 366.35"/>
    </g>
    <g>
      <path class="cls-16" d="m707.74,302.41c0,45.11-25.3,48.52-56.5,48.52s-56.5-3.41-56.5-48.52,25.3-139.4,56.5-139.4,56.5,94.3,56.5,139.4Z"/>
      <polygon class="cls-14" points="670.34 322.88 661 323.52 685.34 307.11 667.95 315.9 670.34 309.03 662.39 318.71 653.07 323.42 652.33 291.03 657.27 279.04 652.21 285.78 651.78 267 667.26 246.36 651.67 262.32 650.73 220.98 649.89 247.44 639.96 236.36 649.73 252.52 648.41 294.43 639.77 288.78 631.89 274.81 635.05 285.69 619.58 275.58 648.23 300.29 643.89 437.85 655.69 437.85 653.19 328.78 655.92 326.95 670.34 322.88"/>
    </g>
    <g>
      <path class="cls-16" d="m86.17,353.62c0,28.05,15.73,30.17,35.14,30.17s35.14-2.12,35.14-30.17-15.73-86.69-35.14-86.69-35.14,58.64-35.14,86.69Z"/>
      <path class="cls-12" d="m86.17,353.62c0,28.05,15.73,30.17,35.14,30.17s35.14-2.12,35.14-30.17-15.73-86.69-35.14-86.69-35.14,58.64-35.14,86.69Z"/>
      <polygon class="cls-14" points="109.43 366.35 115.24 366.75 100.1 356.55 110.91 362.01 109.43 357.74 114.37 363.76 120.17 366.69 120.63 346.54 117.56 339.09 120.7 343.28 120.97 331.6 111.34 318.76 121.03 328.69 121.62 302.98 122.14 319.44 128.32 312.55 122.24 322.6 123.06 348.66 128.44 345.14 133.34 336.46 131.37 343.23 140.99 336.94 123.18 352.3 125.87 437.85 118.54 437.85 120.09 370.02 118.4 368.88 109.43 366.35"/>
    </g>
    <g>
      <path class="cls-16" d="m0,302.86c0,44.96,25.21,48.35,56.31,48.35s56.31-3.39,56.31-48.35-25.21-138.94-56.31-138.94S0,257.9,0,302.86Z"/>
      <path class="cls-13" d="m0,302.86c0,44.96,25.21,48.35,56.31,48.35s56.31-3.39,56.31-48.35-25.21-138.94-56.31-138.94S0,257.9,0,302.86Z"/>
      <polygon class="cls-14" points="37.27 323.26 46.58 323.9 22.32 307.55 39.65 316.31 37.27 309.47 45.19 319.11 54.48 323.8 55.22 291.52 50.3 279.57 55.34 286.29 55.77 267.57 40.34 247 55.87 262.9 56.82 221.7 57.65 248.07 67.55 237.03 57.81 253.14 59.12 294.91 67.74 289.28 75.59 275.36 72.45 286.2 87.86 276.12 59.31 300.75 63.63 437.85 51.88 437.85 54.36 329.15 51.65 327.32 37.27 323.26"/>
    </g>
  </g>
  <g id="Characters">
    <g>
      <g>
        <g>
          <rect class="cls-10" x="333.99" y="179.68" width="38.79" height="15.61" rx="3.99" ry="3.99"/>
          <rect class="cls-10" x="350.07" y="172.11" width="3.78" height="11.83"/>
        </g>
        <path class="cls-10" d="m473.15,246.38l-16.08-59.45-.83-3.04-.72-2.66-1.27-4.71-31.46-3.88,1.31,4.88,2.05,7.59,1.52,5.66,5.03,18.69,1.2,4.44.77,2.88,1.73,6.42h-159.11l.58-2.15,2.22-8.26,1.01-3.74,4.52-16.81,2.34-8.68,1.47-5.44,1.47-5.48-31.46,3.88-1.28,4.72-1.6,5.91-1.69,6.26-14.61,53.99-14.33,9.5h260.79l-13.57-10.52Zm-62.68-17.31l4.03-3.76,3.37,4.41-1.5,2.05c-.65-.04-1.31-.06-1.97-.06-.77,0-1.53.02-2.29.07l-1.64-2.71Zm16.59-51.36l-.39-1.19,23.7,1.72.36,1.49.93,3.83,1.3,5.33,12.57,51.58-22.27-17.27h-1.19l-1.12-3.4-2.77-8.38-2.14-6.51-8.98-27.2Zm-167.62,16.43l1.68-6.92,1.67-6.86.52-2.12,23.71-1.72-.6,1.82-2.48,7.5-.53,1.61-5.73,17.36-2.68,8.12-.46,1.4-2.96,8.98-.06.19-1.1,3.32.57.19-9.42,6.26-13.9,9.22,11.77-48.35Z"/>
      </g>
      <g>
        <path class="cls-5" d="m325.03,260.1l-2.34-33.27c-.55-7.9-7.13-14.03-15.05-14.03h-30.58c-7.92,0-14.5,6.13-15.05,14.03l-2.34,33.27h65.35Z"/>
        <path class="cls-5" d="m445.48,258.39l-.1-1.49-.17-2.38-.08-1.17-.06-.76-.13-1.94-.22-3.04-.03-.43-.36-5.22-1.07-15.14c-.03-.38-.07-.76-.12-1.13-.13-.85-.32-1.69-.58-2.49-.4-1.21-.94-2.35-1.61-3.4-1.27-2.01-3-3.69-5.04-4.91-.64-.37-1.31-.71-2.01-.99-1.18-.48-2.43-.81-3.73-.98-.64-.09-1.29-.13-1.96-.13h-30.57c-6.67,0-12.38,4.34-14.35,10.41-.38,1.15-.61,2.36-.7,3.62l-.2,2.91-.82,11.6-.72,10.21-.08,1.21-.07.97-.23,3.18-.22,3.19h65.35l-.12-1.7Zm-31.08-26.68c-.77,0-1.53.02-2.29.07l-1.64-2.71,4.03-3.76,3.37,4.41-1.5,2.05c-.65-.04-1.31-.06-1.97-.06Z"/>
      </g>
      <g>
        <g>
          <path class="cls-3" d="m284.63,188.21s-5.86-4.19-9.49-2.23c-3.63,1.95-11.17,23.18-12.29,27.92s5.86,8.66,10.61,10.05c4.75,1.4,14.24-1.68,16.47-3.91s-5.31-31.83-5.31-31.83Z"/>
          <path class="cls-11" d="m324.24,260.98c-.36-1.13-.57-1.83-.57-1.83,0,0-4.07-21.79-5.08-23.53-1.02-1.74-13.65-7.41-13.65-7.41l-21.93-1.16s-16.41,7.99-16.56,9.01c-.08.54-3.22,13.18-6.15,24.92h63.95Z"/>
          <path class="cls-8" d="m272.77,244.67c1.29,3.73,2.16,6.35,2.69,9.72"/>
          <path class="cls-8" d="m315.8,246.19c-.7,2.4-2.47,5.58-1.94,8.14"/>
        </g>
        <g>
          <path class="cls-3" d="m295.2,180.74s-13.05,3.63-16.68,10.64c-3.63,7.01-3.87,8.58-1.81,11.97,2.05,3.38,7.13,9.43,11.85,11.85,4.71,2.42,19.7-1.09,19.7-1.09,0,0,4.59-2.05,6.04-5.68,1.45-3.63,4.71-8.7,2.54-14.14-2.18-5.44-11.85-12.93-14.87-13.78-3.02-.85-6.77.24-6.77.24Z"/>
          <g>
            <path class="cls-1" d="m304.7,189.91s-6.51,4.01-9.85,6.34c-3.34,2.34-7.35,3.67-7.35,3.67,0,0-3,1.34-2.34,4.84.67,3.51,1.93,15.62,1.93,15.62l-2.27,4.92,9.68,10.68,7.68-10.02.83-5.18s7.01-4.34,7.18-5.34c.17-1,2.17-15.69,2-17.19-.17-1.5-7.51-8.35-7.51-8.35Z"/>
            <path class="cls-9" d="m305.84,200.2s-.36,3.26-.36,3.75,2.9,3.02,1.81,3.99c-1.09.97-3.26,1.57-3.26,1.57"/>
            <path class="cls-9" d="m304.39,212.53s-1.21,1.33-3.87-1.45"/>
            <path class="cls-10" d="m303.04,220.79s-2.76-.29-3.84-1.01c-1.09-.73-4.23-3.14-4.23-3.14l6.16,10.64,1.07-1.31.83-5.18Z"/>
            <path class="cls-1" d="m288.8,203.1s-2.3-6.89-4.96-3.02c-2.66,3.87,1.57,9.31,3.63,9.19"/>
            <ellipse class="cls-14" cx="299.86" cy="202.74" rx="1.03" ry="1.45"/>
            <ellipse class="cls-14" cx="308.92" cy="202.74" rx="1.03" ry="1.45"/>
            <path class="cls-9" d="m297.14,199.59s2.18-2.18,5.08-.48"/>
            <path class="cls-9" d="m306.93,198.87s3.26-1.33,3.99,1.21"/>
          </g>
          <polygon class="cls-1" points="284.81 221.59 293.27 232.35 287.47 238.64 280.94 226.91 284.81 221.59"/>
          <polyline class="cls-10" points="257.61 180.12 296.99 259.68 286.4 259.68 254.66 182.55"/>
          <polygon class="cls-1" points="293.27 232.35 294.52 235.99 291.58 234.53 293.27 232.35"/>
          <polygon class="cls-1" points="296.29 230.54 300.4 238.64 306.69 228 302.46 224.62 296.29 230.54"/>
          <polygon class="cls-1" points="296.29 230.54 294.52 235.99 297.5 233.08 296.29 230.54"/>
        </g>
      </g>
      <g>
        <g>
          <path class="cls-7" d="m469.39,255.71s-.02-.03-.02-.04c-.02-.03-.04-.06-.05-.09h-.01c-7.07-11.83-9.16-3.96-11.69-9.93-4.28-10.06-7.9-17.07-9.43-18.12-.78-.53-2.67-1.18-5.05-1.84-3.1-.86-7.01-1.76-10.35-2.49-.72-.15-1.4-.3-2.05-.43-1.89-.4-3.44-.71-4.31-.88-.49-.1-.76-.15-.76-.15l-1.92-.05-3.13-.08-12.48-.32h-.37s-.59-.03-.59-.03l-5.42-.14s-.37.15-1.01.42c-.89.36-2.3.95-3.99,1.66-4.45,1.89-10.79,4.65-14.37,6.53-1.42.74-2.41,1.35-2.68,1.71-.6.8-5.04,6.1-8.13,13.56-.21.52-3.67,3.4-5.9,5.38-1.01.89-1.76,1.6-1.86,1.84-.22.54-.41,1.07-.58,1.58-.36,1.09-.6,2.12-.74,3.1-.87,5.62,1.24,9.41,1.87,10.39h102.07c.59-1.31,3.24-7.36,3.2-10.39-.01-.48-.08-.89-.25-1.19Zm-51.52-25.99l-1.5,2.05c-.65-.04-1.31-.06-1.97-.06-.77,0-1.53.02-2.29.07l-1.64-2.71,4.03-3.76,3.37,4.41Z"/>
          <path class="cls-9" d="m387.01,239.94c.24,8.25.24,16.13.58,24.27"/>
          <line class="cls-9" x1="386.89" y1="234.97" x2="386.95" y2="237.45"/>
          <path class="cls-9" d="m441.91,239.14c-.48,6.34-.95,12.69-1.43,19.03-.15,2.02-.3,4.05-.46,6.07"/>
          <line class="cls-9" x1="442.25" y1="234.51" x2="442.13" y2="236.19"/>
        </g>
        <path class="cls-2" d="m423.63,267.29h-15.98c.09-1.42.19-3.02.28-4.69.04-.82.08-1.66.13-2.51.04-.98.08-1.96.12-2.93.01-.09.01-.18.01-.26.04-1.06.07-2.1.09-3.09.06-2.2.06-4.18-.02-5.65-.12-2.14.29-4.41.9-6.53.48-1.67,1.09-3.24,1.68-4.57,1.06-2.4,2.04-4.01,2.04-4.01l-.77-1.27c.76-.05,1.52-.07,2.29-.07.66,0,1.32.02,1.97.06l1.5-2.05-3.37-4.41-4.03,3.76-.46-.76,2.6-4.04.07-.11.62-.96.33-.51.49.51,1.42,1.48,3.41,3.57.3.31-1.12,1.48-1.33,1.75-.67.89s.9,1.92,1.96,4.4c.41.96.85,2.01,1.26,3.05,1,2.53,1.87,5.07,2.02,6.53.12,1.09.42,3.91.8,7.32.1.93.2,1.91.31,2.92.12,1.05.23,2.12.35,3.19.07.63.14,1.26.21,1.89.21,1.89.41,3.71.59,5.31Z"/>
        <polygon class="cls-7" points="404.89 211.95 403.89 219.44 414.5 225.31 423.99 219.57 423.62 214.07 404.89 211.95"/>
        <polygon class="cls-10" points="403.89 219.44 407.45 221.42 413.49 218.89 406.76 212.16 404.89 211.95 403.89 219.44"/>
        <g>
          <path class="cls-7" d="m404.14,182.32s-3.53,2.52-3.78,6.18c-.25,3.66,1.64,20.55,3.66,24.33,2.02,3.78,4.41,6.81,9.33,7.69s10.72-4.03,11.35-6.3c.63-2.27,3.03-13.99,3.03-18.41s.5-9.46-3.53-13.11c-4.03-3.66-10.59-4.41-13.74-3.78-3.15.63-6.3,3.4-6.3,3.4Z"/>
          <path class="cls-10" d="m424.19,182.7c-4.03-3.66-10.59-4.41-13.74-3.78-3.15.63-6.3,3.4-6.3,3.4,0,0-3.53,2.52-3.78,6.18-.12,1.78.26,6.7.92,11.72.26.04.59-.08.59-1,0-1.51-.88-2.4.25-3.66,1.13-1.26,2.9-3.03,3.91-4.66,1.01-1.64.76-4.16.76-4.16,0,0,2.27,1.89,6.81,2.4,4.54.5,9.46.5,10.21.63.76.13-.25.88.88,2.4,1.13,1.51,1.64,2.27,1.76,3.03.11.65.69,4.3.84,5.3.25-1.85.42-3.51.42-4.66,0-4.41.5-9.46-3.53-13.11Z"/>
          <path class="cls-9" d="m411.83,206.02s2.14,1.39,3.53,1.13c1.39-.25,2.77-1.26,2.77-1.26"/>
          <path class="cls-9" d="m418.26,196.56s2.9-2.14,5.8.25"/>
          <path class="cls-9" d="m412.21,196.82s-3.4-2.27-5.8.5"/>
          <path class="cls-14" d="m410.32,199.21c0,.63-.31,1.13-.69,1.13s-.69-.51-.69-1.13.31-1.13.69-1.13.69.51.69,1.13Z"/>
          <path class="cls-14" d="m420.85,199.21c0,.63-.31,1.13-.69,1.13s-.69-.51-.69-1.13.31-1.13.69-1.13.69.51.69,1.13Z"/>
          <path class="cls-9" d="m409.56,210.18s4.92,2.14,9.83-.13"/>
          <path class="cls-7" d="m401.12,197.95s-2.02-1.64-2.77,1.26c-.76,2.9,3.91,6.68,3.91,6.68l-1.13-7.94Z"/>
          <path class="cls-7" d="m427.59,198.46s1.13-1.89,2.14.5c1.01,2.4-3.53,7.69-3.53,7.69l1.39-8.19Z"/>
          <path class="cls-10" d="m415.06,208.25s-6-.85-7.26,1.17c-1.09,1.74-.48,6.6.52,8.94,1.34,1.03,2.96,1.79,5.03,2.16,2.44.44,5.11-.56,7.24-1.95.5-.71,1.21-2.5.95-6.88-.21-3.54-1.74-3.89-6.48-3.44Zm4.51,8.19s-1.96,1.5-4.78,1.42c-1.02-.03-4.28-.09-5.41-1.24-1.13-1.15-2.04-5.48-.91-6.89,1.13-1.41,6.52-.82,6.52-.82,4.26-.31,5.63-.07,5.82,2.41.35,4.57-1.25,5.12-1.25,5.12Z"/>
          <path class="cls-10" d="m416.47,215.8c0,.51-.73,2.06-1.63,2.06s-1.63-1.55-1.63-2.06.73-.93,1.63-.93,1.63.41,1.63.93Z"/>
        </g>
        <polygon class="cls-7" points="414.5 225.31 410.47 229.07 406.8 232.49 405.39 233.8 405.05 232.89 401.38 223.2 400.75 221.54 400.52 220.94 403.64 218.44 403.99 218.66 407.98 221.19 408.14 221.29 411.16 223.2 412.68 224.16 414.5 225.31"/>
        <polygon class="cls-7" points="426.74 222.19 426.35 223.2 422.74 232.64 421.87 234.93 419.69 232.09 418.13 230.04 417.87 229.72 414.5 225.31 415.54 224.68 417.99 223.2 420.62 221.61 423.99 219.57 424.76 220.31 426.43 221.89 426.74 222.19"/>
        <polygon class="cls-10" points="457.12 182.55 456.24 183.89 455.96 184.32 452.96 188.89 438.18 211.42 435.91 214.89 434.67 216.78 430.74 222.77 430.46 223.2 424.05 232.97 421.04 237.55 419.35 240.13 410.37 253.82 408.35 256.9 408.18 257.16 406.53 259.68 395.94 259.68 397.55 257.49 397.98 256.9 400.28 253.75 409.16 241.63 412.6 236.91 416.37 231.77 417.87 229.72 418.95 228.25 422.64 223.2 423.75 221.69 424.76 220.31 430.17 212.92 432.7 209.46 436.04 204.91 451.66 183.56 454.18 180.12 455.52 181.23 457.12 182.55"/>
        <path class="cls-7" d="m360.61,267.3h14.71c1.41-1.64,2.77-3.51,3.14-3.96.63-.78,2.34-3.6,1.25-7.5-1.09-3.91-4.69-6.1-4.69-6.1l-3.91.78s-3.28-1.09-5.78,0c-2.5,1.09-5.78,4.85-7.04,9.22-1,3.5.6,6.1,2.32,7.56Z"/>
        <path class="cls-9" d="m369.96,251.26c-2.74,3.75-4.66,8.66-1.77,12.87"/>
        <path class="cls-7" d="m392.28,245.87s2.59-.65,3.45-.11c.86.54,1.83,2.37,2.26,3.34.43.97-.22,1.83-1.62,2.05-1.4.22-3.23-1.62-3.23-1.62l-.86-3.67Z"/>
        <polygon class="cls-10" points="445.76 251.71 443.68 249.03 422.05 262.6 406.53 262.6 385.05 250.37 383.26 252.31 393.82 267.3 433.64 267.3 445.76 251.71"/>
        <path class="cls-10" d="m451.75,267.29h-5.14c-.09-1.55-.28-3.07-.59-4.55-.17-.9-.39-1.78-.65-2.65-.14-.49-.29-.97-.46-1.45-.19-.59-.41-1.17-.65-1.74-.28-.7-.59-1.39-.94-2.06-.05-.13-.11-.25-.19-.38,0-.02-.01-.04-.03-.06-.61-1.21-1.31-2.37-2.07-3.49-.03-.05-.07-.1-.11-.15-.15-.23-.32-.46-.48-.69-1.01-1.38-2.13-2.67-3.34-3.87-.03-.04-.07-.07-.1-.09-.12-.13-.25-.25-.37-.37-4.26-4.05-9.62-6.94-15.59-8.19-.97-.21-1.95-.37-2.95-.47-1.21-.15-2.44-.22-3.69-.22-.61,0-1.21.02-1.8.05-.59.03-1.18.08-1.76.15-7.21.79-13.71,3.96-18.69,8.7-1.31,1.25-2.51,2.6-3.59,4.05-.45.59-.87,1.2-1.28,1.83,0,.01-.02.03-.03.05-.42.65-.82,1.33-1.19,2.02-.08.14-.15.28-.23.42-.18.35-.36.71-.53,1.07-.27.56-.53,1.13-.76,1.7-.2.49-.39.98-.57,1.48-.2.56-.38,1.13-.54,1.71-.25.82-.45,1.66-.63,2.51-.31,1.53-.52,3.09-.61,4.69h-5.14c.04-.79.1-1.58.19-2.36.05-.48.11-.96.18-1.43.35-2.28.89-4.48,1.62-6.6.07-.2.14-.4.22-.6.1-.29.21-.58.32-.86.23-.58.47-1.15.73-1.72.14-.32.3-.65.46-.97.15-.33.32-.67.49-.99,1.58-3,3.54-5.76,5.84-8.21.22-.24.45-.48.68-.71,4.68-4.74,10.61-8.24,17.27-9.95.58-.15,1.16-.29,1.75-.4,1.73-.36,3.5-.6,5.31-.71.76-.05,1.52-.07,2.29-.07.66,0,1.32.02,1.97.06.14,0,.29.01.43.02.98.06,1.94.16,2.89.3,1.03.14,2.05.33,3.05.55.44.1.88.21,1.31.33,6.63,1.76,12.53,5.3,17.17,10.07.12.13.25.26.37.39,1.11,1.18,2.15,2.43,3.1,3.75.08.1.16.21.23.32,1.02,1.44,1.94,2.95,2.75,4.53.44.85.85,1.72,1.22,2.61.25.6.49,1.2.71,1.81.01.03.02.07.03.1.05.12.09.23.13.35.71,2.07,1.25,4.23,1.59,6.45.03.18.06.36.09.54h0c.15,1.12.26,2.26.31,3.4Z"/>
        <g>
          <path class="cls-7" d="m378.16,243.28s-6.58,9.49-6.79,12.83c-.22,3.34,1.29,6.79,4.53,7.33,3.23.54,3.77-1.51,3.77-1.51,0,0,7.01,1.51,7.33,1.51s1.08-.32,1.29-1.08c.22-.75.75-1.72.75-1.72,0,0,.97-.65,1.62-1.83.65-1.19.86-1.73.86-1.73,0,0,1.19-1.73,1.4-2.48.22-.75.22-2.16.22-2.16,0,0,1.08-1.4.97-2.91-.11-1.51-1.62-4.2-4.74-5.93-3.13-1.73-7.55-2.48-9.06-2.26-1.51.22-2.16,1.94-2.16,1.94Z"/>
          <line class="cls-9" x1="384.28" y1="247.35" x2="393.14" y2="252.44"/>
          <line class="cls-9" x1="382.26" y1="246.19" x2="383.39" y2="246.84"/>
          <line class="cls-9" x1="379.67" y1="250.93" x2="391.53" y2="257.08"/>
          <line class="cls-9" x1="381.28" y1="257.19" x2="389.05" y2="260.64"/>
          <line class="cls-9" x1="378.59" y1="256" x2="380.13" y2="256.68"/>
        </g>
        <path class="cls-7" d="m454.14,267.3h14.71c1.72-1.46,3.32-4.06,2.32-7.56-1.25-4.38-4.53-8.13-7.04-9.22-2.5-1.09-5.78,0-5.78,0l-3.91-.78s-3.6,2.19-4.69,6.1c-1.09,3.91.63,6.72,1.25,7.5.36.45,1.72,2.32,3.13,3.96Z"/>
        <path class="cls-9" d="m462.2,262.34c-.23.6-.53,1.2-.93,1.78"/>
        <path class="cls-9" d="m459.5,251.26c2.01,2.75,3.58,6.12,3.13,9.38"/>
        <path class="cls-7" d="m437.18,245.87s-2.59-.65-3.45-.11c-.86.54-1.83,2.37-2.26,3.34-.43.97.22,1.83,1.62,2.05,1.4.22,3.23-1.62,3.23-1.62l.86-3.67Z"/>
        <g>
          <path class="cls-7" d="m451.3,243.28s6.58,9.49,6.79,12.83c.22,3.34-1.29,6.79-4.53,7.33-3.23.54-3.77-1.51-3.77-1.51,0,0-7.01,1.51-7.33,1.51s-1.08-.32-1.29-1.08c-.22-.75-.75-1.72-.75-1.72,0,0-.97-.65-1.62-1.83-.65-1.19-.86-1.73-.86-1.73,0,0-1.19-1.73-1.4-2.48-.22-.75-.22-2.16-.22-2.16,0,0-1.08-1.4-.97-2.91.11-1.51,1.62-4.2,4.74-5.93,3.13-1.73,7.55-2.48,9.06-2.26,1.51.22,2.16,1.94,2.16,1.94Z"/>
          <line class="cls-9" x1="445.18" y1="247.35" x2="436.32" y2="252.44"/>
          <line class="cls-9" x1="447.21" y1="246.19" x2="446.07" y2="246.84"/>
          <line class="cls-9" x1="449.79" y1="250.93" x2="437.93" y2="257.08"/>
          <line class="cls-9" x1="448.18" y1="257.19" x2="440.41" y2="260.64"/>
          <line class="cls-9" x1="450.87" y1="256" x2="449.33" y2="256.68"/>
        </g>
      </g>
      <g>
        <g>
          <path class="cls-10" d="m481.46,332.99v63.16h-246.92v-63.16h-46.42v92.31c0,7.16,5.8,12.97,12.97,12.97h20.49c7.16,0,12.97-5.8,12.97-12.97v-4.26h22.49l10.53-6.7h179.92l13.4,7.66h20.58v3.3c0,7.16,5.8,12.97,12.97,12.97h20.49c7.16,0,12.97-5.8,12.97-12.97v-92.31h-46.42Z"/>
          <path class="cls-6" d="m518.3,287.53c-1.72-3.44-14.26-16.54-16.78-19.16-.08-.08-.15-.16-.21-.24h-.01c-.07-.09-.14-.18-.21-.27h0c-.11-.17-.22-.34-.31-.51-3.07-5.86-29.11-72.97-33.68-81.49-8.38-15.62-15.1-13.27-24.05-14.41-.26-.03-.52.05-.79.03l-67.94-3.43c-11.19-.57-22.4-.57-33.59-.01-18.39.92-36.78,1.82-55.17,2.76-15.35.78-30.14-.21-38.58,15.06-4.67,8.46-30.6,75.6-33.67,81.48-.09.18-.2.34-.31.5-.09.13-.19.25-.3.37-.04.05-.09.11-.14.16-2.53,2.63-15.06,15.72-16.78,19.16-1.91,3.83-9.57,18.18-9.57,21.05,0,1.25.45,12.34,1.92,27.14,1.43,14.47,3.83,32.5,7.72,48.36,2.35,9.57,9.59,17.23,19.07,19.91.67.19,1.17.3,1.44.3h59.61c1.6,0,3.09-.86,3.9-2.25l3.41-5.89,10.72-18.51c.2-.34.45-.66.73-.93.03-.04.07-.07.1-.09.07-.07.14-.13.21-.19.21-.17.46-.37.76-.59.11-.07.21-.15.32-.23,3.07-2.21,10.03-6.25,19.77-6.25h82.31c3.08,0,5.89.41,8.38,1.03.04.01.07.02.11.03,6.43,1.63,10.75,4.72,12.35,6.01.43.34.78.75,1.05,1.21l10.72,18.51,3.41,5.89c.8,1.39,2.29,2.25,3.9,2.25h59.61c.26,0,.77-.11,1.44-.3,9.47-2.68,16.72-10.34,19.06-19.91,4.13-16.87,6.59-36.2,7.99-51.09,1.25-13.42,1.65-23.23,1.65-24.41,0-2.87-7.65-17.22-9.57-21.05Zm-263.43-94.12c.8-1.85,1.54-3.55,2.19-5.06.87-2.02,1.6-3.72,2.15-5,.75-1.76,1.17-2.75,1.17-2.75.8-.08,1.61-.16,2.41-.24,8.03-.79,15.91-1.46,23.63-2.02,1.01-.08,2.01-.15,3.01-.22,21.72-1.53,42.11-2.26,60.64-2.47,1.27-.02,2.54-.03,3.79-.04,28.78-.22,52.88.79,70.24,1.91,1.01.06,2,.13,2.96.19,11.3.77,19.41,1.56,23.67,2.02,2.27.24,3.45.39,3.45.39l1.78,4.2,1.11,2.61,29.65,69.97c-5.27-.51-11.1-.95-17.4-1.32h-.01c-2.45-.14-4.98-.28-7.57-.41-1.28-.06-2.57-.12-3.88-.17-2.51-.12-5.07-.22-7.69-.31-.42-.02-.85-.04-1.28-.05-1.22-.04-2.44-.08-3.68-.12-.53-.02-1.06-.04-1.6-.05-.16-.01-.32-.01-.48-.01-.04-.01-.08-.01-.13-.01-.74-.02-1.49-.05-2.24-.06-1.42-.05-2.85-.09-4.3-.12-.36-.01-.72-.02-1.09-.02-4.31-.11-8.72-.2-13.2-.27-3.88-.06-7.82-.12-11.8-.16-.69,0-1.39-.01-2.09-.01-2.65-.03-5.32-.05-8-.06-2.39-.02-4.8-.03-7.21-.03h-2.14c-1.21-.01-2.42-.01-3.64-.01h-3.04c-1.18,0-2.36,0-3.55.01h-1.88c-2.26.01-4.51.01-6.77.03-1.23,0-2.45,0-3.67.02-1.72,0-3.43.01-5.14.03-.62,0-1.23.01-1.84.01-12.48.1-24.87.26-36.78.47-.63,0-1.26.02-1.88.03-9.78.17-19.23.36-28.13.57-3.45.08-6.82.16-10.09.24-8.3.2-16.01.41-22.92.61-.54.02-1.08.04-1.62.05-20.82.61-34.05,1.12-34.05,1.12,8.25-16.17,21.51-46.33,28.94-63.49Z"/>
          <path class="cls-5" d="m278.56,404.29l-3.35,7.66h162.7l-2.39-7.66-15.79-27.28s-6.22-7.18-21.53-7.66c-15.31-.48-82.31,0-82.31,0,0,0-11.48-.96-21.53,7.66l-15.79,27.28Z"/>
          <path class="cls-10" d="m292.44,313.37s12.92,22.97,16.75,26.8c3.83,3.83,8.13,3.83,13.4,4.31,5.26.48,77.52,0,77.52,0,0,0,5.74-.96,8.61-5.26,2.87-4.31,12.44-25.84,12.44-25.84h-128.72Z"/>
          <path class="cls-5" d="m305.26,316.49s10.35,18.39,13.41,21.46,6.51,3.07,10.73,3.45c4.22.38,62.08,0,62.08,0,0,0,4.6-.77,6.9-4.22,2.3-3.45,9.96-20.69,9.96-20.69h-103.08Z"/>
          <g>
            <path class="cls-10" d="m410.79,396.15l-2.86-7.91c-1.81-5-6.6-8.29-11.92-8.19l-77.72.78c-5.49.11-10.25,3.8-11.72,9.09l-1.94,6.22h106.16Z"/>
            <polygon class="cls-10" points="303.44 399.98 301.06 407.64 414.94 407.64 412.17 399.98 303.44 399.98"/>
          </g>
          <path class="cls-10" d="m501.08,267.91s2.39-18.66,6.7-18.66,23.45,5.26,23.93,9.09c.48,3.83-3.83,8.13-7.66,9.09-3.83.96-11.96,1.91-11.96,1.91l-1.91,7.18-9.09-8.61Z"/>
          <path class="cls-10" d="m213.01,267.91s-2.39-18.66-6.7-18.66-23.45,5.26-23.93,9.09c-.48,3.83,3.83,8.13,7.66,9.09,3.83.96,11.96,1.91,11.96,1.91l1.91,7.18,9.09-8.61Z"/>
          <path class="cls-7" d="m268.52,310.98s8.61,9.09,11.48,25.84c0,0-40.67-1.91-56.47-8.13-15.79-6.22-17.71-6.7-18.18-9.57-.48-2.87.96-23.45,7.18-26.8,6.22-3.35,12.92-2.39,19.14,2.39,6.22,4.79,13.88,11.96,18.18,13.4,4.31,1.44,18.66,2.87,18.66,2.87Z"/>
          <path class="cls-7" d="m240.64,312.37c0,6.19-5.02,11.22-11.22,11.22s-11.22-5.02-11.22-11.22,5.02-11.22,11.22-11.22,11.22,5.02,11.22,11.22Z"/>
          <path class="cls-7" d="m260.67,326.39c0,2.88-2.33,5.21-5.21,5.21s-5.21-2.33-5.21-5.21,2.33-5.21,5.21-5.21,5.21,2.33,5.21,5.21Z"/>
          <path class="cls-7" d="m446.92,310.98s-8.61,9.09-11.48,25.84c0,0,40.67-1.91,56.47-8.13,15.79-6.22,17.71-6.7,18.18-9.57.48-2.87-.96-23.45-7.18-26.8-6.22-3.35-12.92-2.39-19.14,2.39-6.22,4.79-13.88,11.96-18.18,13.4-4.31,1.44-18.66,2.87-18.66,2.87Z"/>
          <path class="cls-7" d="m477.37,312.37c0,6.19,5.02,11.22,11.22,11.22s11.22-5.02,11.22-11.22-5.02-11.22-11.22-11.22-11.22,5.02-11.22,11.22Z"/>
          <path class="cls-7" d="m457.34,326.39c0,2.88,2.33,5.21,5.21,5.21s5.21-2.33,5.21-5.21-2.33-5.21-5.21-5.21-5.21,2.33-5.21,5.21Z"/>
          <path class="cls-10" d="m498.21,353.57s-44.5,8.61-46.42,10.05c-1.91,1.44-5.74,9.57-5.74,9.57l9.09-2.39s21.05.96,28.23-2.39c7.18-3.35,14.83-14.83,14.83-14.83Z"/>
          <path class="cls-10" d="m219.23,353.57s44.5,8.61,46.42,10.05c1.91,1.44,5.74,9.57,5.74,9.57l-9.09-2.39s-21.05.96-28.23-2.39c-7.18-3.35-14.83-14.83-14.83-14.83Z"/>
          <polyline class="cls-9" points="442.43 318.34 430.55 314.38 421.16 314.38"/>
          <polyline class="cls-9" points="273.79 317.78 281.71 313.25 292.44 313.37"/>
          <path class="cls-9" d="m476.11,264.82c1.21-.69,2.43-1.34,3.67-1.94"/>
          <path class="cls-9" d="m423.44,332.76c7.49-16.46,24.6-49.19,48.53-65.34"/>
          <path class="cls-9" d="m419.23,342.68s.59-1.57,1.73-4.28"/>
          <path class="cls-9" d="m242.05,267.41c-1.99-1.2-4.04-2.34-6.17-3.39"/>
          <path class="cls-9" d="m289.98,333.12c-4.9-14.64-17.67-44.95-43.71-62.98"/>
          <path class="cls-9" d="m292.47,341.55s-.35-1.52-1.14-4.16"/>
          <path class="cls-7" d="m222.29,290.61s-5.09-12.45-5.09-19.81"/>
          <path class="cls-7" d="m494.49,290.05s1.7-5.66,2.83-15.85"/>
          <path class="cls-9" d="m512.04,343.24l-3.4,44.14-62.82,2.83s-10.75-13.02-11.32-18.67c-.57-5.66,7.36-14.15,9.62-14.71s41.88-8.49,41.88-8.49"/>
          <path class="cls-9" d="m204.72,343.24l3.4,44.14,62.82,2.83s10.75-13.02,11.32-18.67c.57-5.66-7.36-14.15-9.62-14.71s-41.88-8.49-41.88-8.49"/>
          <path class="cls-9" d="m309.74,324.04l46.18,3.69c1.96.16,3.93.16,5.9,0l42.56-3.31"/>
          <path class="cls-9" d="m312.78,328.87l43.13,3.45c1.96.16,3.93.16,5.9,0l41.07-3.19"/>
          <path class="cls-9" d="m315.87,333.71l40.05,3.2c1.96.16,3.93.16,5.9,0l38.99-3.03"/>
        </g>
        <path class="cls-6" d="m417.87,229.72l-1.5,2.05c-.65-.04-1.31-.06-1.97-.06-.77,0-1.53.02-2.29.07l-1.64-2.71,4.03-3.76,3.37,4.41Z"/>
        <path class="cls-9" d="m457.07,186.93l-1.11-2.61-1.78-4.2s-1.18-.15-3.45-.39c-4.26-.46-12.37-1.25-23.67-2.02-.96-.06-1.95-.13-2.96-.19-17.36-1.12-41.46-2.13-70.24-1.91-1.25.01-2.52.02-3.79.04-18.53.21-38.92.94-60.64,2.47-1,.07-2,.14-3.01.22-7.72.56-15.6,1.23-23.63,2.02-.8.08-1.61.16-2.41.24,0,0-.42.99-1.17,2.75-.55,1.28-1.28,2.98-2.15,5-.65,1.51-1.39,3.21-2.19,5.06-7.43,17.16-20.69,47.32-28.94,63.49,0,0,13.23-.51,34.05-1.12.54-.01,1.08-.03,1.62-.05,6.91-.2,14.62-.41,22.92-.61,3.27-.08,6.64-.16,10.09-.24,8.9-.21,18.35-.4,28.13-.57.62-.01,1.25-.03,1.88-.03,11.91-.21,24.3-.37,36.78-.47.61,0,1.22-.01,1.84-.01,1.71-.02,3.42-.03,5.14-.03,1.22-.01,2.44-.02,3.67-.02,2.26-.02,4.51-.02,6.77-.03h1.88c1.19-.01,2.37-.01,3.55-.01h3.04c1.22,0,2.43,0,3.64.01h2.14c2.41,0,4.82.01,7.21.03,2.68,0,5.35.03,8,.06.7,0,1.4.01,2.09.01,3.98.04,7.92.1,11.8.16,4.48.07,8.89.16,13.2.27.37,0,.73,0,1.09.02,1.45.03,2.88.07,4.3.12.75.01,1.5.04,2.24.06.05,0,.09,0,.13.01.16,0,.32,0,.48.01.54.01,1.07.03,1.6.05,1.24.04,2.46.08,3.68.12.43.01.86.03,1.28.05,2.62.09,5.18.19,7.69.31,1.31.05,2.6.11,3.88.17,2.59.13,5.12.27,7.57.41h.01c6.3.37,12.13.81,17.4,1.32l-29.65-69.97Zm-42.67,44.78c-.77,0-1.53.02-2.29.07l-1.64-2.71,4.03-3.76,3.37,4.41-1.5,2.05c-.65-.04-1.31-.06-1.97-.06Z"/>
      </g>
    </g>
  </g>
</svg>
